<svg id="Capa_1" data-name="Capa 1" xmlns="http://www.w3.org/2000/svg" viewBox="0 0 141.27 175.05"><title>m3</title><ellipse cx="68.32" cy="165.84" rx="61.64" ry="9.21" fill="#e2d2bc"/><path d="M68.79,148.62a19.73,19.73,0,0,0,6.19,15L71.76,175c-1.16.31-1.83,3.19-1.83,3.58,0,1.12,5.49,2,12.26,2s12.26-.91,12.26-2c0-.32-.44-3.13-1.23-3.4l-1.36-5.06q1.33.09,2.7.09h11.68q1.25,0,2.47-.08l-1.44,5.58c-.79.27-1.23,2.72-1.23,3,0,1.12,5.49,2,12.26,2s12.26-.91,12.26-2c0-.39-.67-2.91-1.83-3.22l-3.2-11.7A19.69,19.69,0,0,0,132,148.62" transform="translate(-30.51 -17.54)" fill="#c44d83"/><path d="M55.05,46s-14-1.29-15-16.3S19.11,55.26,40,64.76" transform="translate(-30.51 -17.54)" fill="#fff"/><path d="M145.51,46s14-1.29,15-16.3,20.94,25.58,0,35.08" transform="translate(-30.51 -17.54)" fill="#fff"/><circle cx="71.36" cy="80.35" r="69.91" fill="#ff7bac"/><path d="M146.69,44.25A69.9,69.9,0,0,1,40,130.53,69.91,69.91,0,1,0,146.69,44.25Z" transform="translate(-30.51 -17.54)" fill="#e26498"/><path d="M63.17,132.24h77.67a1.5,1.5,0,0,0,0-3H63.17a1.5,1.5,0,0,0,0,3Z" transform="translate(-30.51 -17.54)" fill="#bf627c"/><path d="M84.65,41.82C72,40.09,78.89,26.28,87.52,31.46,79.47,19.38,97.88,9,101.91,28h1.69c4-19,22.44-8.63,14.38,3.45,8.63-5.18,15.54,8.63,2.88,10.36" transform="translate(-30.51 -17.54)" fill="#bf627c"/><circle cx="72.36" cy="62.54" r="42.29" fill="#fff"/><circle cx="72.36" cy="62.54" r="27.62" fill="#3f3f15"/><circle cx="72.36" cy="56.78" r="13.23" fill="#fff"/><circle cx="59.99" cy="76.06" r="4.89" fill="#fff"/><path d="M78,129.83c-.07-4-2.09-8.87-4.47-8.83s-4.21,5-4.14,9Z" transform="translate(-30.51 -17.54)" fill="#fff"/><path d="M134,129.83c-.07-4-2.09-8.87-4.47-8.83s-4.21,5-4.14,9Z" transform="translate(-30.51 -17.54)" fill="#fff"/></svg>