<svg id="Capa_1" data-name="Capa 1" xmlns="http://www.w3.org/2000/svg" viewBox="0 0 15.38 21.8"><title>monstruo30</title><ellipse cx="7.61" cy="20.71" rx="7.3" ry="1.09" fill="#e2d2bc"/><circle cx="3.01" cy="4.18" r="0.32" fill="#fff"/><path d="M18.37,20.4a2.37,2.37,0,0,1-.78,1.84L18,23.65c.14,0,.22.34.22.39s-.66.24-1.48.24-1.48-.11-1.48-.24.05-.33.15-.37l.17-.67h-2l.16.61c.09,0,.15.37.15.41s-.66.24-1.48.24-1.48-.11-1.48-.24.08-.39.22-.43l.39-1.38a2.38,2.38,0,0,1-.75-1.81,3.52,3.52,0,0,1,3.81-4.2A3.52,3.52,0,0,1,18.37,20.4Z" transform="translate(-7 -3.79)" fill="#a09c15"/><path d="M9.56,9.75a3.13,3.13,0,0,0,1.16,2.54.71.71,0,0,0,1-.26.73.73,0,0,0-.26-1A1.74,1.74,0,0,1,11,9.75a.71.71,0,0,0-1.42,0Z" transform="translate(-7 -3.79)" fill="#a09c15"/><circle cx="3.22" cy="3.04" r="2.8" fill="#fff"/><path d="M10.22,9.87a3,3,0,1,1,3-3A3,3,0,0,1,10.22,9.87Zm0-5.6a2.56,2.56,0,1,0,2.56,2.56A2.57,2.57,0,0,0,10.22,4.27Z" transform="translate(-7 -3.79)" fill="#a09c15"/><circle cx="3.59" cy="3.28" r="1.83" fill="#3f3f15"/><circle cx="3.83" cy="2.9" r="0.88" fill="#fff"/><circle cx="2.77" cy="3.81" r="0.32" fill="#fff"/><circle cx="12.45" cy="4.29" r="0.32" fill="#fff"/><path d="M19.89,9.87a3.13,3.13,0,0,1-1.16,2.54.71.71,0,0,1-1-.26.73.73,0,0,1,.26-1,1.74,1.74,0,0,0,.45-1.31.71.71,0,0,1,1.42,0Z" transform="translate(-7 -3.79)" fill="#a09c15"/><circle cx="12.23" cy="3.16" r="2.8" fill="#fff"/><path d="M16.19,6.95a3,3,0,1,1,3,3A3,3,0,0,1,16.19,6.95Zm.47,0a2.56,2.56,0,1,0,2.56-2.56A2.57,2.57,0,0,0,16.67,6.95Z" transform="translate(-7 -3.79)" fill="#a09c15"/><circle cx="11.87" cy="3.4" r="1.83" fill="#3f3f15"/><circle cx="11.63" cy="3.02" r="0.88" fill="#fff"/><circle cx="12.69" cy="3.93" r="0.32" fill="#fff"/><path d="M14.68,21c-.26,2.3,2.87,2.17,2.74-.06.45.83,1.15,1.72,2.17,1.47,1.28-.38.57-1.28.57-2.23,1.47.57,2.75.57,1.72-1.21a11.87,11.87,0,0,1-1.53-3.13c-.51-2.17-.06-5.43-3.38-5.17H12.28c-3.32-.26-2.87,3-3.38,5.17a11.86,11.86,0,0,1-1.53,3.13c-1,1.79.26,1.79,1.72,1.21,0,1-.7,1.85.57,2.23,1,.26,1.72-.64,2.17-1.47-.13,2.23,3,2.36,2.75.06Z" transform="translate(-7 -3.79)" fill="#d9e021"/><path d="M17.24,13.08a2.58,2.58,0,0,1-5.16,0Z" transform="translate(-7 -3.79)" fill="#3f3f15"/><path d="M13,13.08c0,.47.23,1.07.52,1.07s.52-.6.52-1.07Z" transform="translate(-7 -3.79)" fill="#fff"/><path d="M15.41,13.08c0,.47.23,1.07.52,1.07s.52-.6.52-1.07Z" transform="translate(-7 -3.79)" fill="#fff"/><path d="M14.21,13.08c0,.47.23,1.07.52,1.07s.52-.6.52-1.07Z" transform="translate(-7 -3.79)" fill="#fff"/><path d="M22,19.27a11.87,11.87,0,0,1-1.53-3.13c-.11-.47-.18-1-.25-1.52A7.92,7.92,0,0,1,7.52,19.2l0,.07c-1,1.79.26,1.79,1.72,1.21,0,1-.7,1.85.57,2.23,1,.26,1.72-.64,2.17-1.47-.13,2.23,3,2.36,2.75.06h.09c-.26,2.3,2.87,2.17,2.74-.06.45.83,1.15,1.72,2.17,1.47,1.28-.38.57-1.28.57-2.23C21.75,21.06,23,21.06,22,19.27Z" transform="translate(-7 -3.79)" fill="#c6c61c"/></svg>