<svg id="Capa_1" data-name="Capa 1" xmlns="http://www.w3.org/2000/svg" viewBox="0 0 129.76 183.97"><defs><style>.cls-1{fill:#e2d2bc;}.cls-2{fill:#fff;}.cls-3{fill:#a09c15;}.cls-4{fill:#3f3f15;}.cls-5{fill:#d9e021;}.cls-6{fill:#c6c61c;}</style></defs><title>monstruo1_Css</title><ellipse class="cls-1" cx="64.21" cy="174.76" rx="61.64" ry="9.21"/><circle class="cls-2" cx="25.38" cy="35.23" r="2.73"/><path class="cls-3" d="M131.6,148.82c0,6.67-2.49,11.86-6.59,15.52l3.26,11.9c1.18.31,1.87,2.88,1.87,3.27,0,1.13-5.58,2.06-12.47,2.06s-12.47-.92-12.47-2.06c0-.32.45-2.82,1.25-3.09l1.47-5.68q-1.24.08-2.51.08H93.52q-1.39,0-2.75-.09l1.38,5.14c.8.27,1.25,3.13,1.25,3.46,0,1.13-5.58,2.06-12.47,2.06s-12.47-.92-12.47-2.06c0-.4.68-3.33,1.86-3.64l3.28-11.62a20.07,20.07,0,0,1-6.3-15.25s-5.72-35.5,32.14-35.46S131.6,148.82,131.6,148.82Z" transform="translate(-35.62 -8.62)"/><path class="cls-3" d="M57.25,58.92c.14,8.45,2.95,16.21,9.75,21.45,2.6,2,6.71.4,8.21-2.15C77,75.13,75.65,72,73.06,70c-3.1-2.39-3.75-7.5-3.81-11.09-.13-7.73-12.13-7.74-12,0Z" transform="translate(-35.62 -8.62)"/><circle class="cls-2" cx="27.21" cy="25.64" r="23.64"/><path class="cls-3" d="M62.82,59.9A25.64,25.64,0,1,1,88.46,34.26,25.67,25.67,0,0,1,62.82,59.9Zm0-47.28A21.64,21.64,0,1,0,84.46,34.26,21.67,21.67,0,0,0,62.82,12.62Z" transform="translate(-35.62 -8.62)"/><circle class="cls-4" cx="30.26" cy="27.67" r="15.44"/><circle class="cls-2" cx="32.29" cy="24.46" r="7.4"/><circle class="cls-2" cx="23.34" cy="32.18" r="2.73"/><circle class="cls-2" cx="105.04" cy="36.23" r="2.73"/><path class="cls-3" d="M144.39,59.92c-.14,8.45-2.95,16.21-9.75,21.45-2.6,2-6.71.4-8.21-2.15C124.62,76.13,126,73,128.58,71c3.1-2.39,3.75-7.5,3.81-11.09.13-7.73,12.13-7.74,12,0Z" transform="translate(-35.62 -8.62)"/><circle class="cls-2" cx="103.21" cy="26.64" r="23.64"/><path class="cls-3" d="M113.18,35.26A25.64,25.64,0,1,1,138.82,60.9,25.67,25.67,0,0,1,113.18,35.26Zm4,0a21.64,21.64,0,1,0,21.64-21.64A21.67,21.67,0,0,0,117.18,35.26Z" transform="translate(-35.62 -8.62)"/><circle class="cls-4" cx="100.15" cy="28.67" r="15.44"/><circle class="cls-2" cx="98.12" cy="25.46" r="7.4"/><circle class="cls-2" cx="107.07" cy="33.18" r="2.73"/><path class="cls-5" d="M100.39,153.49c-2.16,19.39,24.24,18.32,23.16-.54,3.77,7,9.7,14.55,18.32,12.39,10.78-3.23,4.85-10.77,4.85-18.85,12.39,4.85,23.17,4.85,14.55-10.24-4.85-9.16-10.77-16.16-12.93-26.4-4.31-18.32-.54-45.79-28.55-43.64H80.21c-28-2.15-24.24,25.32-28.55,43.64-2.16,10.24-8.08,17.24-12.93,26.4-8.62,15.08,2.16,15.08,14.55,10.24,0,8.08-5.93,15.62,4.85,18.85,8.62,2.16,14.55-5.39,18.32-12.39-1.08,18.86,25.32,19.93,23.17.54Z" transform="translate(-35.62 -8.62)"/><path class="cls-4" d="M122.06,87c0,13-9.75,21.78-21.78,21.78S78.49,100,78.49,87Z" transform="translate(-35.62 -8.62)"/><path class="cls-2" d="M86.26,87c0,4,2,9.06,4.38,9.06S95,91,95,87Z" transform="translate(-35.62 -8.62)"/><path class="cls-2" d="M106.6,87c0,4,2,9.06,4.38,9.06S115.36,91,115.36,87Z" transform="translate(-35.62 -8.62)"/><path class="cls-2" d="M96.43,87c0,4,2,9.06,4.38,9.06S105.19,91,105.19,87Z" transform="translate(-35.62 -8.62)"/><path class="cls-6" d="M162.27,139.25c-4.85-9.16-10.77-16.16-12.93-26.4-.94-4-1.49-8.39-2.07-12.84A66.83,66.83,0,0,1,40,138.67l-.32.58c-8.62,15.08,2.16,15.08,14.55,10.24,0,8.08-5.93,15.62,4.85,18.85,8.62,2.16,14.55-5.39,18.32-12.39-1.08,18.86,25.32,19.93,23.17.54h.79c-2.16,19.39,24.24,18.32,23.16-.54,3.77,7,9.7,14.55,18.32,12.39,10.78-3.23,4.85-10.77,4.85-18.85C160.12,154.33,170.89,154.33,162.27,139.25Z" transform="translate(-35.62 -8.62)"/></svg>