<svg id="Capa_1" data-name="Capa 1" xmlns="http://www.w3.org/2000/svg" viewBox="0 0 139.55 196.82"><title>m2</title><ellipse cx="68.32" cy="187.61" rx="61.64" ry="9.21" fill="#e2d2bc"/><path d="M66.44,158.11a19.74,19.74,0,0,0,6.19,15l-3.22,11.42c-1.16.31-1.83,3.19-1.83,3.58,0,1.12,5.49,2,12.26,2s12.26-.91,12.26-2c0-.32-.44-3.13-1.23-3.4l-1.36-5.06q1.33.09,2.7.09h11.68q1.25,0,2.47-.08l-1.44,5.58c-.79.27-1.23,2.72-1.23,3,0,1.12,5.49,2,12.26,2s12.26-.91,12.26-2c0-.39-.67-2.91-1.83-3.22l-3.2-11.7a19.69,19.69,0,0,0,6.48-15.26" transform="translate(-30 -3.77)" fill="#c66e17"/><path d="M144,35s14-1.29,15-16.3,20.94,25.58,0,35.08" transform="translate(-30 -3.77)" fill="#fbb03b" stroke="#fbb03b" stroke-miterlimit="10"/><path d="M160.28,18.88c3.27,9.31,4.34,23.69-6.27,29.38l6,7.5C179.92,46.72,162.89,9.54,160.28,18.88Z" transform="translate(-30 -3.77)" fill="#ea9a32"/><path d="M55.55,35s-14-1.29-15-16.3-20.94,25.58,0,35.08" transform="translate(-30 -3.77)" fill="#fbb03b" stroke="#fbb03b" stroke-miterlimit="10"/><path d="M39.26,16.88C36,26.19,34.92,40.57,45.53,46.26l-6,7.5C19.62,44.72,36.66,7.54,39.26,16.88Z" transform="translate(-30 -3.77)" fill="#ea9a32"/><path d="M94.42,22.08s-12.33-13-3.36-17.63c8.58-4.46,9.23,14.27,9.23,14.27" transform="translate(-30 -3.77)" fill="#fbb03b"/><path d="M107.49,19.51s7.38-7.77,2-10.55C104.37,6.29,104,17.5,104,17.5" transform="translate(-30 -3.77)" fill="#fbb03b"/><path d="M156.89,51.69C138.72,17.95,105,17.5,105,17.5H94.22s-33.74.45-51.91,34.19c-20.75,45,1.15,81.27,17,99.66A10.77,10.77,0,0,0,56,159.14a10.91,10.91,0,0,0,10.89,10.92,11.58,11.58,0,0,0,9.51-5.56h2.76a10.88,10.88,0,0,0,19,0h2.76a10.88,10.88,0,0,0,19,0h2.76a11.57,11.57,0,0,0,9.51,5.55,10.91,10.91,0,0,0,10.89-10.91,10.7,10.7,0,0,0-2.82-7.23C155.76,133.83,177.52,97.64,156.89,51.69Z" transform="translate(-30 -3.77)" fill="#fbb03b" stroke="#fbb03b" stroke-miterlimit="10"/><circle cx="68.74" cy="47.99" r="23.24" fill="#fff"/><circle cx="69.74" cy="45.99" r="15.18" fill="#3f3f15"/><circle cx="69.74" cy="41.82" r="7.27" fill="#fff"/><circle cx="69.54" cy="54.42" r="2.69" fill="#fff"/><path d="M86.66,99.24h25.67a1.5,1.5,0,0,0,0-3H86.66a1.5,1.5,0,0,0,0,3Z" transform="translate(-30 -3.77)" fill="#e07b17"/><circle cx="104.74" cy="86.99" r="23.24" fill="#fff"/><circle cx="101.74" cy="83.99" r="15.18" fill="#3f3f15"/><circle cx="99.74" cy="80.82" r="7.27" fill="#fff"/><circle cx="107.54" cy="89.42" r="2.69" fill="#fff"/><circle cx="33.74" cy="86.99" r="23.24" fill="#fff"/><circle cx="35.74" cy="84.99" r="15.18" fill="#3f3f15"/><circle cx="37.74" cy="81.82" r="7.27" fill="#fff"/><circle cx="29.94" cy="90.42" r="2.69" fill="#fff"/><path d="M89.83,98c0,4,1.93,8.91,4.3,8.91s4.3-4.91,4.3-8.91Z" transform="translate(-30 -3.77)" fill="#fff"/><path d="M165.43,79.1A82.51,82.51,0,0,1,52.51,143.31a122.16,122.16,0,0,0,7.78,10A10.77,10.77,0,0,0,57,161.14a11.13,11.13,0,0,0,10.89,11.17A11.36,11.36,0,0,0,77.37,167h2.76a10.88,10.88,0,0,0,19,0h2.76a10.88,10.88,0,0,0,19,0h2.76a11.34,11.34,0,0,0,9.51,5.3,11,11,0,0,0,10.89-11,10.85,10.85,0,0,0-2.82-7.3C153.78,139.37,170.36,112.91,165.43,79.1Z" transform="translate(-30 -3.77)" fill="#ea9a32"/></svg>