<?xml version="1.0" encoding="UTF-8" standalone="no"?>
<!-- Created with Inkscape (http://www.inkscape.org/) -->
<svg xmlns:dc="http://purl.org/dc/elements/1.1/" xmlns:cc="http://web.resource.org/cc/" xmlns:rdf="http://www.w3.org/1999/02/22-rdf-syntax-ns#" xmlns:svg="http://www.w3.org/2000/svg" xmlns="http://www.w3.org/2000/svg" xmlns:sodipodi="http://sodipodi.sourceforge.net/DTD/sodipodi-0.dtd" xmlns:inkscape="http://www.inkscape.org/namespaces/inkscape" id="svg2" sodipodi:version="0.32" inkscape:version="0.44+devel" width="300" height="570" version="1.0" sodipodi:docbase="C:\Documents and Settings\Molumen\Desktop" sodipodi:docname="Whooping_Crane.svg" inkscape:output_extension="org.inkscape.output.svg.inkscape" sodipodi:modified="true">
  <defs id="defs5"/>
  <sodipodi:namedview inkscape:window-height="573" inkscape:window-width="739" inkscape:pageshadow="2" inkscape:pageopacity="0.0" guidetolerance="10.0" gridtolerance="10.0" objecttolerance="10.0" borderopacity="1.0" bordercolor="#666666" pagecolor="#ffffff" id="base" inkscape:zoom="0.66140351" inkscape:cx="136.66054" inkscape:cy="295.69733" inkscape:window-x="413" inkscape:window-y="155" inkscape:current-layer="svg2"/>
  <path style="fill:#000000" d="M 192.18379,556.50558 C 191.94133,556.26312 187.47883,555.60047 182.26713,555.03303 C 154.659,552.02707 138.77743,549.90715 128.79129,547.8949 C 120.32955,546.18982 120.31722,546.18489 119.59155,544.21909 C 118.59025,541.50661 117.55692,541.14808 108.58716,540.4009 C 104.0081,540.01946 100.01672,539.31116 99.717435,538.8269 C 99.418135,538.34263 100.02148,537.94641 101.0582,537.94641 C 104.01204,537.94641 124.62293,540.94472 125.12578,541.44757 C 125.37356,541.69535 125.02245,542.56541 124.34554,543.38104 C 123.31709,544.62025 123.58131,544.96892 125.95304,545.50226 C 127.51408,545.8533 130.36629,546.55287 132.29129,547.05687 C 136.37462,548.12595 162.19506,551.49707 173.79129,552.47511 C 178.19129,552.84621 185.84129,553.71877 190.79129,554.41413 C 195.74129,555.10949 203.95379,555.45868 209.04129,555.1901 C 215.50345,554.84895 218.29129,555.04002 218.29129,555.82409 C 218.29129,556.59555 214.2793,556.94641 205.45796,556.94641 C 198.39962,556.94641 192.42625,556.74804 192.18379,556.50558 z M 113.79129,535.0378 C 107.71759,534.27613 105.41477,533.1165 107.43453,531.83672 C 108.18075,531.36389 110.36926,530.97014 112.29789,530.96172 C 114.22652,530.9533 117.25795,530.52956 119.03441,530.02008 C 120.8273,529.50589 122.50139,529.47734 122.79716,529.95591 C 123.09022,530.43009 121.30088,531.12234 118.82086,531.49425 C 112.6853,532.41433 114.10781,533.94593 121.10031,533.94851 L 126.79129,533.95061 L 126.44509,527.19851 C 126.25468,523.48485 125.66568,520.17847 125.1362,519.85099 C 124.60672,519.52352 114.63751,519.16202 102.9824,519.04766 C 64.478865,518.66988 41.537215,516.98487 30.041295,513.69031 C 20.245605,510.88302 19.851605,509.48625 29.541295,511.91777 C 43.272555,515.36349 49.197275,515.99191 73.839785,516.61638 C 94.762215,517.14659 98.485585,517.0281 98.093265,515.84458 C 97.797925,514.95362 95.301095,514.17981 91.210545,513.7115 C 68.871655,511.15401 58.393805,509.58956 58.833975,508.87735 C 59.111135,508.42889 61.464915,507.78283 64.064595,507.44166 C 76.314235,505.83408 71.286005,505.09838 50.791295,505.49961 C 23.332945,506.03716 12.090495,506.81249 12.894345,508.11315 C 13.256225,508.6987 12.342915,508.96698 10.647705,508.7731 C 9.0766749,508.59342 7.8382549,507.99641 7.8956549,507.44641 C 8.0658849,505.8152 14.486295,505.20598 39.291295,504.46731 C 52.216295,504.08242 65.828795,503.63027 69.541295,503.46254 C 75.764215,503.18139 78.087205,503.97446 75.041295,505.34024 C 74.353795,505.64851 76.491295,505.67747 79.791295,505.40459 C 83.091295,505.13171 87.253795,504.885 89.041295,504.85634 L 92.291295,504.80423 L 92.291295,496.84394 C 92.291295,491.38326 91.898775,488.74181 91.041295,488.43196 C 90.353795,488.18354 85.110315,487.55092 79.389115,487.02614 C 73.667915,486.50136 68.717915,485.68009 68.389115,485.2011 C 67.545995,483.97288 50.083865,482.0997 27.791295,480.84613 C 17.341295,480.2585 8.6037949,479.59067 8.3746249,479.36206 C 6.9928949,477.98369 11.068865,477.87544 26.970045,478.8682 C 54.438115,480.58312 69.645055,482.16735 71.291295,483.48551 C 73.307555,485.09995 90.982845,486.37175 91.461155,484.93681 C 91.656855,484.34972 91.509475,480.17421 91.133645,475.6579 C 90.757815,471.14158 90.414545,462.8632 90.370805,457.26151 C 90.327075,451.65981 89.813195,445.81913 89.228865,444.28222 C 88.266945,441.75217 82.741655,436.08688 81.138695,435.98705 C 80.779765,435.9647 79.539125,439.0641 78.381715,442.8746 L 76.277345,449.8028 L 73.040915,448.8746 C 71.260885,448.3641 69.704685,447.94641 69.582685,447.94641 C 69.460695,447.94641 67.770225,446.54979 65.826085,444.84282 C 62.449765,441.87837 60.890605,437.51563 63.541295,438.44964 C 65.541885,439.15458 68.081825,436.60065 68.564225,433.39903 C 68.982905,430.62032 69.053745,430.57894 69.766835,432.69641 C 70.636185,435.2779 70.739615,435.31202 73.392215,433.8924 C 74.976125,433.04472 75.239305,432.18623 74.736665,429.50692 C 73.710105,424.03487 75.689265,424.63482 81.242245,431.47898 C 84.128265,435.03606 86.868395,437.94641 87.331405,437.94641 C 89.328065,437.94641 89.128805,435.90676 86.869875,433.22217 C 85.530745,431.63071 83.342705,427.8801 82.007575,424.8875 C 80.672445,421.8949 78.615085,418.58917 77.435675,417.54142 C 74.926565,415.31243 74.681715,413.94641 76.791295,413.94641 C 77.616295,413.94641 78.291295,413.27141 78.291295,412.44641 C 78.291295,411.62141 78.741295,410.94641 79.291295,410.94641 C 79.841295,410.94641 80.291295,412.02946 80.291295,413.35319 C 80.291295,416.1291 85.567735,428.38119 87.196785,429.388 C 88.732535,430.33715 88.577855,429.19243 86.291295,422.68673 C 84.146185,416.58353 83.528925,404.94641 85.350305,404.94641 C 85.932765,404.94641 86.154455,405.3588 85.842945,405.86284 C 84.871115,407.43528 87.341145,416.74008 89.438035,419.40583 C 93.792855,424.9421 96.116565,420.724 96.166785,407.19149 C 96.183625,402.65129 96.638275,398.15129 97.177105,397.19149 C 98.279905,395.22712 98.387905,395.43079 99.923175,402.37046 C 100.94005,406.96694 102.6793,407.95845 104.32647,404.88068 C 105.18179,403.2825 105.20579,402.05418 104.41561,400.31992 C 103.55652,398.43442 103.62331,397.94641 104.74048,397.94641 C 105.85022,397.94641 106.02494,396.76586 105.56899,392.34816 C 105.16236,388.40825 105.36246,386.52046 106.24449,385.97533 C 107.18988,385.39105 107.22674,384.69431 106.39454,383.13933 C 105.78775,382.00554 105.3056,380.26081 105.32309,379.26215 C 105.35286,377.5625 105.44877,377.57052 106.82309,379.38754 C 108.17716,381.17777 108.29129,380.94044 108.29129,376.33464 C 108.29129,372.56108 107.32254,369.33737 104.32726,363.14351 C 99.914695,354.01887 100.17185,352.06519 104.7197,360.16219 C 106.33033,363.02975 107.83364,364.81936 108.0604,364.13909 C 108.65825,362.34553 104.55267,349.40948 101.58323,343.73053 C 98.158255,337.18038 99.249205,336.64736 103.26666,342.90802 L 106.49932,347.94568 L 112.43425,342.98657 C 117.96583,338.36449 124.39543,331.10229 127.07809,326.44641 C 127.8423,325.1201 128.24072,324.93357 128.26088,325.89266 C 128.29282,327.41179 124.27414,333.87115 120.9172,337.69641 C 118.39041,340.57571 119.93222,340.63237 122.97684,337.7721 C 124.24979,336.57622 125.29129,336.06341 125.29129,336.63251 C 125.29129,337.20161 121.46629,341.41909 116.79129,346.00467 C 109.19371,353.45694 106.73412,356.94641 109.07888,356.94641 C 111.1975,356.94641 129.56495,335.65276 136.15806,325.55312 C 138.98134,321.22829 141.29129,318.32303 141.29129,319.09698 C 141.29129,322.12848 129.07571,338.99049 119.43874,349.26156 C 110.58154,358.70157 107.25407,363.94641 110.12226,363.94641 C 111.29611,363.94641 131.72435,341.19946 132.10557,339.46789 C 132.27842,338.68276 133.27955,337.76752 134.33031,337.43403 C 136.12877,336.86322 145.16656,325.04418 150.22818,316.64381 C 153.84055,310.64865 153.89455,313.21011 150.29157,319.65089 C 146.2932,326.79848 142.56952,331.51143 130.30565,344.94641 C 113.22417,363.65905 109.29053,368.55026 109.3066,371.05731 C 109.34357,376.82467 110.88305,376.00933 120.35464,365.20607 C 125.54299,359.28826 130.82619,353.32141 132.09508,351.94641 C 133.36397,350.57141 135.82724,347.2715 137.56901,344.61327 C 139.31078,341.95504 140.90341,340.28277 141.10818,340.89709 C 141.56726,342.27432 135.206,350.78372 125.84852,361.30982 C 112.68905,376.11272 109.29205,380.69012 109.27655,383.6403 C 109.26844,385.18366 108.67848,387.57141 107.96552,388.94641 C 107.07173,390.67015 106.92709,392.6307 107.49969,395.26046 C 107.95644,397.35819 108.0756,399.48639 107.76448,399.9898 C 106.88547,401.41206 109.17481,404.94641 110.97508,404.94641 C 112.39894,404.94641 112.52196,403.59529 112.02212,393.44641 C 111.49448,382.73272 111.58183,381.94641 113.2997,381.94641 C 115.12578,381.94641 120.91926,375.27751 137.0501,354.60724 C 144.63474,344.88819 144.74933,344.79384 146.43758,346.87874 C 147.58645,348.29754 148.37628,348.61791 148.8471,347.8561 C 149.23233,347.23279 148.95759,346.35821 148.23656,345.91259 C 146.37682,344.7632 150.84949,331.53164 154.6047,327.07365 C 156.71683,324.56623 157.15552,323.41167 156.31453,322.57365 C 155.47452,321.7366 154.69394,322.08999 153.28237,323.94641 C 151.24124,326.63078 150.82327,327.42549 146.87002,336.13859 C 145.44958,339.2693 143.7618,342.15562 143.11941,342.55264 C 142.29582,343.06165 142.18523,342.71011 142.74436,341.36045 C 145.74853,334.10891 145.79131,333.87363 144.27751,332.92961 C 143.02151,332.14636 143.12593,331.76702 144.95166,330.48067 C 149.79453,327.06857 161.31108,308.19471 159.30627,306.95567 C 158.70234,306.58242 160.50139,302.94697 163.68366,298.11001 C 166.65515,293.59342 169.89921,288.22142 170.8927,286.17222 C 172.19841,283.47901 172.80136,282.9311 173.06826,284.19526 C 173.38524,285.6966 168.23329,295.54046 164.87936,299.84184 C 164.28092,300.60933 162.85276,303.98433 161.70567,307.34184 C 160.55858,310.69936 159.24902,314.34641 158.79554,315.44641 C 157.23451,319.23299 163.20109,312.85651 166.86929,306.81801 C 170.38027,301.03831 170.84702,299.85866 169.54129,300.06483 C 167.33075,300.41386 167.47817,299.53514 170.3241,295.39872 C 172.045,292.89748 174.96228,287.60998 176.80696,283.64872 C 179.20787,278.49298 180.17544,277.1568 180.21204,278.94641 C 180.24015,280.32141 178.54021,284.60659 176.43438,288.46904 C 174.08617,292.77607 172.84508,296.17436 173.22489,297.25711 C 173.77249,298.8182 174.13707,298.69984 176.37477,296.23448 C 177.7666,294.70104 180.15091,291.49262 181.67324,289.10465 C 183.19557,286.71669 184.70062,285.0224 185.01779,285.33958 C 185.94658,286.26837 178.60832,296.65214 175.28866,299.10647 C 171.66718,301.78395 167.59491,308.21428 169.18509,308.74434 C 169.78127,308.94307 168.13656,311.57719 165.53017,314.59794 L 160.79129,320.09022 L 160.79129,336.93265 C 160.79129,346.19598 160.94623,353.62119 161.13559,353.4331 C 161.32496,353.24502 161.82334,348.89607 162.24309,343.76877 L 163.00629,334.44641 L 163.14879,344.89641 C 163.3924,362.761 166.5472,353.38121 167.93667,330.66119 C 168.29944,324.72932 169.04688,319.59746 169.59766,319.25706 C 170.25018,318.85378 170.38209,320.86932 169.97627,325.04229 C 168.32948,341.97626 168.08348,347.40563 169.00649,346.44641 C 169.53573,345.89641 170.77339,339.26763 171.75685,331.71578 C 172.74032,324.16394 173.87731,318.19056 174.28351,318.4416 C 174.6897,318.69264 174.38918,322.84642 173.61568,327.67223 C 172.84218,332.49803 172.34026,337.57141 172.50031,338.94641 C 172.77027,341.26579 172.94147,341.15742 174.87003,337.44641 C 176.24926,334.79245 177.39604,329.50538 178.27789,321.73496 C 179.00891,315.29366 179.96632,310.24557 180.40548,310.51698 C 180.84463,310.78839 181.03389,311.55855 180.82606,312.22844 C 180.61822,312.89832 180.18186,316.37141 179.85636,319.94641 C 179.39793,324.98134 179.51671,326.02952 180.38334,324.59681 C 180.99868,323.57954 181.73648,318.62954 182.02288,313.59681 C 182.58515,303.71658 184.11384,297.31506 184.2279,304.36308 C 184.30928,309.39151 184.94624,308.66838 186.88387,301.34778 C 187.94332,297.34509 188.24064,293.5654 187.80801,289.59996 C 187.37036,285.58857 187.50304,283.95924 188.23072,284.40898 C 188.81403,284.76948 189.29129,285.71289 189.29129,286.50543 C 189.29129,289.58943 190.86865,287.68863 192.45817,282.68917 C 195.09861,274.38431 195.51487,271.23269 194.27684,268.91942 C 193.0018,266.53698 193.89887,264.69342 195.26086,266.89717 C 198.30566,271.82377 200.04171,236.63212 197.50602,221.38499 C 196.86013,217.50121 194.98711,209.95554 193.34375,204.61683 C 191.70039,199.27812 189.45528,189.36947 188.35462,182.59761 C 185.65552,165.99136 181.67055,154.83399 173.69043,141.53993 C 170.02788,135.43849 164.10961,125.49641 160.53871,119.44641 C 156.96781,113.39641 152.57939,105.97141 150.78668,102.94641 C 139.55431,83.993085 134.30281,66.501608 137.2048,57.708486 C 137.83486,55.799388 139.94713,52.371926 141.89875,50.091905 C 143.85036,47.811883 145.00615,45.946411 144.46716,45.946411 C 143.21521,45.946411 127.29129,61.45023 127.29129,62.669154 C 127.29129,63.171827 125.71664,65.352349 123.79207,67.514758 C 121.8675,69.677167 120.2925,72.166095 120.29207,73.045708 C 120.29164,73.925321 121.85367,77.589141 123.76324,81.18753 C 125.67282,84.785918 128.18292,90.141235 129.34125,93.088233 C 130.49959,96.035231 132.05229,99.796411 132.7917,101.44641 C 138.30721,113.75424 141.56704,122.1224 145.0626,132.94641 C 149.84988,147.77029 151.64058,155.98292 150.89958,159.71644 C 150.60158,161.21792 150.09181,165.37141 149.76676,168.94641 C 148.20724,186.09852 143.7172,198.65935 138.12918,201.50238 C 136.29334,202.4364 133.99859,204.03017 133.02974,205.04409 C 132.06089,206.058 128.46089,208.7799 125.02974,211.09274 C 110.96124,220.57594 98.461805,231.94602 90.629395,242.38496 C 88.128025,245.71876 85.259975,248.75782 84.255955,249.13844 C 83.251945,249.51906 80.095895,253.29016 77.242535,257.51866 C 74.389175,261.74716 70.004315,267.17136 67.498415,269.57244 C 64.992515,271.97351 61.246515,276.30242 59.173965,279.19222 C 55.222585,284.70171 48.291295,296.30986 48.291295,297.41791 C 48.291295,298.71523 50.502015,296.64935 52.390485,293.5873 L 54.327565,290.44641 L 53.648945,296.44641 C 53.021755,301.99164 52.490555,302.9975 46.640495,309.71724 C 40.072855,317.26126 36.242345,323.57222 36.358975,326.65657 C 36.409965,328.00522 36.705905,327.83017 37.559535,325.94641 C 40.110065,320.318 56.321465,302.35984 56.268705,305.22134 C 56.225155,307.58328 49.694985,316.9322 42.775765,324.5385 C 34.753275,333.35762 33.181215,335.58636 35.651765,334.63833 C 37.739445,333.83721 37.777325,335.29815 35.713285,337.01115 C 34.845375,337.73145 33.059125,340.44447 31.743825,343.04008 C 30.428525,345.6357 29.001125,347.91396 28.571835,348.1029 C 26.539575,348.99729 17.548885,363.3546 16.198385,367.86216 C 15.116715,371.47246 15.188745,372.17561 16.825485,373.9842 C 18.543695,375.88279 18.561875,376.21932 17.082295,378.73694 C 14.814445,382.59589 13.536785,388.21478 12.771175,397.69641 C 12.046975,406.66522 12.910885,408.09184 15.950365,402.94641 C 18.426225,398.75511 19.231485,399.20175 18.654755,404.44641 C 18.133385,409.1877 18.772395,410.0383 20.786445,407.28393 C 21.521075,406.27926 22.667345,405.87674 23.683415,406.26664 C 25.067035,406.79759 25.252185,407.76049 24.728995,411.70449 C 24.051575,416.81113 25.772845,425.38486 27.287545,424.44872 C 27.784145,424.14181 27.925465,421.65323 27.601585,418.91855 C 27.241465,415.87787 27.401165,413.94641 28.012705,413.94641 C 28.562705,413.94641 29.281365,416.21476 29.609715,418.98719 C 29.953555,421.89037 31.178795,425.34125 32.499005,427.12487 C 36.197055,432.12097 42.262805,437.94641 43.766955,437.94641 C 44.532245,437.94641 47.355915,439.31246 50.041775,440.98208 C 54.653815,443.84908 55.084145,443.93527 57.786525,442.53326 C 61.714365,440.49547 63.192475,441.77449 60.041695,444.48468 C 57.361925,446.78972 53.250045,446.83619 50.425125,444.59336 C 48.411595,442.99473 42.409255,440.88065 37.351845,439.98883 C 34.096875,439.41485 32.144745,438.30424 30.035145,435.8262 C 28.452645,433.96731 25.595175,430.65417 23.685215,428.46366 C 21.775255,426.27314 19.965995,423.34814 19.664635,421.96366 C 17.621455,412.57689 16.141315,408.8887 14.526815,409.16133 C 10.731235,409.80227 9.5683149,394.38153 12.447775,381.5925 C 13.048845,378.92284 13.618005,373.52284 13.712585,369.5925 C 13.846715,364.01835 14.475025,361.30713 16.568895,357.26718 C 18.045295,354.4186 19.730055,351.79328 20.312795,351.43312 C 20.895535,351.07296 22.525385,348.95173 23.934685,346.71926 C 25.343975,344.4868 27.561055,341.67413 28.861525,340.4689 C 30.516305,338.9353 31.864865,335.6015 33.354405,329.36198 C 34.525015,324.45842 36.564705,317.22559 37.887045,313.28904 C 39.209375,309.35249 40.291295,305.83304 40.291295,305.46805 C 40.291295,305.10306 36.803795,305.03116 32.541295,305.30827 C 25.004015,305.79828 14.291295,304.27839 14.291295,302.71902 C 14.291295,301.50299 22.093735,301.81774 22.864505,303.06487 C 23.323125,303.80693 26.418095,304.0331 32.061135,303.73691 C 38.903165,303.3778 40.835595,302.92252 41.942385,301.40889 C 44.182295,298.34562 42.954635,297.44641 36.532565,297.44641 C 27.733235,297.44641 27.595955,295.98062 36.374625,295.76011 L 43.791295,295.5738 L 35.291295,295.01011 C 30.616295,294.70007 25.666295,294.64191 24.291295,294.88087 L 21.791295,295.31532 L 24.291295,296.03119 C 26.451165,296.64966 26.281095,296.76061 23.041295,296.84673 C 20.330325,296.91879 19.291295,296.5308 19.291295,295.44641 C 19.291295,294.58424 18.334545,293.90806 17.041295,293.85622 C 15.293255,293.78615 15.509405,293.55848 18.010195,292.83569 C 19.845285,292.3053 24.789155,292.2366 29.510195,292.67588 C 43.781515,294.00378 44.523975,293.77569 49.744605,286.45963 C 52.245285,282.95525 54.291295,279.84382 54.291295,279.54535 C 54.291295,278.98182 48.562635,281.94611 41.998595,285.90621 C 38.029935,288.3005 36.108935,288.07599 38.271235,285.47058 C 39.026025,284.56111 39.117105,283.94641 38.497065,283.94641 C 37.925555,283.94641 37.306915,284.39954 37.122305,284.95337 C 36.708875,286.19364 22.364245,290.3527 21.495675,289.48412 C 21.151245,289.1397 22.201865,287.77636 23.830375,286.45448 L 26.791295,284.05107 L 21.541295,285.40823 C 18.653795,286.15466 16.291295,286.42427 16.291295,286.00736 C 16.291295,285.59045 20.003795,284.26124 24.541295,283.05356 C 35.195915,280.21778 41.898015,276.8309 41.474955,274.4962 C 41.300975,273.53606 41.975975,271.82882 42.974955,270.70235 C 44.363775,269.13628 44.438235,268.764 43.291295,269.12068 C 42.466295,269.37724 40.891295,270.99254 39.791295,272.71023 C 37.652655,276.0498 34.922735,277.48732 29.234795,278.26906 C 27.278725,278.5379 23.903725,279.56406 21.734795,280.54941 C 15.729265,283.27773 15.566015,283.26908 18.791295,280.39344 C 21.672795,277.82431 21.303705,277.70225 16.541295,279.64933 C 14.919625,280.31234 14.919625,278.48378 16.541295,277.20762 C 17.228795,276.66659 19.469815,275.96624 21.521345,275.65128 C 25.325985,275.06717 28.730395,272.89242 38.041295,265.09825 C 44.274795,259.88017 45.349965,255.45172 39.873075,257.5534 C 39.003095,257.88724 38.291295,258.78724 38.291295,259.5534 C 38.291295,262.16474 36.543205,260.95601 35.937125,257.92558 C 35.357245,255.0262 35.260125,254.97594 33.521375,256.67558 C 31.989145,258.17333 31.927075,258.61189 33.118845,259.5195 C 35.334195,261.20664 33.651115,266.554 30.111435,269.07448 C 28.204575,270.43228 26.845235,270.84526 26.437895,270.19052 C 25.592575,268.83178 21.155085,268.28173 19.474755,269.3274 C 17.379655,270.63119 16.809285,269.13651 18.632935,267.12139 C 19.547435,266.11088 19.987935,264.97638 19.611825,264.60028 C 19.235715,264.22417 20.413225,262.38408 22.228515,260.51118 L 25.529035,257.10591 L 24.263605,251.77616 C 23.567625,248.8448 22.409095,244.75891 21.689095,242.69641 C 20.147305,238.27979 21.282225,237.82646 24.192615,241.69641 L 26.260755,244.44641 L 24.279855,238.55101 C 23.190365,235.30854 21.144785,230.21589 19.734135,227.234 C 16.255735,219.88129 17.129985,218.46157 21.215515,224.82833 C 26.782215,233.50328 29.300995,240.74183 28.650895,246.19641 C 28.035105,251.36319 28.621365,251.85621 32.014195,249.02479 C 34.215565,247.18768 34.222835,247.08874 32.765555,238.80806 C 31.956215,234.20915 31.293405,229.08837 31.292655,227.42854 C 31.290715,223.14195 26.853555,217.00886 23.229905,216.28413 C 21.613665,215.96089 20.291295,215.30266 20.291295,214.82141 C 20.291295,213.31526 23.654165,213.87028 27.041295,215.93545 C 30.914015,218.2967 31.217115,217.18525 28.274485,211.41345 C 27.098215,209.10625 26.681445,207.31636 27.274485,207.11868 C 28.760185,206.62344 28.518435,204.85489 26.688665,202.83301 C 25.807225,201.85903 25.255715,200.55314 25.463085,199.93103 C 25.953355,198.4602 31.291295,206.60243 31.291295,208.8211 C 31.291295,209.75346 32.895255,214.45052 34.855655,219.25901 C 38.095965,227.20687 40.198895,238.24474 40.273525,247.69641 C 40.283295,248.93391 40.734395,249.94641 41.275955,249.94641 C 41.869775,249.94641 42.064815,247.46553 41.767315,243.69641 C 41.290585,237.65652 41.323205,237.54726 42.737545,240.44641 C 44.463515,243.98436 44.790655,242.32979 43.169535,238.26151 C 42.552575,236.7132 41.883465,233.87141 41.682625,231.94641 C 40.958655,225.00722 40.628135,223.41193 39.469015,221.26215 C 38.821265,220.06081 38.293445,218.26081 38.296065,217.26215 C 38.299685,215.886 39.148765,216.36964 41.803185,219.25983 C 43.729465,221.3572 46.010495,224.43652 46.872135,226.10276 C 49.286355,230.77134 49.594375,228.81929 47.291295,223.44641 C 46.163645,220.81572 45.477335,218.42703 45.766155,218.13821 C 46.452865,217.4515 46.662925,217.7212 49.121585,222.44641 L 51.202895,226.44641 L 51.247095,223.3514 C 51.273505,221.50173 50.501695,219.54181 49.328935,218.48048 C 48.249645,217.50373 46.864745,215.18399 46.251385,213.32549 C 45.392665,210.72356 44.579055,209.94641 42.713735,209.94641 C 41.381395,209.94641 40.291295,209.49641 40.291295,208.94641 C 40.291295,207.65003 42.898145,207.66564 45.347845,208.97668 C 48.086865,210.44256 55.549695,220.83064 54.962695,222.36033 C 54.692655,223.06406 55.592205,224.94631 56.961695,226.54312 C 58.698645,228.56838 59.265975,228.86573 58.837605,227.52634 C 58.499865,226.47029 57.790745,223.67507 57.261775,221.31472 C 56.732815,218.95438 55.173065,214.47492 53.795655,211.36037 C 50.804595,204.59705 50.611095,202.51998 53.291295,205.94641 C 55.090905,208.24708 55.251505,208.28695 55.305575,206.44641 C 55.342015,205.20567 56.122995,206.15474 57.362775,208.94641 C 60.890805,216.89065 63.334965,221.51797 62.644785,218.94641 C 62.275745,217.57141 61.918225,214.98712 61.850275,213.20355 C 61.767785,211.03799 60.475155,208.46338 57.959245,205.45355 C 54.297745,201.07322 54.158735,198.93248 57.796835,202.95254 C 60.577725,206.02539 60.756145,204.54581 58.161425,199.92913 C 56.717415,197.35987 54.585065,195.26034 52.560495,194.41442 C 48.327915,192.64594 48.133385,190.6468 52.336445,192.112 C 54.011285,192.69585 57.048785,195.16889 59.086445,197.60764 C 61.124115,200.0464 63.846235,202.73348 65.135605,203.57893 C 67.360775,205.03799 67.446295,205.01015 66.818225,203.03126 C 65.742985,199.64348 66.884015,200.59524 71.212215,206.69639 L 75.291295,212.44636 L 75.291295,208.63064 C 75.291295,206.532 74.825455,203.94451 74.256105,202.88067 C 73.680015,201.80423 73.625645,200.94641 74.133515,200.94641 C 74.635435,200.94641 76.338775,203.42034 77.918695,206.44403 C 79.498625,209.46773 81.128795,211.94273 81.541295,211.94403 C 82.596925,211.94738 82.530685,211.62781 80.305885,205.98343 C 77.592225,199.09883 79.352755,199.56995 82.223705,206.49665 C 83.488955,209.54928 84.742935,211.82809 85.010345,211.56069 C 85.277755,211.29328 84.325365,208.51629 82.893915,205.38961 C 78.014445,194.73144 80.435185,196.40912 85.861695,207.44641 C 91.563805,219.04427 92.559945,219.94693 89.345155,210.60296 C 88.274775,207.49186 87.792015,204.94641 88.272345,204.94641 C 88.752685,204.94641 90.506015,206.59672 92.168635,208.61377 C 94.416885,211.3413 95.046335,211.7257 94.624805,210.11377 C 94.293335,208.84623 94.521615,207.94641 95.174655,207.94641 C 95.788805,207.94641 96.293375,208.05891 96.295925,208.19641 C 96.298475,208.33391 97.387775,211.11549 98.716605,214.37769 L 101.13265,220.30897 L 101.83375,216.57177 C 102.41526,213.47203 102.14384,212.41836 100.24246,210.39443 C 97.222635,207.17997 98.526885,206.06365 102.53564,208.43168 L 105.71845,210.31181 L 101.62462,205.37911 C 97.401865,200.29106 94.743635,195.94641 95.853345,195.94641 C 96.201175,195.94641 98.524485,198.21394 101.01623,200.98537 C 103.50799,203.75681 105.74703,205.824 105.99189,205.57915 C 106.23674,205.33429 105.99055,203.51676 105.44479,201.54018 C 104.89903,199.56361 104.81164,197.94641 105.25058,197.94641 C 106.12974,197.94641 107.38649,200.85838 109.78216,208.44641 C 112.21278,216.14512 112.54904,216.46804 115.9155,214.33646 C 121.57051,210.75582 133.85128,201.09649 137.18436,197.60763 C 143.64596,190.84403 148.98196,162.52138 146.38628,148.76534 C 144.59718,139.28391 139.58354,123.70588 134.61342,112.18556 C 132.17871,106.54209 130.43801,101.51802 130.74521,101.02097 C 131.05241,100.52391 130.89861,99.966301 130.40344,99.781821 C 129.90828,99.597341 126.73037,93.146411 123.34144,85.446411 C 119.95251,77.746411 116.27676,69.871411 115.17311,67.946411 C 109.34292,57.7773 106.91894,48.564906 107.0533,37.086895 C 107.15221,28.637128 110.82741,23.028451 119.80272,17.630185 C 129.06994,12.056346 134.74812,11.678285 145.39338,15.926322 L 153.54832,19.180585 L 173.1698,18.397864 C 183.96162,17.967368 194.14129,17.723052 195.79129,17.85494 C 200.88426,18.262033 209.29129,21.023915 209.29129,22.289966 C 209.29129,23.489258 205.46712,25.729981 199.79129,27.856373 C 196.07821,29.247442 174.95297,34.692284 166.63482,36.402159 C 158.97816,37.976059 155.16568,40.300481 148.11253,47.694972 C 141.29453,54.842934 139.28819,58.589299 139.30189,64.146751 C 139.31729,70.396583 146.45546,89.906046 152.28058,99.619081 C 155.03647,104.21436 157.29129,108.19588 157.29129,108.46689 C 157.29129,108.73791 160.63007,114.05879 164.71079,120.29107 C 168.79152,126.52335 173.20145,133.83288 174.51063,136.53445 C 175.81981,139.23603 178.53715,144.3809 180.54917,147.9675 C 182.56119,151.5541 185.31431,158.62476 186.6672,163.68008 C 188.02009,168.7354 189.36769,173.26102 189.66187,173.737 C 189.95605,174.21299 190.88181,179.18418 191.71912,184.78408 C 193.25017,195.02369 196.95214,205.21855 199.49341,206.19373 C 201.15513,206.83139 201.1174,204.43239 199.35106,197.14243 C 198.64423,194.22525 198.34162,191.56275 198.6786,191.22577 C 199.01558,190.88879 199.29129,191.14298 199.29129,191.79064 C 199.29129,194.40853 203.5049,201.80167 204.72917,201.33187 C 205.46914,201.04792 206.5367,202.12468 207.26969,203.89426 C 207.96502,205.57294 208.98109,206.94641 209.52762,206.94641 C 210.07415,206.94641 209.74677,205.76431 208.8001,204.31951 C 207.85344,202.87472 206.70167,200.37733 206.24062,198.76975 C 205.5039,196.20095 205.62612,195.9179 207.24951,196.43315 C 208.98194,196.983 208.95101,196.54734 206.75161,189.41879 C 205.31802,184.77233 204.84995,181.96596 205.54734,182.19843 C 206.9999,182.68261 211.87115,194.50014 212.74138,199.65098 C 213.10537,201.80543 214.1655,204.71914 215.09723,206.12589 C 216.9484,208.92084 224.05097,216.94641 224.67331,216.94641 C 224.88629,216.94641 223.50451,214.01603 221.60268,210.43446 C 217.99481,203.64 215.94599,197.94472 217.1111,197.94878 C 217.4852,197.95009 219.57707,200.87509 221.7597,204.44878 C 226.28237,211.85392 229.0305,213.32383 226.89665,207.19641 C 226.17839,205.13391 225.76944,202.93316 225.98786,202.30585 C 226.20629,201.67854 225.23891,200.26377 223.83814,199.16193 C 222.43737,198.06008 221.29129,196.57734 221.29129,195.86694 C 221.29129,195.15655 220.27879,193.46175 219.04129,192.10073 C 217.21656,190.09387 217.12643,189.74667 218.56443,190.26378 C 220.07084,190.80548 220.17837,190.60393 219.27925,188.9239 C 216.44324,183.62478 223.65058,189.55561 227.37996,195.58989 C 229.71176,199.36282 230.74222,199.94251 229.79129,196.94641 C 229.44216,195.84641 229.58806,194.94641 230.11549,194.94641 C 230.64293,194.94641 231.38162,196.18391 231.75701,197.69641 C 232.45283,200.49993 235.96165,204.94641 237.47815,204.94641 C 237.93918,204.94641 237.26536,203.25891 235.98078,201.19641 C 234.6962,199.13391 233.35467,196.65891 232.99962,195.69641 C 231.85729,192.59976 233.77545,193.83308 235.72136,197.44641 C 236.75804,199.37141 237.96241,200.94641 238.39773,200.94641 C 239.40229,200.94641 236.55265,193.96558 234.6917,191.86767 C 233.13943,190.11773 232.80024,186.94641 234.16535,186.94641 C 234.64609,186.94641 237.22209,189.19641 239.88979,191.94641 C 246.2452,198.49787 248.11758,198.51052 244.80814,191.97965 C 243.42387,189.24794 242.29129,186.68551 242.29129,186.28537 C 242.29129,184.7734 247.03392,192.06521 248.71812,196.16664 C 251.61664,203.22524 253.56254,206.94641 254.35514,206.94641 C 254.76704,206.94641 254.8687,206.04641 254.58104,204.94641 C 253.97731,202.63773 255.79091,202.20006 256.65292,204.44641 C 256.9695,205.27141 257.68151,205.94641 258.23515,205.94641 C 258.90251,205.94641 258.91309,205.08186 258.26654,203.38131 C 257.07622,200.25054 257.06488,199.94641 258.13848,199.94641 C 258.60443,199.94641 259.50545,200.95891 260.14075,202.19641 C 261.16354,204.18873 261.22624,204.04557 260.68821,200.94641 C 260.28941,198.64928 260.41822,197.79009 261.06302,198.44641 C 262.31718,199.723 265.01186,208.27846 265.75533,213.34425 C 266.06997,215.48806 267.50208,219.40037 268.93781,222.03828 C 270.58662,225.06769 271.28935,227.49974 270.84546,228.64044 C 270.19878,230.3023 269.98904,230.25802 268.217,228.08563 C 267.15786,226.78719 266.29129,226.25125 266.29129,226.89464 C 266.29129,229.49509 264.51157,226.73948 263.91709,223.21857 C 263.56679,221.14388 262.3408,218.32141 261.19265,216.94641 C 259.49099,214.90852 259.234,214.8161 259.80235,216.44641 C 261.4845,221.27159 262.22418,224.34686 261.80373,224.7673 C 261.55439,225.01664 262.23708,226.46592 263.32084,227.9879 C 265.20118,230.62861 265.96495,233.94641 264.6925,233.94641 C 264.36317,233.94641 262.77493,232.53465 261.16308,230.80916 C 259.55124,229.08368 257.99929,227.90507 257.71432,228.19005 C 257.42934,228.47502 258.43016,231.22421 259.93835,234.29935 C 262.75304,240.03839 262.63637,242.30192 259.65283,239.83891 C 258.34286,238.75748 257.87206,238.72565 257.54534,239.69641 C 256.85623,241.74385 255.30867,241.12232 254.26576,238.37927 C 253.51963,236.41678 252.81885,235.96158 251.29051,236.44666 C 249.74007,236.93875 249.29129,236.62585 249.29129,235.05275 C 249.29129,233.93711 248.36386,232.16029 247.23034,231.10425 C 246.06569,230.01922 244.52366,226.41621 243.68462,222.81958 C 242.868,219.31905 241.74212,216.00305 241.18267,215.4507 C 240.52357,214.79997 240.53781,215.4326 241.22312,217.24767 C 242.71686,221.20396 243.3283,228.8055 242.20846,229.4976 C 241.6911,229.81735 240.99184,228.69914 240.65455,227.01269 C 239.87566,223.11826 238.85268,223.07176 238.58389,226.91857 C 238.46982,228.55107 237.62136,231.03922 236.69843,232.44779 C 235.7755,233.85636 235.30243,235.29088 235.64716,235.63561 C 236.80189,236.79034 234.24105,238.74603 232.25452,238.22654 C 230.96483,237.88928 230.29129,238.2146 230.29129,239.17479 C 230.29129,241.62016 226.95355,243.93235 224.39093,243.26221 C 222.28923,242.71261 222.17196,242.85492 223.1778,244.73436 C 224.9866,248.11412 224.56645,249.23229 221.75305,248.52617 C 219.22759,247.89232 219.21816,247.91445 219.88188,252.91776 C 220.37593,256.64208 220.223,257.94641 219.29231,257.94641 C 217.73342,257.94641 218.62359,264.53911 220.81932,269.25559 C 222.29072,272.41622 222.30052,272.38963 221.85487,266.44641 C 221.32113,259.32834 222.8286,260.97774 223.84254,268.62123 C 224.65037,274.71095 223.03975,276.56442 220.17631,272.84023 C 218.71673,270.9419 218.33116,270.79642 218.31353,272.13739 C 218.3013,273.06743 218.78933,274.13618 219.39805,274.51239 C 220.17015,274.98958 220.09708,275.4484 219.15641,276.02977 C 218.08253,276.69346 218.06079,277.11591 219.04965,278.10477 C 219.73255,278.78767 220.29129,279.94056 220.29129,280.66673 C 220.29129,281.6423 219.25556,281.45867 216.32473,279.96347 C 212.50805,278.01634 209.05841,273.94641 211.22472,273.94641 C 211.77681,273.94641 211.94117,273.19759 211.58997,272.28237 C 211.15409,271.1465 211.33118,270.85303 212.14787,271.35777 C 212.80592,271.76447 213.27908,272.62579 213.19933,273.27182 C 212.88326,275.83208 213.37657,276.92168 215.3235,277.96365 C 217.18715,278.96104 217.30636,278.81881 216.76075,276.24883 C 216.43353,274.7075 215.96046,272.43391 215.70949,271.19641 C 215.45146,269.92408 214.50105,268.93259 213.52224,268.91461 C 211.91653,268.8851 211.91162,268.79128 213.45439,267.61791 C 214.97414,266.46204 214.99114,265.80614 213.65169,260.00822 C 211.6776,251.46321 213.26137,247.02651 215.38747,255.14566 C 216.18942,258.20813 216.22349,258.13571 215.85949,254.14258 C 215.58306,251.11011 214.69185,249.12021 212.84256,247.40634 C 210.64092,245.36593 210.12189,245.22429 209.62184,246.52739 C 209.29398,247.38179 209.53548,248.5906 210.15851,249.21363 C 211.83045,250.88557 211.57033,254.94641 209.79129,254.94641 C 208.96629,254.94641 208.29129,255.81972 208.29129,256.88711 C 208.29129,258.68418 208.08778,258.72199 205.54129,257.39801 C 202.86053,256.00421 202.77519,256.04539 202.15196,259.03371 C 201.60636,261.6498 202.08099,262.71108 205.3895,266.27281 C 207.52177,268.56829 209.25507,270.89641 209.24128,271.44641 C 209.22748,271.99641 207.67821,270.6488 205.79844,268.45172 C 203.13653,265.34046 202.11478,264.72292 201.17837,265.65933 C 199.86022,266.97748 199.7324,266.75544 206.62424,275.1196 C 209.45452,278.55451 210.30017,280.34308 209.81567,281.8696 C 209.02128,284.3725 207.60673,284.45655 202.26286,282.31836 C 199.49787,281.21203 198.29847,280.17054 198.52009,279.06836 C 198.87271,277.31464 202.38032,277.03716 205.78374,278.49374 C 207.30921,279.14661 206.98842,278.35182 204.41505,275.10267 C 202.56642,272.76858 200.60049,271.01001 200.04631,271.19474 C 198.22073,271.80326 190.76971,293.82434 192.01018,294.94506 C 192.31539,295.2208 192.76599,294.88391 193.01153,294.19641 C 193.31401,293.34947 195.76885,292.95784 200.62462,292.98185 C 207.28811,293.01479 207.61576,293.11505 205.29129,294.40983 C 202.85702,295.76577 202.92275,295.81268 207.79129,296.19415 C 210.54129,296.40962 207.96962,296.66703 202.07647,296.76616 C 190.0026,296.96927 190.01084,296.96411 188.7916,305.09535 C 188.11139,309.63173 188.16348,309.75594 190.9429,310.22604 C 192.50952,310.491 199.53267,310.64898 206.5499,310.5771 C 216.38629,310.47634 219.19921,310.73271 218.83129,311.69641 C 218.48214,312.61094 219.97173,312.94641 224.38169,312.94641 C 227.80297,312.94641 230.16307,313.34485 229.83983,313.86787 C 229.06773,315.11716 211.24677,314.49101 210.43607,313.18611 C 210.06224,312.58439 205.17953,312.09553 198.81669,312.02275 C 185.75994,311.8734 185.24549,313.69818 198.21641,314.15202 C 202.84406,314.31393 206.7818,314.90473 206.96696,315.4649 C 207.19364,316.15068 204.75142,316.18109 199.49075,315.55798 C 190.31673,314.47134 186.29129,315.17293 186.29129,317.85847 C 186.29129,320.10379 188.05577,320.88848 193.62308,321.11901 C 196.82075,321.25142 196.30102,321.42605 191.39096,321.86901 L 184.99062,322.44641 L 181.82679,329.94641 C 176.25889,343.14534 172.45853,350.32007 168.31977,355.44641 C 164.07722,360.7013 161.78434,365.15678 151.85187,387.44641 C 150.38136,390.74641 148.16795,394.57141 146.93318,395.94641 C 140.76763,402.81217 131.91757,436.30112 130.6807,457.44641 C 129.80624,472.396 129.83837,487.82682 130.74585,488.7343 C 131.08778,489.07623 137.76288,489.70029 145.57941,490.1211 C 153.39595,490.54192 168.28103,491.33801 178.65737,491.89021 C 189.03372,492.4424 198.04769,493.32928 198.68843,493.86105 C 200.10767,495.0389 203.73946,495.74257 212.29129,496.49662 C 221.08411,497.27192 223.29129,497.78926 223.29129,499.07487 C 223.29129,499.76406 221.9116,499.96676 219.54129,499.6258 C 217.47879,499.32912 211.29129,498.55697 205.79129,497.9099 C 200.29129,497.26284 195.31896,496.35108 194.74168,495.88378 C 193.35172,494.75863 188.10878,494.12671 174.79129,493.47919 C 168.74129,493.18502 156.64265,492.50604 147.90542,491.97033 C 139.16819,491.43462 131.63069,491.23665 131.15542,491.53038 C 130.1845,492.13045 130.19203,499.87646 131.16798,504.43804 C 131.66432,506.75795 132.46702,507.54381 134.74296,507.93804 C 138.45097,508.58032 138.53267,510.06413 134.95446,511.77912 C 132.96657,512.73189 132.26187,513.72969 132.48258,515.27912 C 132.77501,517.33215 133.51618,517.49251 146.54129,518.32081 C 154.10379,518.80174 160.29129,519.58924 160.29129,520.07081 C 160.29129,520.55239 159.84129,520.94641 159.29129,520.94641 C 158.74129,520.94641 158.29129,521.39641 158.29129,521.94641 C 158.29129,522.52328 161.57055,522.96498 166.04129,522.9903 C 170.30379,523.01444 175.59129,523.6929 177.79129,524.49798 C 179.99129,525.30306 186.06629,526.28134 191.29129,526.67194 C 200.30356,527.34566 200.53459,527.41834 195.79129,528.08751 C 189.82882,528.92869 183.13635,528.19797 178.3079,526.17859 C 176.37377,525.36968 170.17879,524.4719 164.54129,524.18352 C 157.08743,523.80222 154.29129,523.30588 154.29129,522.36407 C 154.29129,520.7022 147.71401,519.7232 139.29129,520.1314 L 132.79129,520.44641 L 132.79129,527.44641 L 132.79129,534.44641 L 136.19707,534.28202 C 138.07025,534.1916 140.5798,533.59478 141.77385,532.95574 C 142.96791,532.3167 145.48531,531.96264 147.36807,532.16894 C 150.20586,532.47987 150.44925,532.67642 148.79129,533.31821 C 147.69129,533.74402 146.0099,534.50956 145.05486,535.01941 C 143.15965,536.03117 121.81288,536.04373 113.79129,535.0378 z M 125.79129,515.49584 C 125.79129,513.66633 125.00002,513.54221 113.04129,513.49584 C 106.0288,513.46865 100.2913,513.78391 100.29129,514.19641 C 100.29129,514.60891 100.17879,515.28391 100.04129,515.69641 C 99.778595,516.4845 113.60347,517.67885 121.29129,517.53223 C 125.05728,517.46041 125.79129,517.12825 125.79129,515.49584 z M 121.57897,511.29845 C 127.3436,510.34579 125.47205,508.5649 117.53082,507.44641 C 107.52131,506.03661 107.24227,504.72873 117.12688,505.55308 L 125.37718,506.24113 L 124.75237,499.34377 C 124.40873,495.55022 123.95352,491.88391 123.74081,491.19641 C 123.4706,490.32307 120.75818,489.94641 114.73934,489.94641 C 108.55687,489.94641 106.23585,489.61273 106.51858,488.76454 C 106.88894,487.65346 118.68576,487.45414 120.42584,488.52956 C 120.80257,488.7624 121.73614,488.71294 122.50044,488.41965 C 123.97183,487.85502 124.00177,488.37439 121.32005,467.94641 C 119.78302,456.23813 120.38433,449.68042 123.57689,443.33372 C 125.95565,438.6048 127.4476,434.06908 130.77635,421.44641 C 132.24846,415.86416 135.58165,386.90344 134.83765,386.15944 C 134.65403,385.97581 132.56974,388.58276 130.20589,391.95265 C 127.42362,395.91905 124.69826,398.58518 122.47752,399.51307 C 118.22338,401.29056 117.94507,401.29103 118.62486,399.51952 C 118.92601,398.73474 118.52416,397.55464 117.73185,396.89708 C 116.51251,395.88512 116.29129,396.42356 116.29129,400.40341 C 116.29129,403.12821 115.18347,407.91019 113.65669,411.77585 C 110.57811,419.57052 109.44891,421.22087 107.6631,420.53559 C 106.94383,420.25958 106.08937,420.4641 105.7643,420.99008 C 105.43922,421.51606 104.29981,421.94641 103.23227,421.94641 C 102.16473,421.94641 101.29129,422.62141 101.29129,423.44641 C 101.29129,424.27141 100.41785,424.94641 99.350315,424.94641 C 98.282775,424.94641 97.154245,425.35915 96.842475,425.86361 C 95.900505,427.38773 96.017795,440.29531 97.174885,462.44641 C 97.778215,473.99641 98.528385,488.83303 98.841935,495.41668 C 99.155485,502.00033 99.830955,507.89173 100.34298,508.50869 C 101.64445,510.07686 100.46305,510.94641 97.031005,510.94641 C 95.039025,510.94641 93.951665,510.36367 93.626985,509.12212 C 93.143465,507.27312 91.683135,507.19717 69.841295,507.885 C 68.486305,507.92767 68.209905,508.26502 68.935455,508.99058 C 70.997985,511.05311 112.14753,512.85709 121.57897,511.29845 z M 76.998625,439.5895 C 80.028785,434.20003 80.429395,431.94641 78.357275,431.94641 C 77.908485,431.94641 77.257365,433.36602 76.910355,435.1011 C 76.084345,439.23115 74.570265,440.94641 71.750635,440.94641 C 66.470235,440.94641 64.566085,443.30826 68.541295,444.92719 C 72.316255,446.46457 73.582535,445.66538 76.998625,439.5895 z M 32.869215,432.76641 C 30.901355,430.46741 29.291295,428.21741 29.291295,427.76641 C 29.291295,427.31541 28.841295,426.94641 28.291295,426.94641 C 26.418305,426.94641 27.285575,428.93432 30.907655,432.94353 C 35.714845,438.26451 37.441905,438.10857 32.869215,432.76641 z M 92.291295,425.44641 C 92.291295,424.62141 91.630415,423.94641 90.822675,423.94641 C 89.928085,423.94641 89.579045,424.5327 89.929665,425.44641 C 90.674575,427.38762 92.291295,427.38762 92.291295,425.44641 z M 23.387755,417.44641 C 22.800075,409.64375 22.754475,409.5302 21.539175,412.84298 C 20.595385,415.41566 20.560065,417.23491 21.393545,420.34298 C 23.617565,428.63637 24.170115,427.83379 23.387755,417.44641 z M 103.91384,417.48765 C 104.76313,415.27444 102.55239,409.59056 100.2936,408.17993 C 98.424495,407.01264 98.290385,407.17948 98.277645,410.68794 C 98.270135,412.7551 97.992645,415.45891 97.661005,416.69641 C 97.129175,418.68095 97.429445,418.94641 100.20604,418.94641 C 102.04223,418.94641 103.58733,418.33852 103.91384,417.48765 z M 109.18251,415.69641 C 111.05734,410.6848 111.38544,408.94641 110.4565,408.94641 C 109.45985,408.94641 107.29129,414.18706 107.29129,416.59563 C 107.29129,418.65932 108.24346,418.20659 109.18251,415.69641 z M 108.29129,406.75528 C 108.29129,405.27991 105.51601,405.91842 104.89503,407.53665 C 103.90682,410.1119 105.41905,411.49217 106.94393,409.40677 C 107.68498,408.39333 108.29129,407.20016 108.29129,406.75528 z M 140.40894,393.70803 C 141.48164,393.88324 142.55248,392.55101 143.65099,389.6746 C 144.55316,387.31232 145.29129,385.05709 145.29129,384.66298 C 145.29129,383.06431 143.54609,384.10179 142.29129,386.44641 C 141.55541,387.82141 140.56782,388.94641 140.09663,388.94641 C 139.17224,388.94641 141.51433,383.99597 144.35459,379.94641 C 146.59061,376.75835 149.17822,364.0036 148.95955,357.24776 C 148.86701,354.3885 148.50918,352.3635 148.16437,352.74776 C 147.81957,353.13202 146.38506,359.27336 144.97659,366.39518 C 142.9091,376.84926 141.98505,379.66881 140.18028,381.03015 C 138.20379,382.52101 137.91417,383.74329 137.6801,391.58138 C 137.52225,396.86733 137.69633,399.03335 138.11127,396.94641 C 138.59542,394.51141 139.29457,393.52602 140.40894,393.70803 z M 142.29129,398.44641 C 143.31086,397.2179 143.24253,396.94641 141.91373,396.94641 C 141.02139,396.94641 140.29129,397.62141 140.29129,398.44641 C 140.29129,400.33514 140.72378,400.33514 142.29129,398.44641 z M 148.71687,388.0942 C 156.47613,372.68635 159.2391,360.16916 159.27148,340.2782 C 159.29525,325.67626 158.79123,323.59518 156.24503,327.78208 C 154.75079,330.23916 154.62256,331.44799 155.47019,335.08642 C 157.43699,343.52885 154.05794,375.94641 151.21114,375.94641 C 150.07811,375.94641 150.0373,376.35463 151.72679,370.78777 C 153.28026,365.66908 155.52924,344.62855 154.86303,341.44641 C 154.63274,340.34641 154.37817,337.87141 154.29734,335.94641 L 154.15037,332.44641 L 152.6976,336.4147 C 151.89858,338.59725 151.55173,341.07225 151.92682,341.9147 C 152.30191,342.75714 152.48817,343.89641 152.34072,344.44641 C 152.19327,344.99641 151.4525,351.27247 150.69456,358.39321 C 149.93663,365.51394 148.82018,372.84386 148.21357,374.68191 C 147.37895,377.21083 147.40748,378.38148 148.33085,379.49407 C 149.31534,380.68032 148.94645,382.3165 146.42117,387.96417 C 143.00303,395.6087 142.78662,396.37635 144.31619,395.43102 C 144.87988,395.08264 146.86019,391.78107 148.71687,388.0942 z M 132.75286,379.44641 C 141.40505,367.73406 143.98746,362.31939 144.55682,354.69641 C 144.83411,350.98391 144.93674,347.94641 144.78488,347.94641 C 144.48876,347.94641 133.07169,362.08312 124.65841,372.86715 C 121.83533,376.48574 118.17412,380.71896 116.5224,382.27429 C 114.53609,384.14469 113.68945,385.75298 114.02191,387.02429 C 114.7384,389.76416 115.41495,389.43524 118.74925,384.72597 C 123.44099,378.0995 140.56041,357.88219 141.05823,358.38002 C 141.6915,359.01329 137.69092,364.6188 132.79709,369.95529 C 130.52291,372.43518 126.10731,377.91893 122.98464,382.1414 C 119.86197,386.36388 116.85352,390.09894 116.29918,390.44154 C 115.01559,391.23483 114.97939,393.94641 116.25238,393.94641 C 117.21427,393.94641 136.99715,368.23305 139.19542,364.12555 C 139.83685,362.92702 140.83253,361.94641 141.40803,361.94641 C 142.88888,361.94641 139.35961,367.36916 128.61764,381.59896 C 123.48815,388.39395 119.30975,394.28939 119.3323,394.69995 C 119.39639,395.8664 127.04465,387.17354 132.75286,379.44641 z M 130.51352,387.4576 C 131.25379,386.02188 130.65502,386.28681 128.4209,388.3835 C 126.69961,389.9989 125.29129,391.75615 125.29129,392.28849 C 125.29129,393.59903 129.22158,389.96327 130.51352,387.4576 z M 134.67285,381.39447 C 135.01434,380.50455 134.8467,380.10315 134.27984,380.45349 C 133.73614,380.78951 133.29129,381.48789 133.29129,382.00543 C 133.29129,383.44386 134.00806,383.12689 134.67285,381.39447 z M 142.12575,372.70046 C 143.36877,367.80334 142.43425,368.00397 139.04129,373.36266 C 135.67518,378.67893 135.64726,379.06217 138.73208,377.60637 C 140.312,376.86077 141.50896,375.13044 142.12575,372.70046 z M 160.89546,358.21724 C 160.56316,357.88495 160.32682,358.47558 160.37024,359.52974 C 160.41822,360.69469 160.65518,360.93164 160.9744,360.13391 C 161.26327,359.41203 161.22775,358.54953 160.89546,358.21724 z M 115.07472,345.44641 C 116.55759,344.07141 117.2978,342.94641 116.71963,342.94641 C 115.67186,342.94641 111.29129,346.60926 111.29129,347.48537 C 111.29129,348.48589 112.49827,347.83543 115.07472,345.44641 z M 158.29129,318.38739 C 158.29129,318.14485 157.84129,317.94641 157.29129,317.94641 C 156.74129,317.94641 156.29129,318.42297 156.29129,319.00543 C 156.29129,319.58789 156.74129,319.78633 157.29129,319.44641 C 157.84129,319.10649 158.29129,318.62993 158.29129,318.38739 z M 51.253165,299.98418 C 51.290135,297.5965 51.200015,297.62678 48.276475,300.98418 C 45.472845,304.20389 41.291295,311.08344 41.291295,312.47632 C 41.291295,312.8116 43.524135,310.69202 46.253165,307.76616 C 49.349765,304.44622 51.229375,301.52081 51.253165,299.98418 z M 30.020065,285.34185 C 29.320165,284.64195 26.291295,286.06082 26.291295,287.08858 C 26.291295,287.59941 27.229105,287.51487 28.376935,286.90057 C 29.524045,286.28666 30.263445,285.58524 30.020065,285.34185 z M 46.791295,279.4929 C 49.137755,279.45654 50.595865,278.43367 53.484635,274.7975 C 55.515975,272.2406 59.790975,268.02834 62.984635,265.43692 C 69.629425,260.04516 70.348935,258.94641 67.234865,258.94641 C 66.012165,258.94641 64.413975,258.15891 63.683335,257.19641 C 62.485675,255.61869 62.351765,255.74666 62.323095,258.49633 C 62.283925,262.25244 53.998075,274.15486 51.965425,273.37486 C 51.226425,273.09128 48.184925,274.49587 45.206535,276.49617 C 38.589455,280.94026 38.100645,281.42354 41.291295,280.36712 C 42.666295,279.91187 45.141295,279.51846 46.791295,279.4929 z M 57.462545,258.29142 C 59.480485,256.46521 59.879225,253.4278 58.234455,252.41128 C 56.205255,251.15717 52.332315,252.93478 51.712375,255.4048 C 50.589125,259.8802 53.880955,261.53272 57.462545,258.29142 z M 33.291295,251.37604 C 33.291295,251.10104 32.391295,251.35771 31.291295,251.94641 C 30.191295,252.53511 29.291295,253.24178 29.291295,253.51678 C 29.291295,253.79178 30.191295,253.53511 31.291295,252.94641 C 32.391295,252.35771 33.291295,251.65104 33.291295,251.37604 z M 70.478795,251.2633 C 69.756915,250.97443 68.894415,251.00995 68.562125,251.34224 C 68.229835,251.67453 68.820455,251.91088 69.874625,251.86746 C 71.039565,251.81948 71.276525,251.58252 70.478795,251.2633 z M 77.291295,250.94641 C 77.291295,250.39641 76.841295,249.94641 76.291295,249.94641 C 75.741295,249.94641 75.291295,250.39641 75.291295,250.94641 C 75.291295,251.49641 75.741295,251.94641 76.291295,251.94641 C 76.841295,251.94641 77.291295,251.49641 77.291295,250.94641 z M 55.041755,248.19641 C 55.285875,247.46323 54.596595,246.94641 53.374625,246.94641 C 52.146285,246.94641 51.291295,247.5921 51.291295,248.51973 C 51.291295,250.35761 54.411735,250.0886 55.041755,248.19641 z M 77.262335,243.98547 C 78.071405,243.4738 78.473305,242.7951 78.155455,242.47724 C 77.367705,241.68949 74.291295,242.94433 74.291295,244.0534 C 74.291295,245.19318 75.392465,245.16801 77.262335,243.98547 z M 53.291295,242.31444 C 53.291295,240.63296 49.328895,233.57547 48.724295,234.18008 C 48.537915,234.36645 49.148205,236.64012 50.080475,239.23267 C 51.773495,243.94077 53.291295,245.39756 53.291295,242.31444 z M 57.057655,237.33299 C 56.402745,235.89561 55.694845,235.23574 55.484555,235.86661 C 55.274265,236.49749 55.649855,237.67352 56.319195,238.48003 C 58.132975,240.6655 58.392425,240.26249 57.057655,237.33299 z M 224.29129,234.94641 C 223.16893,232.74641 221.56243,230.94641 220.72128,230.94641 C 219.07796,230.94641 219.35686,231.65751 222.79129,236.2242 C 225.77957,240.19766 226.60957,239.49061 224.29129,234.94641 z M 213.29129,232.06885 C 213.29129,231.5862 212.61629,230.6311 211.79129,229.94641 C 210.57478,228.9368 210.29129,228.97666 210.29129,230.1573 C 210.29129,230.95798 210.59129,231.91308 210.95796,232.27974 C 211.90764,233.22943 213.29129,233.10437 213.29129,232.06885 z M 80.791295,226.94641 C 79.999355,225.66503 79.291295,225.66503 79.291295,226.94641 C 79.291295,227.49641 79.767845,227.94641 80.350305,227.94641 C 80.932765,227.94641 81.131205,227.49641 80.791295,226.94641 z M 231.85487,220.51714 C 229.76718,213.33571 228.29129,212.53051 228.29129,218.57294 C 228.29129,222.10444 228.86149,223.92446 230.52147,225.69142 C 233.42584,228.78298 233.81679,227.26589 231.85487,220.51714 z M 222.10934,223.44641 C 220.93446,220.86783 219.29129,220.07469 219.29129,222.08617 C 219.29129,222.99304 221.99819,225.77245 223.01985,225.91461 C 223.14556,225.9321 222.73583,224.82141 222.10934,223.44641 z M 215.40512,215.95753 C 214.19867,210.58799 211.94002,207.87832 212.92126,212.97766 C 213.81157,217.60449 215.22816,221.34287 215.85396,220.71707 C 216.13265,220.43838 215.93067,218.29659 215.40512,215.95753 z M 253.64012,215.06642 C 253.55697,212.38123 252.88197,209.11823 252.14012,207.81533 L 250.79129,205.44641 L 250.48331,208.62424 C 250.146,212.10477 251.94401,219.94576 253.07983,219.94751 C 253.47113,219.94811 253.72326,217.75162 253.64012,215.06642 z M 234.23789,213.59019 C 233.27504,212.70274 233.14197,212.85693 233.64411,214.2782 C 234.00006,215.28568 234.34349,216.63568 234.40729,217.2782 C 234.47109,217.92071 234.73829,217.61111 235.00107,216.59019 C 235.26385,215.56927 234.92042,214.21927 234.23789,213.59019 z M 70.291295,213.50217 C 70.291295,211.55463 65.647925,206.26037 64.736915,207.16919 C 64.084035,207.82051 68.761745,214.94641 69.842185,214.94641 C 70.089195,214.94641 70.291295,214.2965 70.291295,213.50217 z M 262.89546,209.21724 C 262.56317,208.88495 262.32682,209.47558 262.37024,210.52974 C 262.41822,211.69469 262.65518,211.93164 262.9744,211.13391 C 263.26327,210.41203 263.22775,209.54954 262.89546,209.21724 z M 229.63637,206.40328 C 229.31068,205.55456 228.82974,205.07462 228.56762,205.33675 C 228.30549,205.59888 228.38764,206.29329 228.75017,206.87988 C 229.73622,208.47534 230.31255,208.16539 229.63637,206.40328 z M 244.47462,203.72974 C 243.75706,203.01218 243.29129,202.95314 243.29129,203.57974 C 243.29129,204.91452 244.4739,206.09713 245.14129,205.42974 C 245.42546,205.14558 245.12546,204.38058 244.47462,203.72974 z M 247.29129,201.94641 C 245.9209,199.38581 245.33193,199.38581 246.00154,201.94641 C 246.2892,203.04641 246.9379,203.94641 247.44311,203.94641 C 247.95057,203.94641 247.88263,203.05133 247.29129,201.94641 z M 119.83297,63.196411 C 119.27489,59.092917 119.53411,57.97793 121.73746,55.004396 C 123.64486,52.430265 123.97319,51.364981 123.03962,50.779498 C 119.3853,48.487713 131.98257,38.498084 139.4573,37.76029 C 141.20628,37.587656 142.79607,36.961452 142.99017,36.368725 C 143.63363,34.40378 138.34078,32.87096 133.24603,33.546803 C 128.65472,34.155861 128.35627,34.053501 127.75657,31.664092 C 127.094,29.024192 124.22351,27.985389 116.13895,27.459784 C 113.16399,27.266372 112.2904,27.652942 111.42873,29.544109 C 108.02677,37.010592 110.32721,54.529705 115.85362,63.242126 C 117.46934,65.789319 119.17102,67.889817 119.63513,67.909899 C 120.09924,67.92998 120.18827,65.808911 119.83297,63.196411 z M 152.26233,37.985471 C 153.0714,37.473798 153.48855,36.810339 153.18933,36.511116 C 152.89011,36.211894 151.77814,36.623115 150.71829,37.42494 C 148.60992,39.020023 149.89105,39.485113 152.26233,37.985471 z M 162.97371,30.841623 C 179.66755,26.455715 181.13594,26.12439 181.64109,26.629544 C 181.88855,26.877005 182.38536,26.603221 182.74511,26.021135 C 183.1924,25.297401 181.08998,25.117308 176.09524,25.451508 C 172.07807,25.7203 165.83545,26.131139 162.22276,26.364486 C 158.61007,26.597832 155.01007,26.381116 154.22276,25.882894 C 153.43545,25.384673 153.24129,24.945883 153.79129,24.907805 C 154.95545,24.827209 166.60224,23.419408 177.09843,22.090563 C 181.11736,21.581756 184.71736,20.835243 185.09843,20.431644 C 185.71243,19.781346 181.51549,19.93656 156.60927,21.48525 C 150.19827,21.883891 142.18103,25.142197 144.33523,26.473569 C 144.9733,26.867917 146.13048,28.710631 146.90674,30.568488 C 147.68301,32.426346 148.95668,33.946411 149.73713,33.946411 C 150.51758,33.946411 156.47404,32.549257 162.97371,30.841623 z M 169.79129,32.886316 C 175.42766,31.408261 176.63489,30.956678 176.17617,30.497958 C 175.68192,30.003712 164.31078,32.593586 163.525,33.379369 C 162.64707,34.257293 165.38466,34.041891 169.79129,32.886316 z M 215.02226,527.29047 C 215.69929,527.01655 217.04929,526.99988 218.02226,527.25342 C 218.99523,527.50696 218.44129,527.73108 216.79129,527.75146 C 215.14129,527.77184 214.34523,527.5644 215.02226,527.29047 z M 221.95747,488.31742 C 221.86607,488.24648 210.54129,487.89228 196.79129,487.53032 C 157.70099,486.5013 149.05589,485.78181 151.10923,483.72847 C 151.73235,483.10535 152.87492,483.18839 154.3201,483.96183 C 155.8945,484.80442 167.71744,485.32456 193.96198,485.70582 C 214.53107,486.00463 231.56953,486.58759 231.82521,487.00129 C 232.18688,487.58648 222.65386,488.85797 221.95747,488.31742 z M 53.097995,440.10804 C 52.379305,439.09694 50.574025,437.96845 49.086255,437.60028 C 45.666685,436.75406 41.139905,430.89941 40.649665,426.68894 C 40.443545,424.91858 40.023255,422.67727 39.715705,421.70826 C 38.698545,418.50349 40.889355,419.88033 42.636325,423.54376 C 44.074845,426.56038 44.592935,426.94095 45.845695,425.90126 C 48.130345,424.00517 48.566655,425.3516 46.933885,429.25937 C 45.285655,433.20414 45.998425,434.37139 51.479585,436.7035 C 52.958145,437.33259 54.661485,438.7696 55.264775,439.89686 C 56.651015,442.48709 54.909645,442.65681 53.097995,440.10804 z M 53.541295,433.95737 C 51.753795,432.86751 50.291295,431.53695 50.291295,431.00057 C 50.291295,429.88784 59.166445,434.04828 59.241965,435.19641 C 59.329305,436.52434 56.877365,435.99141 53.541295,433.95737 z M 35.711195,423.54254 C 33.619625,422.61337 30.926325,415.90508 30.653985,410.94641 C 30.578475,409.57141 30.248865,405.52141 29.921535,401.94641 L 29.326375,395.44641 L 30.842935,401.44641 C 31.677035,404.74641 32.357345,408.92212 32.354735,410.72576 C 32.351935,412.66063 33.157925,414.81304 34.320635,415.97576 C 35.404495,417.05962 36.291295,418.53141 36.291295,419.24641 C 36.291295,419.96141 36.791915,421.04704 37.403795,421.65891 C 39.117825,423.37294 38.036985,424.57577 35.711195,423.54254 z M 66.893285,422.78857 C 65.124465,420.26322 64.716315,414.94641 66.291295,414.94641 C 66.841295,414.94641 67.291295,416.10099 67.291295,417.51215 C 67.291295,418.92331 67.777745,420.98685 68.372315,422.0978 C 69.918035,424.98601 68.798635,425.50883 66.893285,422.78857 z M 72.849205,419.0104 C 71.879465,417.93886 71.279165,416.48279 71.515195,415.7747 C 71.785185,414.96471 72.615195,415.51111 73.753275,417.24804 C 75.926465,420.56476 75.322085,421.74291 72.849205,419.0104 z M 35.691365,408.74938 C 34.008885,401.6439 35.820845,391.72465 39.025975,390.49473 C 41.256645,389.63874 41.906655,390.73141 40.503435,392.97832 C 39.836755,394.04584 39.291295,395.67882 39.291295,396.60716 C 39.291295,398.03463 39.660715,397.94798 41.685795,396.04552 C 44.914525,393.01229 45.701175,394.77956 43.008505,399.01706 C 41.809975,400.9032 40.370795,404.43494 39.810325,406.86536 C 38.554445,412.31136 36.732165,413.14488 35.691365,408.74938 z M 75.957955,396.27974 C 75.591295,395.91308 75.291295,394.95798 75.291295,394.1573 C 75.291295,392.97666 75.574785,392.9368 76.791295,393.94641 C 77.616295,394.6311 78.291295,395.5862 78.291295,396.06885 C 78.291295,397.10437 76.907645,397.22943 75.957955,396.27974 z M 89.816975,391.99607 C 87.817865,388.13024 87.855655,385.71268 89.908775,386.12309 C 91.015815,386.34438 91.646365,387.78761 91.906865,390.69641 C 92.355895,395.71054 91.888205,396.00139 89.816975,391.99607 z M 21.764345,390.04253 C 22.094235,387.6204 22.796955,384.9204 23.325955,384.04253 C 23.983715,382.95097 24.087975,383.86894 23.655755,386.94641 C 23.308155,389.42141 22.605435,392.12141 22.094155,392.94641 C 21.482105,393.93403 21.369445,392.9421 21.764345,390.04253 z M 95.957955,392.27974 C 94.667545,390.98933 95.275255,388.72628 96.759265,389.29575 C 98.865205,390.10387 99.405275,388.71104 99.918965,381.147 C 100.22712,376.60941 99.875295,373.01879 98.833055,370.06478 C 97.985085,367.66138 97.308905,364.73903 97.330435,363.57068 C 97.395185,360.05654 100.01916,367.03222 101.71546,375.22798 C 103.17843,382.2964 103.15961,382.55429 100.80563,387.69605 C 98.506125,392.71885 97.422075,393.74386 95.957955,392.27974 z M 34.291295,380.15793 C 34.291295,378.91211 37.691635,375.94641 39.120035,375.94641 C 41.201465,375.94641 40.367345,377.47027 37.291295,379.28734 C 35.641295,380.26202 34.291295,380.65379 34.291295,380.15793 z M 39.323095,364.41863 C 39.377035,362.76963 42.229255,359.55105 42.975405,360.29719 C 43.363025,360.68482 42.692675,361.98947 41.485735,363.19641 C 40.278795,364.40335 39.305605,364.95335 39.323095,364.41863 z M 102.39629,330.94552 C 100.00753,323.32921 99.171065,319.0747 99.574105,316.59106 C 100.35652,311.76958 103.92003,303.94641 105.33384,303.94641 C 106.02766,303.94641 105.64049,305.38426 104.36417,307.54746 C 100.83183,313.53434 100.61985,321.11955 103.72665,330.36057 C 105.19005,334.71336 106.25325,339.06119 106.08933,340.02242 C 105.92541,340.98366 104.26354,336.89905 102.39629,330.94552 z M 108.29129,338.57918 C 108.29129,338.3772 111.21629,335.18442 114.79129,331.4841 C 122.73692,323.25994 123.49434,324.45285 115.68358,332.88941 C 110.89303,338.06377 108.29129,340.0663 108.29129,338.57918 z M 162.85292,328.21495 C 163.62931,321.74718 164.29129,321.54689 164.29129,327.77974 C 164.29129,330.62141 163.83986,332.94641 163.28812,332.94641 C 162.67855,332.94641 162.5078,331.09 162.85292,328.21495 z M 201.21266,322.28699 C 198.89826,320.93621 198.968,320.89867 202.79129,321.43739 C 211.70607,322.69353 230.76152,322.45897 234.09692,321.05204 C 236.57869,320.0052 237.68777,319.94289 238.54692,320.80204 C 239.40608,321.6612 239.15769,321.94641 237.55031,321.94641 C 236.37277,321.94641 235.1192,322.41584 234.7646,322.98959 C 233.73458,324.65621 204.2128,324.038 201.21266,322.28699 z M 116.76559,312.38319 C 118.40145,311.53019 121.32645,309.87436 123.26559,308.70356 L 126.79129,306.57483 L 124.79365,308.863 C 122.43237,311.56769 118.11636,313.94889 115.59095,313.94025 C 114.35799,313.93603 114.72787,313.44572 116.76559,312.38319 z M 147.29129,310.62179 C 147.29129,310.38859 148.86147,308.48356 150.78057,306.38839 C 152.69968,304.29321 155.71976,300.18665 157.49186,297.26269 C 161.20954,291.12855 163.52905,289.97181 160.18665,295.91879 C 156.58772,302.32223 147.29129,312.92181 147.29129,310.62179 z M 234.29129,308.93723 C 236.76629,308.51986 239.21879,308.57618 239.74129,309.06239 C 240.29917,309.58152 238.44173,309.89475 235.24129,309.82124 L 229.79129,309.69608 L 234.29129,308.93723 z M 131.88397,303.09637 C 131.58394,302.6109 132.26686,301.3735 133.40159,300.34659 C 135.86386,298.11827 141.29129,290.24144 141.29129,288.89628 C 141.29129,287.35392 143.02571,287.81193 143.6843,289.5282 C 144.53882,291.75504 144.47238,291.94641 142.84474,291.94641 C 142.04914,291.94641 139.75484,294.42223 137.74629,297.44824 C 133.77745,303.42756 132.71894,304.44739 131.88397,303.09637 z M 213.79129,293.85551 C 211.69118,293.38476 212.90602,293.14755 217.84129,293.06472 C 221.71879,292.99965 225.31879,292.54678 225.84129,292.05835 C 227.32319,290.67308 240.66919,289.52594 239.84815,290.85441 C 239.47696,291.45501 237.66231,291.94641 235.81561,291.94641 C 233.9689,291.94641 232.30796,292.346 232.12462,292.83439 C 231.69941,293.96713 217.75426,294.74384 213.79129,293.85551 z M 177.29129,290.60413 C 177.29129,290.32421 179.04435,286.47007 181.18699,282.03938 C 183.32962,277.60869 185.62516,272.51271 186.28819,270.71499 C 186.95122,268.91727 187.69981,267.97636 187.95172,268.62408 C 188.53118,270.11401 179.78781,290.2809 178.35538,290.75838 C 177.77013,290.95346 177.29129,290.88405 177.29129,290.60413 z M 155.29129,288.43344 C 155.29129,288.14199 156.37514,286.22568 157.69985,284.17497 C 159.02456,282.12426 160.40918,278.98907 160.77679,277.20788 C 161.55003,273.4612 163.13204,272.08572 164.38778,274.06829 C 165.57941,275.94965 165.51058,276.58427 163.94508,278.14976 C 163.20467,278.89018 161.8548,281.06399 160.94537,282.98046 C 159.53778,285.94674 155.29129,290.0422 155.29129,288.43344 z M 85.706515,286.08358 C 85.999805,285.60903 88.257525,284.65582 90.723665,283.96534 C 93.189815,283.27487 97.026415,281.15307 99.249435,279.25025 C 103.78163,275.37085 104.80624,276.12441 100.54129,280.20037 C 96.259265,284.29264 83.746465,289.255 85.706515,286.08358 z M 167.39097,275.31885 C 167.44579,273.73901 167.85094,271.32141 168.29129,269.94641 C 169.00583,267.71526 169.10265,267.84969 169.19161,271.19641 C 169.24643,273.25891 169.74129,274.94641 170.29129,274.94641 C 170.84129,274.94641 171.29129,275.47141 171.29129,276.11308 C 171.29129,276.75474 170.99519,276.98365 170.6333,276.62175 C 170.2714,276.25986 169.3714,276.46496 168.6333,277.07753 C 167.56111,277.96737 167.31133,277.61377 167.39097,275.31885 z M 83.306605,274.36308 C 83.315025,272.75891 83.752275,270.77141 84.278265,269.94641 C 84.929525,268.92492 85.038995,269.72244 84.621405,272.44641 C 83.863625,277.38957 83.286295,278.23117 83.306605,274.36308 z M 176.33193,275.33127 C 176.30958,274.71794 177.28801,272.949 178.50622,271.4003 C 179.72443,269.85159 181.50974,266.30341 182.47357,263.51544 C 184.41267,257.90644 184.96133,259.97797 183.14357,266.0451 C 182.00532,269.84426 176.40996,277.47229 176.33193,275.33127 z M 106.72386,274.05551 C 107.43732,272.90112 111.29129,270.57284 111.29129,271.29622 C 111.29129,271.52731 110.11088,272.48982 108.66817,273.43513 C 107.22545,274.38043 106.35051,274.65961 106.72386,274.05551 z M 226.04129,265.96849 C 221.428,256.22075 221.25075,254.52729 225.64549,262.187 C 229.58506,269.05338 230.32429,269.90689 229.63679,266.79532 C 229.22374,264.92591 229.33651,264.75261 230.18923,265.94641 C 231.40552,267.64921 231.68422,273.96063 230.54129,273.91927 C 230.12879,273.90434 228.10379,270.32649 226.04129,265.96849 z M 20.791295,271.94641 C 19.019045,271.18485 19.104445,271.07898 21.541295,271.0167 C 23.053795,270.97804 24.291295,271.39641 24.291295,271.94641 C 24.291295,273.12012 23.522675,273.12012 20.791295,271.94641 z M 116.29129,268.47209 C 116.29129,267.91829 121.85907,264.94641 122.89662,264.94641 C 123.28417,264.94641 122.78678,265.84641 121.79129,266.94641 C 120.20871,268.69514 116.29129,269.78182 116.29129,268.47209 z M 235.57586,263.67492 C 232.39826,259.04427 227.5995,253.97153 226.98133,254.5897 C 226.69093,254.8801 225.92331,254.12735 225.27551,252.91692 C 224.24122,250.98434 224.4826,250.36457 227.25621,247.83127 C 228.99339,246.2446 230.78881,244.94641 231.24602,244.94641 C 231.70323,244.94641 232.33633,244.27141 232.65292,243.44641 C 233.40631,241.48311 234.80584,241.55033 237.27986,243.66865 C 239.97955,245.9802 239.81385,248.79154 236.79201,251.94566 L 234.29272,254.55435 L 237.37852,258.75038 C 239.0757,261.0582 239.9602,262.94641 239.34408,262.94641 C 238.72795,262.94641 237.29457,261.37141 236.15879,259.44641 C 235.02301,257.52141 233.68819,255.94641 233.19251,255.94641 C 231.61296,255.94641 232.20893,257.3908 235.37159,261.22766 C 237.06576,263.28298 238.30326,265.40084 238.12159,265.93401 C 237.93993,266.46719 236.79434,265.4506 235.57586,263.67492 z M 231.29129,251.38739 C 231.29129,251.14485 230.58973,250.94641 229.73227,250.94641 C 228.87481,250.94641 228.45591,251.40375 228.80137,251.96272 C 229.37218,252.8863 231.29129,252.44287 231.29129,251.38739 z M 130.29129,257.23552 C 130.29129,256.6612 131.07879,255.5737 132.04129,254.81885 C 133.66005,253.54934 133.68127,253.5964 132.32426,255.44641 C 131.51739,256.54641 130.72989,257.63391 130.57426,257.86308 C 130.41863,258.09224 130.29129,257.80984 130.29129,257.23552 z M 257.80128,252.95684 C 256.22598,251.31258 255.21871,249.68566 255.56291,249.34146 C 256.20296,248.7014 261.20253,253.83978 261.25969,255.19641 C 261.31133,256.42202 260.81028,256.09756 257.80128,252.95684 z M 89.377245,253.09754 C 89.273445,250.26113 91.870855,244.52982 94.070155,242.74241 C 95.187415,241.83438 95.001065,242.64386 93.447645,245.44641 C 92.228205,247.64641 90.832855,250.79641 90.346845,252.44641 C 89.577815,255.05727 89.452045,255.14173 89.377245,253.09754 z M 267.56643,249.69641 C 266.93961,247.35891 266.0948,244.58509 265.68908,243.53237 C 265.18153,242.21541 265.3079,241.83864 266.09418,242.32459 C 266.7227,242.71303 267.72409,244.84 268.3195,247.05118 C 268.91491,249.26236 269.65028,251.71836 269.95366,252.50896 C 270.25705,253.29956 270.10045,253.94641 269.60568,253.94641 C 269.11091,253.94641 268.19325,252.03391 267.56643,249.69641 z M 262.62437,248.91572 C 261.43256,246.7326 260.85851,244.94641 261.34869,244.94641 C 262.44332,244.94641 265.53173,250.73684 265.10203,251.98351 C 264.93112,252.47935 263.81618,251.09884 262.62437,248.91572 z M 186.79129,248.94641 C 186.45137,248.39641 186.64981,247.94641 187.23227,247.94641 C 187.81473,247.94641 188.29129,248.39641 188.29129,248.94641 C 188.29129,250.22779 187.58323,250.22779 186.79129,248.94641 z M 245.95796,246.27974 C 245.59129,245.91308 245.29129,243.40593 245.29129,240.70831 C 245.29129,236.24944 245.14843,235.94641 243.71986,237.37498 C 242.02387,239.07097 237.29129,239.54177 237.29129,238.0145 C 237.29129,237.50196 238.57082,236.17149 240.1347,235.05791 C 242.28695,233.52537 243.25924,233.31436 244.1347,234.18982 C 245.01015,235.06527 245.30148,234.99395 245.33321,233.89641 C 245.42523,230.71285 249.21031,239.70153 249.24937,243.19641 C 249.2889,246.73271 247.80294,248.12473 245.95796,246.27974 z M 14.869735,239.10121 C 12.278455,233.98756 11.612115,230.94641 13.082975,230.94641 C 14.570635,230.94641 19.464315,242.17339 18.428255,243.20944 C 17.788155,243.84955 16.553755,242.42447 14.869735,239.10121 z M 270.86568,238.69641 C 269.07717,235.96207 266.08958,228.94641 266.71369,228.94641 C 266.96077,228.94641 268.53497,231.64641 270.21191,234.94641 C 273.27494,240.97406 273.60907,242.89058 270.86568,238.69641 z M 275.68598,227.69641 C 270.18973,221.36737 267.19052,215.83194 266.94225,211.55871 C 266.80058,209.12035 266.03366,206.3369 265.23798,205.37325 C 264.4423,204.4096 264.27814,203.80685 264.87317,204.03379 C 266.44553,204.63347 277.78496,217.04944 279.17775,219.69641 C 281.25491,223.64402 278.9441,222.01596 273.8336,215.93125 C 271.10686,212.68472 268.67094,210.23343 268.42042,210.48395 C 268.16991,210.73446 270.13323,213.73157 272.78337,217.14418 C 275.92521,221.18997 277.69287,224.49674 277.86353,226.64767 C 278.00749,228.46198 278.01607,229.94641 277.8826,229.94641 C 277.74912,229.94641 276.76065,228.93391 275.68598,227.69641 z M 286.77791,216.81693 C 286.33846,213.31314 285.78317,211.27566 285.54391,212.28919 C 285.25024,213.53325 284.48873,213.9698 283.2001,213.63281 C 281.77592,213.26038 281.26428,213.68114 281.18491,215.29003 C 281.09236,217.16594 280.93442,217.08086 279.97056,214.63583 C 279.19083,212.65787 278.33237,211.96391 277.07277,212.2933 C 275.09374,212.81083 274.17896,210.4042 274.56551,205.69712 C 274.86916,201.99955 275.517,202.22402 278.17113,206.94641 C 280.70463,211.45416 281.70987,212.17755 280.30475,208.48181 C 279.70243,206.89759 279.72326,205.79747 280.36306,205.40205 C 280.92615,205.05404 280.041,203.28644 278.32485,201.33185 C 274.28811,196.73425 274.45372,195.74227 278.5889,199.75024 C 282.56279,203.60189 283.53455,203.76381 282.6991,200.43511 C 281.77663,196.75972 284.52368,198.13789 288.26753,203.22873 C 291.41692,207.51125 291.4406,210.07632 288.29492,206.19641 C 285.97073,203.32974 284.8683,203.28753 286.38597,206.12333 C 287.89533,208.94359 289.25448,220.04203 288.30785,221.81693 C 287.88649,222.60696 287.23848,220.48921 286.77791,216.81693 z M 114.21478,212.69641 C 113.59991,210.68734 113.63638,208.85117 114.29927,208.44148 C 114.75569,208.1594 114.45493,206.57715 113.63091,204.92538 C 112.8069,203.27361 112.32085,201.36511 112.5508,200.68428 C 112.78083,200.00323 113.67009,200.79694 114.52771,202.44877 C 115.38506,204.10007 117.0326,206.30731 118.18891,207.35376 C 120.8446,209.75713 120.89358,211.33717 118.29129,210.65666 C 116.99143,210.31674 116.29129,210.62598 116.29129,211.54003 C 116.29129,212.66627 114.50927,213.65865 114.21478,212.69641 z M 290.1363,203.27314 C 288.01591,200.85807 285.01711,194.88726 285.62116,194.2832 C 286.34048,193.56389 292.48797,202.85637 292.08753,204.05769 C 291.89646,204.63089 291.01841,204.27784 290.1363,203.27314 z M 201.1925,189.84065 C 199.59683,188.13249 198.29129,185.79116 198.29129,184.63771 C 198.29129,182.80957 198.80446,183.04161 202.29129,186.44641 C 206.19829,190.26149 207.39667,192.94641 205.1925,192.94641 C 204.58817,192.94641 202.78817,191.54882 201.1925,189.84065 z " id="path2161"/>
  <metadata>
    <rdf:RDF>
      <cc:Work>
        <dc:format>image/svg+xml</dc:format>
        <dc:type rdf:resource="http://purl.org/dc/dcmitype/StillImage"/>
        <cc:license rdf:resource="http://creativecommons.org/licenses/publicdomain/"/>
        <dc:publisher>
          <cc:Agent rdf:about="http://openclipart.org/">
            <dc:title>Open Clip Art Library</dc:title>
          </cc:Agent>
        </dc:publisher>
        <dc:title>whooping crane 1</dc:title>
        <dc:date>2006-12-16T00:55:48</dc:date>
        <dc:description/>
        <dc:source>http://openclipart.org/detail/2113/whooping-crane-1-by-molumen</dc:source>
        <dc:creator>
          <cc:Agent>
            <dc:title>molumen</dc:title>
          </cc:Agent>
        </dc:creator>
        <dc:subject>
          <rdf:Bag>
            <rdf:li>animal</rdf:li>
            <rdf:li>animal</rdf:li>
            <rdf:li>beak</rdf:li>
            <rdf:li>beak</rdf:li>
            <rdf:li>bird</rdf:li>
            <rdf:li>bird</rdf:li>
            <rdf:li>clip art</rdf:li>
            <rdf:li>clipart</rdf:li>
            <rdf:li>colouring book</rdf:li>
            <rdf:li>colouring book</rdf:li>
            <rdf:li>crane</rdf:li>
            <rdf:li>crane</rdf:li>
            <rdf:li>fws</rdf:li>
            <rdf:li>fws</rdf:li>
            <rdf:li>fws lineart</rdf:li>
            <rdf:li>fws lineart</rdf:li>
            <rdf:li>grus americana</rdf:li>
            <rdf:li>grus americana</rdf:li>
            <rdf:li>image</rdf:li>
            <rdf:li>line art</rdf:li>
            <rdf:li>line art</rdf:li>
            <rdf:li>media</rdf:li>
            <rdf:li>nature</rdf:li>
            <rdf:li>nature</rdf:li>
            <rdf:li>neck</rdf:li>
            <rdf:li>neck</rdf:li>
            <rdf:li>png</rdf:li>
            <rdf:li>public domain</rdf:li>
            <rdf:li>remix</rdf:li>
            <rdf:li>stand</rdf:li>
            <rdf:li>stand</rdf:li>
            <rdf:li>svg</rdf:li>
            <rdf:li>tail</rdf:li>
            <rdf:li>tail</rdf:li>
            <rdf:li>water</rdf:li>
            <rdf:li>water</rdf:li>
            <rdf:li>whooping</rdf:li>
            <rdf:li>whooping</rdf:li>
            <rdf:li>whooping crane</rdf:li>
            <rdf:li>whooping crane</rdf:li>
            <rdf:li>wing</rdf:li>
            <rdf:li>wing</rdf:li>
          </rdf:Bag>
        </dc:subject>
      </cc:Work>
      <cc:License rdf:about="http://creativecommons.org/licenses/publicdomain/">
        <cc:permits rdf:resource="http://creativecommons.org/ns#Reproduction"/>
        <cc:permits rdf:resource="http://creativecommons.org/ns#Distribution"/>
        <cc:permits rdf:resource="http://creativecommons.org/ns#DerivativeWorks"/>
      </cc:License>
    </rdf:RDF>
  </metadata>
</svg>
