<?xml version="1.0" encoding="UTF-8" standalone="no"?>
<!-- Created with Inkscape (http://www.inkscape.org/) -->
<svg xmlns:dc="http://purl.org/dc/elements/1.1/" xmlns:cc="http://web.resource.org/cc/" xmlns:rdf="http://www.w3.org/1999/02/22-rdf-syntax-ns#" xmlns:svg="http://www.w3.org/2000/svg" xmlns="http://www.w3.org/2000/svg" xmlns:sodipodi="http://sodipodi.sourceforge.net/DTD/sodipodi-0.dtd" xmlns:inkscape="http://www.inkscape.org/namespaces/inkscape" id="svg2" sodipodi:version="0.32" inkscape:version="0.44+devel" width="300" height="245" version="1.0" sodipodi:docbase="C:\Documents and Settings\Molumen\Desktop" sodipodi:docname="nayrhcrel_Whooping_Crane_2.jpg" sodipodi:modified="true">
  <defs id="defs5"/>
  <sodipodi:namedview inkscape:window-height="1019" inkscape:window-width="1380" inkscape:pageshadow="2" inkscape:pageopacity="0.0" guidetolerance="10.0" gridtolerance="10.0" objecttolerance="10.0" borderopacity="1.0" bordercolor="#666666" pagecolor="#ffffff" id="base" inkscape:zoom="1.5387755" inkscape:cx="109.06213" inkscape:cy="131.45853" inkscape:window-x="156" inkscape:window-y="37" inkscape:current-layer="svg2"/>
  <path style="fill:#000000" d="M 85.831666,239.9209 C 83.575206,238.92398 83.308916,238.52191 84.581666,238.03351 C 85.471166,237.69217 86.198946,237.81128 86.198946,238.29818 C 86.198946,238.78509 87.436446,239.63544 88.948946,240.18785 C 90.461446,240.74026 91.023946,241.19121 90.198946,241.18996 C 89.373946,241.18871 87.408666,240.61764 85.831666,239.9209 z M 71.448946,238.6608 C 72.411446,238.40928 73.986446,238.40928 74.948946,238.6608 C 75.911446,238.91233 75.123946,239.11813 73.198946,239.11813 C 71.273946,239.11813 70.486446,238.91233 71.448946,238.6608 z M 80.948946,236.68785 C 81.636446,236.41044 82.761446,236.41044 83.448946,236.68785 C 84.136446,236.96526 83.573946,237.19224 82.198946,237.19224 C 80.823946,237.19224 80.261446,236.96526 80.948946,236.68785 z M 104.19895,236.00545 C 101.78801,235.15693 99.345986,235.05063 96.350856,235.66379 C 93.396736,236.26857 91.649496,236.20068 90.900856,235.45204 C 90.098316,234.64949 91.279596,234.34149 95.248946,234.31833 C 100.41596,234.28817 100.5951,234.2033 98.698946,232.68379 C 96.941336,231.27531 96.920956,231.15797 98.530736,231.7156 C 99.538216,232.06459 101.02728,232.35013 101.83975,232.35013 C 102.65223,232.35013 103.0356,232.80542 102.69169,233.36187 C 102.34391,233.9246 103.43647,234.64763 105.15348,234.99104 C 106.85138,235.33062 108.48276,236.00033 108.77878,236.47929 C 109.47966,237.61335 108.47111,237.509 104.19895,236.00545 z M 77.289626,234.42734 C 76.514506,233.93665 75.203186,233.79501 74.375586,234.11259 C 73.509346,234.445 73.134456,234.2635 73.492076,233.68486 C 73.833746,233.13203 72.501846,231.91127 70.532316,230.97206 C 68.562776,230.03285 67.193506,229.02224 67.489496,228.72625 C 67.785486,228.43026 68.936606,228.67455 70.047556,229.26911 C 72.705426,230.69156 74.500186,230.64656 73.593916,229.18019 C 73.100946,228.38254 73.426406,228.22344 74.616686,228.68019 C 75.576896,229.04866 76.550716,229.35013 76.780736,229.35013 C 77.010746,229.35013 77.198946,229.99961 77.198946,230.79343 C 77.198946,231.58724 78.199076,232.93724 79.421456,233.79343 C 81.814716,235.46973 79.856206,236.05211 77.289626,234.42734 z M 110.36833,234.89714 C 111.15975,234.04693 129.97667,231.42741 135.62021,231.38181 C 137.7769,231.36439 140.25669,230.70286 141.13085,229.91176 C 142.90723,228.30416 167.65724,225.22517 166.07363,226.80879 C 165.49803,227.38438 153.30575,229.23479 146.83535,229.72856 C 144.16037,229.93269 141.68537,230.54419 141.33535,231.08745 C 140.98533,231.6307 135.97395,232.59894 130.19895,233.23908 C 124.42395,233.87921 117.44895,234.67595 114.69895,235.0096 C 111.94895,235.34325 110.00017,235.29264 110.36833,234.89714 z M 66.448946,232.6608 C 67.411446,232.40928 68.986446,232.40928 69.948946,232.6608 C 70.911446,232.91233 70.123946,233.11813 68.198946,233.11813 C 66.273946,233.11813 65.486446,232.91233 66.448946,232.6608 z M 36.198946,229.35013 C 37.023946,228.81697 39.723946,228.41872 42.198946,228.46512 C 45.929546,228.53507 46.271506,228.68638 44.198946,229.35013 C 40.418536,230.56083 34.325526,230.56083 36.198946,229.35013 z M 94.698946,229.35013 C 93.912076,228.07694 96.228826,228.07694 98.198946,229.35013 C 99.418426,230.13822 99.289196,230.32237 97.507966,230.33482 C 96.302926,230.34324 95.038866,229.90013 94.698946,229.35013 z M 53.390866,227.85363 C 53.771416,227.45726 60.071416,226.53763 67.390866,225.81 C 74.710306,225.08236 82.003326,224.16598 83.597566,223.77359 C 85.496596,223.30618 86.276326,223.41591 85.858616,224.09178 C 85.077386,225.35584 79.388266,226.55017 72.698946,226.85442 C 69.948946,226.9795 64.323946,227.41764 60.198946,227.82806 C 56.073946,228.23849 53.010306,228.24999 53.390866,227.85363 z M 83.469776,227.74596 C 83.802076,227.41367 84.664576,227.37815 85.386446,227.66702 C 86.184176,227.98624 85.947226,228.2232 84.782276,228.27118 C 83.728116,228.3146 83.137486,228.07826 83.469776,227.74596 z M 89.068926,227.45165 C 90.175096,226.75091 90.078816,226.37459 88.568926,225.49737 C 87.540436,224.89984 87.224646,224.39726 87.867156,224.38054 C 89.768786,224.33104 92.221156,225.50517 91.763346,226.24592 C 91.530086,226.62335 92.995176,226.81455 95.019096,226.67081 C 98.204646,226.44457 98.363126,226.52642 96.198946,227.28012 C 92.788506,228.46784 87.254626,228.60097 89.068926,227.45165 z M 106.19895,227.85013 C 106.19895,227.57513 106.42395,227.35013 106.69895,227.35013 C 106.97395,227.35013 107.19895,227.57513 107.19895,227.85013 C 107.19895,228.12513 106.97395,228.35013 106.69895,228.35013 C 106.42395,228.35013 106.19895,228.12513 106.19895,227.85013 z M 171.11319,225.26121 C 173.00769,224.10626 175.55365,223.37594 176.83293,223.62049 C 178.10095,223.86289 178.90049,223.67622 178.60967,223.20567 C 178.31886,222.73512 179.13235,222.35013 180.41743,222.35013 C 181.70251,222.35013 183.64157,221.73712 184.72644,220.98789 C 185.81132,220.23865 188.89398,219.30245 191.5768,218.90744 C 194.25962,218.51243 197.07212,217.9523 197.8268,217.6627 C 198.58148,217.3731 199.19895,217.60192 199.19895,218.17118 C 199.19895,218.74045 196.61145,219.54951 193.44895,219.96909 C 190.28645,220.38866 188.59895,220.93754 189.69895,221.18881 C 191.05877,221.49942 190.09849,222.05165 186.69895,222.91401 C 183.94895,223.6116 178.99895,224.87907 175.69895,225.73062 C 167.71827,227.78999 167.07344,227.72399 171.11319,225.26121 z M 174.86562,224.68346 C 174.49895,224.3168 173.89895,224.3168 173.53228,224.68346 C 173.16562,225.05013 173.46562,225.35013 174.19895,225.35013 C 174.93228,225.35013 175.23228,225.05013 174.86562,224.68346 z M 94.469776,224.74596 C 94.802076,224.41367 95.664576,224.37815 96.386446,224.66702 C 97.184176,224.98624 96.947226,225.2232 95.782276,225.27118 C 94.728116,225.3146 94.137486,225.07826 94.469776,224.74596 z M 67.612236,223.20984 C 67.320006,222.737 67.894966,222.34025 68.889926,222.32817 C 72.173546,222.2883 79.007516,218.56778 83.639256,214.29839 C 88.804896,209.53686 89.129136,208.66028 85.948946,208.05409 C 84.514456,207.78065 84.718316,207.69712 86.511426,207.82364 C 90.340336,208.0938 95.095506,202.42808 98.039976,194.08752 C 100.08886,188.2838 100.2105,186.86782 99.375356,178.54179 C 98.560126,170.41422 98.075576,168.87503 95.077736,164.8904 C 91.321236,159.89737 89.410786,158.89821 84.035346,159.1153 C 81.696046,159.20978 79.888666,158.66736 79.035346,157.61474 C 77.892106,156.20448 77.915756,156.10236 79.198946,156.90817 C 80.023946,157.42625 82.498946,157.90181 84.698946,157.96498 C 86.898946,158.02814 89.560266,158.44211 90.612996,158.88491 C 92.112806,159.51577 92.341786,159.38271 91.671036,158.27007 C 90.936586,157.05177 91.058726,157.04787 92.531156,158.24263 C 93.475026,159.00851 94.520516,159.36189 94.854476,159.02794 C 95.188436,158.69398 96.402686,159.07985 97.552816,159.88544 C 100.11428,161.67955 101.56036,161.78107 100.61104,160.10013 C 100.22278,159.41263 101.87756,160.65013 104.28834,162.85013 C 106.69912,165.05013 107.66523,165.69613 106.43526,164.28568 C 105.20529,162.87523 104.19895,161.20935 104.19895,160.58372 C 104.19895,159.95809 102.17395,158.05297 99.698946,156.35013 C 94.134266,152.52153 93.753006,151.41226 99.179076,154.83759 C 101.36815,156.21948 103.61815,157.35013 104.17908,157.35013 C 104.74001,157.35013 105.19895,157.80013 105.19895,158.35013 C 105.19895,158.90013 105.87395,159.35013 106.69895,159.35013 C 107.52395,159.35013 108.19895,159.84827 108.19895,160.45712 C 108.19895,161.08659 107.46825,161.28371 106.50502,160.91408 C 105.02032,160.34435 105.03946,160.51642 106.66,162.3071 C 108.89588,164.77771 109.33754,164.87487 108.50822,162.71368 C 108.0764,161.58839 108.32048,161.22397 109.2896,161.54701 C 110.06474,161.80539 110.70111,162.6543 110.70376,163.43346 C 110.70641,164.21591 111.67326,164.85013 112.8634,164.85013 C 114.04856,164.85013 115.3964,165.25978 115.85859,165.76046 C 116.35672,166.30005 116.12697,166.33894 115.29444,165.85595 C 114.34959,165.30779 114.12345,165.41895 114.60346,166.19562 C 114.9959,166.8306 115.99198,167.35013 116.81698,167.35013 C 117.64198,167.35013 118.03887,166.90013 117.69895,166.35013 C 117.35903,165.80013 117.55747,165.35013 118.13993,165.35013 C 120.14924,165.35013 119.18869,167.03801 115.8122,169.44042 C 113.94948,170.76576 112.37448,172.30013 112.3122,172.85013 C 112.24991,173.40013 111.65413,173.85013 110.98825,173.85013 C 110.17735,173.85013 109.76456,175.86303 109.73825,179.94554 C 109.71477,183.58756 109.14654,186.70691 108.32651,187.69554 C 107.57166,188.60556 107.28926,189.35013 107.69895,189.35013 C 108.10864,189.35013 107.82624,190.10938 107.07139,191.03736 C 105.88244,192.49902 105.91324,192.64446 107.30179,192.12522 C 108.52712,191.66701 108.84306,192.0868 108.64319,193.90752 C 108.4994,195.21744 108.67812,196.24962 109.04035,196.20124 C 111.00094,195.93941 112.24322,196.46948 111.70603,197.33868 C 111.34963,197.91534 111.77295,198.0671 112.72203,197.7029 C 113.9209,197.24285 114.26346,197.57476 114.02397,198.96435 C 113.8344,200.06423 114.21989,200.74594 114.94895,200.60013 C 115.63645,200.46263 116.19895,200.80013 116.19895,201.35013 C 116.19895,201.90013 115.63645,202.35702 114.94895,202.36544 C 114.11099,202.37571 114.18867,202.69039 115.18458,203.32009 C 116.19357,203.95805 116.90715,203.83603 117.40872,202.93978 C 117.87292,202.1103 119.4401,201.76262 121.62796,202.00372 C 125.87846,202.47212 127.02387,200.78065 126.81071,194.35013 C 126.72866,191.87513 126.97948,188.30154 127.36808,186.40883 C 128.3168,181.78795 126.64836,173.43048 124.16222,170.35013 C 123.05245,168.97513 120.93004,165.9501 119.44573,163.62785 C 117.96143,161.30559 115.49869,158.8885 113.97297,158.25653 C 112.44726,157.62456 111.19895,156.71208 111.19895,156.22881 C 111.19895,155.74554 110.60996,155.35013 109.89008,155.35013 C 109.1702,155.35013 107.7077,154.65183 106.64008,153.79835 C 104.74496,152.28335 104.75028,152.26061 106.86479,152.83903 C 108.05601,153.16488 109.32006,152.96318 109.67381,152.39081 C 110.02756,151.81843 109.84043,151.35013 109.25797,151.35013 C 108.67551,151.35013 108.19895,150.8037 108.19895,150.13584 C 108.19895,149.38459 108.86202,149.58463 109.93784,150.66044 C 110.89422,151.61683 111.68172,153.13702 111.68784,154.03864 C 111.69486,155.07396 113.26714,156.2017 115.95518,157.09945 C 118.46035,157.93613 119.94178,158.95722 119.55603,159.58138 C 119.11973,160.28733 119.81424,160.41252 121.63359,159.95589 C 123.42313,159.50674 124.14463,159.629 123.72372,160.31005 C 123.34569,160.92172 124.08694,161.35013 125.5233,161.35013 C 128.46268,161.35013 129.43485,158.65947 128.13414,154.12415 C 127.46319,151.7847 127.52264,151.27382 128.36749,152.11867 C 128.991,152.74218 129.59126,154.73682 129.70142,156.55122 C 129.90204,159.85565 130.24124,160.35013 132.30736,160.35013 C 132.99032,160.35013 133.17492,159.39053 132.78831,157.85013 C 132.00726,154.7382 132.95845,154.5614 134.13332,157.60013 L 135.00325,159.85013 L 136.03771,157.35013 C 136.60667,155.97513 137.1007,155.43919 137.13556,156.15915 C 137.17043,156.87911 137.68815,157.16582 138.28607,156.79629 C 138.88398,156.42676 139.13136,155.1627 138.8358,153.98727 C 138.3189,151.93158 138.35247,151.92244 139.71665,153.74745 C 141.49642,156.12844 141.10676,156.73381 135.78819,159.8507 C 131.39827,162.42336 125.10088,163.37141 121.94895,161.93415 C 119.29369,160.72336 119.82488,162.53142 123.56534,167.43602 C 127.15192,172.13886 129.19895,178.6454 129.19895,185.34261 C 129.19895,187.60137 129.91057,190.82557 130.78033,192.50749 C 133.05771,196.91148 131.93489,199.53643 126.17806,203.26673 C 119.68279,207.47552 111.19895,208.42194 111.19895,204.93773 C 111.19895,204.23504 110.2431,202.80286 109.07484,201.75512 C 106.95385,199.85293 106.93939,199.86231 99.233996,208.14088 C 92.095236,215.81067 86.004786,220.3721 82.952566,220.33482 C 82.112006,220.32455 82.193186,220.00011 83.198946,219.35013 C 84.023946,218.81697 84.291426,218.37386 83.793336,218.36544 C 83.295256,218.35702 81.330786,219.53766 79.427866,220.9891 C 75.978266,223.62024 68.710136,224.98628 67.612236,223.20984 z M 90.386286,213.22992 C 93.060616,211.5138 97.681196,207.42172 100.65423,204.13642 L 106.05975,198.16313 L 104.03486,194.55798 L 102.00998,190.95284 L 105.25559,188.3039 C 107.50388,186.46894 108.12812,185.42439 107.28706,184.90459 C 106.60802,184.48492 105.22849,184.91841 104.15689,185.88819 C 102.2281,187.63373 98.198946,197.13038 98.198946,199.931 C 98.198946,200.75922 95.737766,203.95768 92.729666,207.03869 C 89.721566,210.1197 87.498126,213.02519 87.788686,213.49533 C 88.079246,213.96547 87.641976,214.35013 86.816976,214.35013 C 85.991976,214.35013 85.038866,214.80013 84.698946,215.35013 C 83.618506,217.09833 85.382936,216.44055 90.386286,213.22992 z M 94.198946,206.85013 C 94.883636,206.02513 96.176236,205.36444 97.071396,205.38193 C 98.438716,205.40865 98.388576,205.64849 96.757816,206.88193 C 94.231276,208.79291 92.603376,208.77268 94.198946,206.85013 z M 113.19895,201.85013 C 113.19895,201.57513 112.97395,201.35013 112.69895,201.35013 C 112.42395,201.35013 112.19895,201.57513 112.19895,201.85013 C 112.19895,202.12513 112.42395,202.35013 112.69895,202.35013 C 112.97395,202.35013 113.19895,202.12513 113.19895,201.85013 z M 129.45568,195.47641 C 129.72965,194.42872 129.52471,192.95921 129.00025,192.21083 C 128.2275,191.10815 128.12871,191.13456 128.47924,192.35013 C 128.71714,193.17513 128.52776,194.88835 128.05839,196.15728 C 127.57298,197.46958 127.58285,198.2309 128.08127,197.92286 C 128.56322,197.625 129.1817,196.5241 129.45568,195.47641 z M 106.19895,179.85013 C 106.19895,179.57513 105.97395,179.35013 105.69895,179.35013 C 105.42395,179.35013 105.19895,179.57513 105.19895,179.85013 C 105.19895,180.12513 105.42395,180.35013 105.69895,180.35013 C 105.97395,180.35013 106.19895,180.12513 106.19895,179.85013 z M 107.19895,176.85013 C 107.19895,176.57513 106.97395,176.35013 106.69895,176.35013 C 106.42395,176.35013 106.19895,176.57513 106.19895,176.85013 C 106.19895,177.12513 106.42395,177.35013 106.69895,177.35013 C 106.97395,177.35013 107.19895,177.12513 107.19895,176.85013 z M 104.19895,173.85013 C 104.19895,173.57513 103.97395,173.35013 103.69895,173.35013 C 103.42395,173.35013 103.19895,173.57513 103.19895,173.85013 C 103.19895,174.12513 103.42395,174.35013 103.69895,174.35013 C 103.97395,174.35013 104.19895,174.12513 104.19895,173.85013 z M 108.19895,173.85013 C 108.19895,173.57513 107.97395,173.35013 107.69895,173.35013 C 107.42395,173.35013 107.19895,173.57513 107.19895,173.85013 C 107.19895,174.12513 107.42395,174.35013 107.69895,174.35013 C 107.97395,174.35013 108.19895,174.12513 108.19895,173.85013 z M 111.69895,172.35013 C 111.35903,171.80013 110.85592,171.35013 110.58092,171.35013 C 110.30592,171.35013 110.35903,171.80013 110.69895,172.35013 C 111.03887,172.90013 111.54198,173.35013 111.81698,173.35013 C 112.09198,173.35013 112.03887,172.90013 111.69895,172.35013 z M 104.69895,171.35013 C 104.35903,170.80013 103.85592,170.35013 103.58092,170.35013 C 103.30592,170.35013 103.35903,170.80013 103.69895,171.35013 C 104.03887,171.90013 104.54198,172.35013 104.81698,172.35013 C 105.09198,172.35013 105.03887,171.90013 104.69895,171.35013 z M 108.69895,171.35013 C 108.35903,170.80013 107.85592,170.35013 107.58092,170.35013 C 107.30592,170.35013 107.35903,170.80013 107.69895,171.35013 C 108.03887,171.90013 108.54198,172.35013 108.81698,172.35013 C 109.09198,172.35013 109.03887,171.90013 108.69895,171.35013 z M 105.69895,169.35013 C 105.35903,168.80013 104.85592,168.35013 104.58092,168.35013 C 104.30592,168.35013 104.35903,168.80013 104.69895,169.35013 C 105.03887,169.90013 105.54198,170.35013 105.81698,170.35013 C 106.09198,170.35013 106.03887,169.90013 105.69895,169.35013 z M 109.69895,169.35013 C 109.35903,168.80013 108.85592,168.35013 108.58092,168.35013 C 108.30592,168.35013 108.35903,168.80013 108.69895,169.35013 C 109.03887,169.90013 109.54198,170.35013 109.81698,170.35013 C 110.09198,170.35013 110.03887,169.90013 109.69895,169.35013 z M 107.19895,167.97257 C 107.19895,167.76492 106.41145,166.97742 105.44895,166.22257 C 103.86289,164.9787 103.82752,165.01407 105.0714,166.60013 C 106.37776,168.26588 107.19895,168.79561 107.19895,167.97257 z M 111.19895,152.85013 C 111.19895,152.57513 110.97395,152.35013 110.69895,152.35013 C 110.42395,152.35013 110.19895,152.57513 110.19895,152.85013 C 110.19895,153.12513 110.42395,153.35013 110.69895,153.35013 C 110.97395,153.35013 111.19895,153.12513 111.19895,152.85013 z M 94.698946,222.43245 C 95.798946,221.91449 98.726916,221.45907 101.20555,221.42042 C 103.68418,221.38176 107.25438,220.90783 109.13932,220.36723 C 111.02426,219.82664 112.75421,219.57206 112.98366,219.80151 C 113.70958,220.52743 105.94797,222.22032 99.198946,222.8081 C 94.767026,223.19408 93.335276,223.07456 94.698946,222.43245 z M 29.305036,220.91071 C 29.546706,220.66903 32.434206,220.38779 35.721696,220.28572 C 39.009186,220.18366 44.765866,219.4814 48.514326,218.72514 C 52.262776,217.96889 56.255376,217.35013 57.386766,217.35013 C 59.161006,217.35013 59.260846,217.57062 58.112886,218.95383 C 57.154736,220.10833 55.719966,220.4151 52.990626,220.04901 C 50.905416,219.76933 48.947686,219.94766 48.640116,220.44531 C 48.332556,220.94296 43.757466,221.35013 38.473266,221.35013 C 33.189056,221.35013 29.063346,221.15239 29.305036,220.91071 z M 115.46978,219.74596 C 115.80208,219.41367 116.66458,219.37815 117.38645,219.66702 C 118.18418,219.98624 117.94723,220.2232 116.78228,220.27118 C 115.72812,220.3146 115.13749,220.07826 115.46978,219.74596 z M 119.54265,218.60302 C 119.87236,218.06954 122.74241,217.36043 125.92054,217.02722 C 129.09866,216.694 134.35638,216.11017 137.60434,215.72981 C 141.72603,215.24713 143.3086,215.3637 142.84382,216.11572 C 142.47757,216.70833 139.14514,217.47253 135.43843,217.81394 C 131.73172,218.15535 126.5039,218.69081 123.82107,219.00384 C 120.78326,219.35828 119.16932,219.20709 119.54265,218.60302 z M 61.198946,217.53243 C 62.023946,217.02316 65.398946,216.30901 68.698946,215.94544 C 71.998946,215.58186 76.498946,215.0777 78.698946,214.82508 C 81.225286,214.53499 82.146326,214.68317 81.198946,215.22729 C 80.373946,215.70113 77.223946,216.38252 74.198946,216.74149 C 71.173946,217.10047 66.673946,217.63362 64.198946,217.92627 C 61.221416,218.27835 60.206436,218.1451 61.198946,217.53243 z M 197.44895,216.62673 C 192.26391,215.98328 193.69235,214.81511 199.19772,215.1966 C 201.94773,215.38716 203.94645,215.94966 203.63933,216.4466 C 203.3322,216.94354 202.54497,217.27811 201.88993,217.19009 C 201.23489,217.10207 199.23645,216.84856 197.44895,216.62673 z M 20.469776,214.74596 C 20.802066,214.41367 21.664576,214.37815 22.386446,214.66702 C 23.184176,214.98624 22.947226,215.2232 21.782276,215.27118 C 20.728116,215.3146 20.137486,215.07826 20.469776,214.74596 z M 24.909666,214.15018 C 24.196646,213.69705 25.137726,213.32041 27.198946,213.23397 C 29.123946,213.15324 33.286446,212.93813 36.448946,212.75595 C 39.696496,212.56887 42.198946,212.8437 42.198946,213.38742 C 42.198946,213.91691 39.836446,214.38669 36.948946,214.43137 C 34.061446,214.47605 30.443766,214.60419 28.909666,214.71611 C 27.375566,214.82804 25.575566,214.57337 24.909666,214.15018 z M 103.19895,213.21425 C 106.22395,212.74439 111.17395,212.04642 114.19895,211.66322 C 119.1105,211.04102 119.37798,210.89267 116.69895,210.27662 C 115.04895,209.8972 111.59825,209.53352 109.03074,209.46844 C 106.46322,209.40337 103.66229,209.08142 102.80644,208.753 C 100.13978,207.72971 103.65016,205.03402 106.44588,205.9582 L 108.69895,206.70299 L 106.19895,207.32441 C 101.72195,208.43724 133.25253,210.3106 149.69895,209.90893 C 158.49895,209.694 170.64895,209.89977 176.69895,210.3662 L 187.69895,211.21424 L 174.69895,210.84188 C 163.73409,210.52782 160.84394,210.77328 156.23734,212.40983 C 153.23345,213.47699 149.18345,214.31555 147.23734,214.27328 L 143.69895,214.19643 L 147.69895,212.87813 L 151.69895,211.55984 L 146.19895,211.43672 C 143.17395,211.36901 136.31125,211.20933 130.9485,211.08187 C 125.58575,210.95441 121.08336,211.19478 120.9432,211.61601 C 120.80304,212.03725 116.86574,212.82133 112.19366,213.35842 C 101.83855,214.54882 95.283296,214.44374 103.19895,213.21425 z M 154.19895,211.85013 C 154.19895,211.57513 153.97395,211.35013 153.69895,211.35013 C 153.42395,211.35013 153.19895,211.57513 153.19895,211.85013 C 153.19895,212.12513 153.42395,212.35013 153.69895,212.35013 C 153.97395,212.35013 154.19895,212.12513 154.19895,211.85013 z M 190.69895,213.42679 L 184.69895,212.83967 L 189.32806,212.05175 C 194.21823,211.21941 220.22436,212.00928 221.15381,213.01838 C 221.45364,213.3439 216.63645,213.38082 210.44895,213.10042 C 204.2543,212.81969 199.19895,212.98594 199.19895,213.47037 C 199.19895,213.95424 198.63645,214.27448 197.94895,214.18202 C 197.26145,214.08956 193.99895,213.74971 190.69895,213.42679 z M 45.351346,212.8644 C 45.791196,212.42454 51.677696,211.67735 71.405786,209.55721 C 75.094556,209.16079 77.794556,209.13227 77.405786,209.49383 C 76.696336,210.15365 74.356226,210.48818 57.698946,212.31104 C 47.452186,213.43238 44.658156,213.55759 45.351346,212.8644 z M 25.462696,209.63255 C 26.982756,209.40269 29.232756,209.40884 30.462696,209.6462 C 31.692636,209.88356 30.448946,210.07162 27.698946,210.06412 C 24.948946,210.05661 23.942636,209.8624 25.462696,209.63255 z M 39.344886,209.87086 C 40.198966,209.01678 51.107866,208.68849 50.586196,209.53257 C 50.308286,209.98223 47.557466,210.35013 44.473266,210.35013 C 41.389056,210.35013 39.081286,210.13446 39.344886,209.87086 z M 57.198946,208.41671 L 62.698946,207.80928 L 58.560166,207.0106 C 56.232326,206.56138 49.231486,206.70278 42.560166,207.33375 C 30.871966,208.43921 12.754186,208.2387 11.505536,206.99006 C 11.153576,206.6381 11.728116,206.28159 12.782276,206.19782 C 15.389666,205.99061 16.439726,205.76471 18.198946,205.03253 C 20.227686,204.18817 34.842286,204.65994 35.782366,205.60013 C 36.194816,206.01263 35.707276,206.35013 34.698946,206.35013 C 33.690616,206.35013 33.131696,206.61622 33.456916,206.94144 C 34.243766,207.72828 38.345346,206.39692 37.810916,205.52813 C 37.581526,205.15523 38.924996,204.7379 40.796396,204.60073 C 42.680386,204.46264 44.198946,204.8237 44.198946,205.40975 C 44.198946,205.99188 44.714586,206.14948 45.344816,205.75998 C 46.747056,204.89335 58.503406,204.55776 59.198946,205.36451 C 59.473946,205.68348 64.701386,205.69823 70.815476,205.39729 C 76.929576,205.09635 83.229576,205.13439 84.815476,205.48182 C 86.741646,205.90378 85.374966,206.17278 80.698946,206.29206 C 70.390886,206.55501 63.823546,207.32644 62.748946,208.40056 C 62.226446,208.92282 59.526446,209.27678 56.748946,209.18713 L 51.698946,209.02414 L 57.198946,208.41671 z M 26.386446,206.66702 C 25.664576,206.37815 24.802066,206.41367 24.469776,206.74596 C 24.137486,207.07826 24.728116,207.3146 25.782276,207.27118 C 26.947226,207.2232 27.184176,206.98624 26.386446,206.66702 z M 41.865616,205.68346 C 41.498946,205.3168 40.898946,205.3168 40.532276,205.68346 C 40.165616,206.05013 40.465616,206.35013 41.198946,206.35013 C 41.932276,206.35013 42.232276,206.05013 41.865616,205.68346 z M 109.80196,194.5168 C 109.51869,194.05846 109.94213,193.68346 110.74294,193.68346 C 111.54374,193.68346 112.19895,194.05846 112.19895,194.5168 C 112.19895,195.5968 110.46944,195.5968 109.80196,194.5168 z M 116.19895,194.35013 C 116.19895,193.6168 116.49895,193.3168 116.86562,193.68346 C 117.23228,194.05013 117.23228,194.65013 116.86562,195.0168 C 116.49895,195.38346 116.19895,195.08346 116.19895,194.35013 z M 110.37563,190.683 C 110.55345,189.76607 111.37395,188.83181 112.19895,188.60687 C 113.43187,188.27069 113.45357,188.36957 112.32083,189.1622 C 111.56287,189.69258 111.25193,190.62683 111.62985,191.23833 C 112.00777,191.84982 111.80743,192.35013 111.18464,192.35013 C 110.56186,192.35013 110.1978,191.59992 110.37563,190.683 z M 115.19895,190.35013 C 115.19895,189.6168 115.49895,189.3168 115.86562,189.68346 C 116.23228,190.05013 116.23228,190.65013 115.86562,191.0168 C 115.49895,191.38346 115.19895,191.08346 115.19895,190.35013 z M 211.44329,189.68596 C 210.75267,189.40751 208.27767,185.95554 205.94329,182.01491 L 201.69895,174.85013 L 201.68165,154.35013 C 201.66355,132.90001 201.42382,131.44703 195.67367,117.93609 C 195.15649,116.72087 195.22537,116.24843 195.86234,116.6421 C 196.41414,116.98313 196.86562,116.61409 196.86562,115.82202 C 196.86562,114.7944 196.51267,114.67481 195.63344,115.4045 C 194.72012,116.16248 193.48446,114.96142 190.85847,110.76323 C 188.90994,107.64809 185.91715,104.24884 184.20782,103.20933 C 182.4985,102.16983 181.30141,100.98876 181.54763,100.58473 C 181.79384,100.1807 180.63179,98.275133 178.96528,96.350133 C 177.29878,94.425133 176.28654,93.525133 176.71588,94.350133 C 177.14521,95.175133 178.40798,96.862633 179.52203,98.100133 C 180.63608,99.337633 181.10376,100.35013 180.56132,100.35013 C 179.30555,100.35013 174.86562,94.393839 174.86562,92.709185 C 174.86562,92.010094 174.53984,91.639452 174.14167,91.885536 C 173.7435,92.131619 172.67365,91.197375 171.76424,89.809437 C 170.85483,88.421499 167.56776,86.161276 164.45964,84.786719 L 158.80852,82.287524 L 147.86021,83.809609 C 135.87391,85.476001 134.71555,86.064751 124.44895,95.708668 C 119.87504,100.00516 119.19895,100.35761 119.19895,98.44553 C 119.19895,97.238436 119.8835,94.927043 120.72017,93.309102 C 121.55684,91.691161 121.97915,89.322556 121.65864,88.045534 C 121.27996,86.536768 121.76523,84.872377 123.04436,83.292714 C 124.80682,81.116168 126.04298,80.794303 134.85589,80.217286 C 147.31443,79.401575 156.44709,76.509932 161.50564,71.779263 L 165.31233,68.219314 L 162.80148,63.93488 C 159.26049,57.892638 149.52931,49.214168 142.63469,45.949719 C 139.41798,44.426681 135.49449,42.093714 133.91582,40.765347 C 132.33714,39.436979 130.45646,38.350133 129.73653,38.350133 C 129.0166,38.350133 127.13863,37.677905 125.56326,36.856294 C 123.98789,36.034682 121.68034,35.359682 120.43538,35.356294 C 119.19042,35.352905 117.39042,34.953291 116.43538,34.468262 C 113.56987,33.012972 105.43692,31.350133 101.1846,31.350133 C 98.934286,31.350133 97.198946,30.867536 97.198946,30.241725 C 97.198946,29.56847 96.248656,29.371824 94.778406,29.740833 C 92.105206,30.411763 89.198946,29.631639 89.198946,28.243144 C 89.198946,27.751988 90.072386,27.350133 91.139926,27.350133 C 92.207466,27.350133 93.332576,26.94294 93.640156,26.445259 C 93.956536,25.933342 92.524836,25.764991 90.343326,26.057593 C 88.046746,26.36563 85.519006,26.034783 84.093106,25.239524 L 81.698946,23.904247 L 85.198946,23.258831 C 88.548236,22.641208 88.496846,22.607747 84.005646,22.481774 C 80.402696,22.380716 78.956046,21.841431 77.778656,20.160465 C 76.935116,18.956148 76.484066,17.73168 76.776316,17.439426 C 77.068576,17.147171 77.668366,17.491643 78.109196,18.204919 C 78.550026,18.918195 80.888056,19.718283 83.304826,19.982891 L 87.698946,20.463997 L 82.198946,18.14822 C 77.696276,16.25237 76.698946,15.395827 76.698946,13.424622 C 76.698946,10.288057 78.946506,9.5430266 79.371846,12.5386 C 79.589886,14.074206 80.987966,15.447961 83.564926,16.658714 C 87.692346,18.597926 91.492146,18.243334 89.366166,16.11735 C 88.724196,15.475381 88.200626,14.027633 88.202686,12.900133 C 88.205766,11.212732 88.545826,11.40675 90.125286,13.997039 C 92.124146,17.275129 92.859736,17.602031 106.69895,21.362538 C 121.11497,25.279781 130.54285,29.270934 129.92641,31.195538 C 129.56775,32.31532 137.15799,39.530452 138.2957,39.151216 C 138.85766,38.963895 137.27073,37.277084 134.76917,35.402747 C 132.26762,33.52841 130.43263,31.783117 130.69143,31.524319 C 130.95023,31.26552 133.26914,32.695456 135.84457,34.701954 C 138.42,36.708453 140.92988,38.350133 141.42208,38.350133 C 141.91428,38.350133 142.04205,38.794979 141.70603,39.338679 C 141.35569,39.905539 141.75709,40.073186 142.64701,39.73169 C 143.52438,39.395013 144.19895,39.663828 144.19895,40.350133 C 144.19895,41.017821 144.85087,41.313944 145.64767,41.008185 C 148.25171,40.008919 157.77111,45.615339 156.62343,47.472325 C 156.33283,47.94252 156.81021,48.052802 157.68426,47.717397 C 159.55223,47.000587 163.43951,50.151885 162.52086,51.638288 C 162.16354,52.216447 162.38163,52.355264 163.02377,51.958397 C 164.4092,51.102159 168.19895,52.992876 168.19895,54.540304 C 168.19895,55.156196 167.18645,54.802864 165.94895,53.755121 L 163.69895,51.850133 L 165.5826,54.076552 C 166.6186,55.301082 167.85345,56.063661 168.32671,55.771172 C 169.39419,55.111436 175.81645,59.910975 176.60063,61.954501 C 176.98703,62.96146 176.76921,63.209658 175.9375,62.710112 C 175.10719,62.211414 175.14831,62.520278 176.06226,63.647164 C 176.81208,64.571685 177.79348,65.100726 178.24316,64.822811 C 178.69284,64.544895 179.34341,64.77485 179.68887,65.333821 C 180.69886,66.968015 185.97537,66.506793 189.98879,64.433502 C 196.47829,61.081093 213.50055,45.846781 219.19895,38.291462 C 225.63121,29.763135 228.96229,26.350133 230.85363,26.350133 C 231.60308,26.350133 234.07989,25.000133 236.35765,23.350133 C 238.63541,21.700133 240.86463,20.350133 241.31148,20.350133 C 241.75832,20.350133 244.62351,19.414918 247.67856,18.271876 C 251.66728,16.779507 253.95949,15.158509 255.80948,12.521876 L 258.38575,8.8501326 L 257.98675,11.955678 C 257.64791,14.592872 257.87099,14.987151 259.46594,14.570064 C 260.49894,14.299926 262.94941,12.564931 264.91142,10.714519 C 266.87343,8.8641061 268.64076,7.3501326 268.83883,7.3501326 C 270.11552,7.3501326 268.79592,10.844069 266.7444,12.895588 C 263.8846,15.755389 264.38538,15.888019 270.32322,13.843429 C 272.89667,12.957309 276.03144,10.794929 277.93407,8.5934285 C 280.78443,5.2953395 281.17097,5.1090763 281.18407,7.0273287 C 281.19302,8.3363476 279.71244,10.429834 277.47111,12.277329 L 273.74326,15.350133 L 278.02077,15.350133 C 283.11631,15.350133 288.18697,12.978027 288.22936,10.574453 C 288.25673,9.0221577 288.36763,9.0357559 289.34096,10.710757 C 290.73552,13.110668 288.28509,15.706826 282.69895,17.747773 L 278.69895,19.209209 L 282.19895,19.27351 C 284.12395,19.308876 287.0034,18.657535 288.59773,17.826087 C 291.83547,16.137595 292.53043,16.322726 291.64231,18.637129 C 291.00602,20.295281 286.21805,22.350133 282.99071,22.350133 C 281.94032,22.350133 281.35903,22.800133 281.69895,23.350133 C 282.03887,23.900133 284.38517,24.350133 286.91295,24.350133 C 291.44558,24.350133 291.48398,24.377697 289.69895,26.350133 C 288.65274,27.506178 286.58295,28.365086 284.79396,28.385568 C 281.73331,28.42061 281.72468,28.43528 284.01662,29.706966 C 286.7951,31.248613 286.19981,31.830514 278.19895,35.393788 C 275.17395,36.741007 272.15808,38.353545 271.49702,38.977205 C 270.83596,39.600866 267.12346,40.888382 263.24702,41.838353 C 258.52923,42.994507 256.19895,44.047566 256.19895,45.023393 C 256.19895,47.581758 245.85408,67.833344 243.17211,70.525337 C 242.36187,71.338599 240.25011,73.656981 238.4793,75.677297 C 234.25651,80.495078 227.98136,83.756614 224.3371,83.027763 C 222.29555,82.619454 221.07462,83.014461 219.80884,84.492784 C 218.85566,85.606018 217.42849,86.268459 216.63737,85.964874 C 214.07226,84.980552 215.10607,86.924793 219.44895,91.252534 C 226.08067,97.861134 227.57884,99.110469 230.42947,100.4093 C 233.81143,101.95023 234.35067,103.42539 233.03707,107.54283 C 232.02576,110.71276 231.60786,113.28044 231.3279,118.04437 C 231.17417,120.66025 226.29626,126.65714 226.19875,124.35013 C 226.14239,123.0168 225.99999,123.0168 224.91715,124.35013 C 222.70006,127.08009 219.26178,126.62408 217.40059,123.35323 C 216.12586,121.11303 214.97014,120.36119 212.79396,120.35645 C 209.91577,120.35019 209.90632,120.3693 211.76981,122.42843 C 213.93183,124.81744 214.00552,126.63574 212.77209,147.16051 C 211.95002,160.84002 212.00465,161.59606 214.0113,164.31019 C 215.16586,165.87181 216.40524,168.32389 216.7655,169.75926 C 217.12575,171.19463 217.82066,172.61633 218.30973,172.9186 C 218.7988,173.22086 219.19895,174.80744 219.19895,176.44433 C 219.19895,181.34977 215.9577,178.48027 211.9382,170.01634 L 208.42454,162.61757 L 209.86728,149.23385 C 210.6608,141.8728 211.07503,133.98421 210.78781,131.70363 C 209.9389,124.96327 207.28678,119.41028 204.59363,118.73434 C 203.28416,118.40568 202.43528,117.77675 202.70724,117.33672 C 202.9792,116.89668 202.30109,116.77217 201.20033,117.06002 C 198.4401,117.78184 198.68476,120.25651 202.26566,127.8355 L 205.33237,134.3262 L 204.66238,152.19209 L 203.99238,170.05798 L 207.4722,174.95405 C 212.61151,182.18505 214.44623,186.10013 212.9341,186.60913 C 211.98248,186.92945 212.014,187.40655 213.07139,188.68751 C 214.42863,190.33171 213.87974,190.66832 211.44329,189.68596 z M 223.68328,123.11567 C 224.1159,123.51962 224.02955,122.95013 223.4914,121.85013 C 222.95325,120.75013 222.84744,118.72513 223.25627,117.35013 C 223.6651,115.97513 224.09769,115.30013 224.21758,115.85013 C 224.33748,116.40013 224.8076,115.50013 225.26228,113.85013 C 225.87957,111.61008 225.98481,112.24337 225.67773,116.35013 L 225.26648,121.85013 L 226.71628,117.35013 L 228.16608,112.85013 L 227.67514,118.35013 C 227.2637,122.95939 227.38038,123.52623 228.3956,121.85013 C 230.22524,118.82944 230.32212,110.43711 228.58881,105.11273 C 227.43767,101.57666 225.12384,98.465023 219.46422,92.841995 C 215.29391,88.698655 210.7157,85.035177 209.2904,84.700934 C 207.8651,84.36669 205.24466,83.219394 203.46719,82.151387 C 201.68972,81.08338 199.83736,80.455575 199.35083,80.756263 C 198.86431,81.056952 197.72721,80.486349 196.82395,79.488257 C 195.871,78.435262 193.64223,77.615669 191.51413,77.535666 C 189.49699,77.459834 187.39316,76.94434 186.83894,76.390124 C 185.71557,75.266748 193.36565,75.717091 195.2564,76.88564 C 195.85623,77.256357 197.43869,76.534083 198.77298,75.280588 C 200.10726,74.027092 201.19895,73.474846 201.19895,74.053374 C 201.19895,74.631902 200.52395,75.665444 199.69895,76.350133 C 198.87395,77.034822 198.20584,78.327422 198.21426,79.222578 C 198.22405,80.263316 198.49447,80.44804 198.96426,79.734914 C 199.36834,79.121544 200.82042,78.269133 202.19111,77.840669 C 204.37974,77.156521 204.52439,77.253075 203.37878,78.633451 C 202.25116,79.992145 202.45561,80.253923 204.88662,80.564174 C 206.4334,80.761577 208.93645,80.332618 210.44895,79.610931 C 212.13458,78.806636 213.19895,78.694646 213.19895,79.321585 C 213.19895,79.884132 211.73645,81.00528 209.94895,81.813026 L 206.69895,83.281656 L 210.69895,82.684555 C 215.58074,81.955826 216.78879,81.33271 215.21069,80.35739 C 214.4323,79.876318 214.92315,79.385188 216.60393,78.963338 C 222.13353,77.575495 218.05993,70.547764 210.19895,67.913548 C 207.47752,67.001596 205.56638,66.792336 205.36354,67.384095 C 205.17906,67.92227 204.56933,68.079043 204.00858,67.732481 C 202.34199,66.702469 188.79079,66.769047 187.6083,67.813057 C 186.8336,68.497034 187.06578,69.704987 188.40979,71.982901 C 190.27371,75.142014 190.27302,75.182262 188.36329,74.682858 C 185.83255,74.021054 185.49767,74.924857 186.26341,80.350133 C 186.79004,84.081224 186.92423,84.299081 187.04876,81.625133 C 187.19214,78.54642 187.34637,78.428195 190.44895,79.018773 C 194.84393,79.855362 195.18459,80.350133 191.36562,80.350133 C 187.06376,80.350133 187.3855,81.894495 192.19895,84.350133 C 197.12914,86.865329 197.46122,87.904385 192.69895,85.91458 C 188.31507,84.082878 188.20914,84.742487 192.44895,87.471227 C 194.23645,88.621661 194.92586,89.3097 193.98098,89.000203 C 191.82941,88.29546 190.57597,90.130284 192.14533,91.687265 C 193.03957,92.574449 193.14312,92.392576 192.58212,90.920103 C 191.87804,89.072064 191.9487,89.061444 194.24538,90.670103 C 197.07814,92.654242 198.62934,92.856363 197.5457,91.100133 C 197.12149,90.412633 198.19593,90.975133 199.93334,92.350133 C 201.67074,93.725133 202.94132,95.318984 202.75685,95.892025 C 202.57237,96.465065 203.02894,97.764728 203.77145,98.780165 C 204.77069,100.14671 204.84633,101.14048 204.06258,102.60494 C 203.24935,104.12448 203.37433,104.95408 204.60133,106.18108 C 205.94467,107.52442 206.20139,107.54564 206.21426,106.31442 C 206.23922,103.92798 208.16502,107.41262 208.18364,109.87789 C 208.19206,110.99316 209.09895,112.67625 210.19895,113.6181 C 212.0592,115.2109 212.64346,115.04561 212.29259,113.0258 C 212.21384,112.57242 212.61055,112.48648 213.17417,112.83482 C 213.7378,113.18316 214.19895,114.32748 214.19895,115.37776 C 214.19895,116.66434 214.68834,117.09957 215.69895,116.71176 C 216.80761,116.28632 217.21955,116.88152 217.2779,118.99314 C 217.32132,120.56449 217.58475,121.28483 217.86331,120.5939 C 218.14186,119.90297 218.78134,119.59203 219.28436,119.90292 C 220.12707,120.42374 220.65703,116.92078 220.27573,113.35013 C 220.13705,112.05144 220.2465,112.04503 221.09127,113.30238 C 221.62791,114.10112 221.84343,115.11635 221.5702,115.55845 C 221.29697,116.00054 221.0487,118.15335 221.01849,120.34247 C 220.98424,122.8243 220.57324,124.08146 219.92675,123.6819 C 219.28345,123.28432 219.19628,123.5368 219.69708,124.34711 C 220.33774,125.38371 220.75099,125.31565 221.70047,124.01716 C 222.3584,123.11739 223.25066,122.71172 223.68328,123.11567 z M 217.2779,109.93346 C 217.23448,108.8793 217.47082,108.28867 217.80312,108.62096 C 218.13541,108.95326 218.17093,109.81576 217.88206,110.53763 C 217.56284,111.33536 217.32588,111.09841 217.2779,109.93346 z M 224.19895,109.35013 C 224.19895,108.6168 224.49895,108.3168 224.86562,108.68346 C 225.23228,109.05013 225.23228,109.65013 224.86562,110.0168 C 224.49895,110.38346 224.19895,110.08346 224.19895,109.35013 z M 201.86562,92.683466 C 200.77312,91.590967 201.10924,89.350133 202.36562,89.350133 C 203.00728,89.350133 203.23619,89.646229 202.87429,90.008124 C 202.5124,90.370019 202.7175,91.270019 203.33007,92.008124 C 204.44203,93.347953 203.13353,93.951378 201.86562,92.683466 z M 204.19895,89.519668 C 204.19895,88.879578 202.73645,87.677199 200.94895,86.847714 L 197.69895,85.339558 L 200.62358,85.907727 C 203.3113,86.429872 203.43281,86.333746 202.12358,84.721056 C 201.09404,83.452883 201.06272,83.185055 202.01063,83.755314 C 203.51801,84.662142 205.51498,89.367432 204.72693,90.155488 C 204.43654,90.445876 204.19895,90.159757 204.19895,89.519668 z M 192.19895,82.350133 C 191.37395,81.816977 191.14895,81.380759 191.69895,81.380759 C 192.24895,81.380759 193.37395,81.816977 194.19895,82.350133 C 195.02395,82.883289 195.24895,83.319507 194.69895,83.319507 C 194.14895,83.319507 193.02395,82.883289 192.19895,82.350133 z M 198.53228,82.683466 C 198.89895,82.3168 199.49895,82.3168 199.86562,82.683466 C 200.23228,83.050133 199.93228,83.350133 199.19895,83.350133 C 198.46562,83.350133 198.16562,83.050133 198.53228,82.683466 z M 215.76324,76.057005 C 216.13877,75.070784 216.69793,74.515784 217.00582,74.823672 C 217.31371,75.131559 217.00646,75.938466 216.32304,76.6168 C 215.33542,77.597067 215.22056,77.482203 215.76324,76.057005 z M 209.19895,75.350133 C 209.19895,74.6168 209.49895,74.3168 209.86562,74.683466 C 210.23228,75.050133 210.23228,75.650133 209.86562,76.0168 C 209.49895,76.383466 209.19895,76.083466 209.19895,75.350133 z M 191.28228,74.067165 C 191.51145,73.911533 192.49675,73.172884 193.47184,72.425722 C 195.01532,71.243034 195.16323,71.27965 194.61485,72.708689 C 194.26842,73.611483 193.28312,74.350133 192.42529,74.350133 C 191.56747,74.350133 191.05312,74.222798 191.28228,74.067165 z M 196.19895,73.972578 C 196.19895,73.764922 196.98645,72.977422 197.94895,72.222578 C 199.53501,70.978707 199.57038,71.014077 198.32651,72.600133 C 197.02014,74.265881 196.19895,74.795612 196.19895,73.972578 z M 190.19895,71.40915 C 190.19895,70.826691 190.64895,70.350133 191.19895,70.350133 C 192.48033,70.350133 192.48033,71.058194 191.19895,71.850133 C 190.64895,72.190052 190.19895,71.991609 190.19895,71.40915 z M 208.818,114.82632 C 207.92752,113.93584 207.19895,113.59942 207.19895,114.0787 C 207.19895,115.21121 209.43508,117.44734 210.00133,116.88108 C 210.24097,116.64144 209.70847,115.7168 208.818,114.82632 z M 207.19895,110.659 C 207.19895,108.49896 205.47705,109.18281 204.82924,111.60013 C 204.4976,112.83763 204.23443,114.30013 204.24441,114.85013 C 204.27141,116.338 207.19895,112.18517 207.19895,110.659 z M 204.18364,110.04111 C 204.19206,109.04615 203.7541,108.50703 203.2104,108.84305 C 202.64354,109.19339 202.4759,108.79199 202.81739,107.90207 C 203.14494,107.0485 202.9588,106.35013 202.40376,106.35013 C 201.84872,106.35013 200.92399,107.70013 200.34879,109.35013 C 199.3636,112.17625 200.45416,113.78287 201.53667,111.10013 C 201.81408,110.41263 202.08347,110.97513 202.13532,112.35013 C 202.21044,114.34248 202.42642,114.54554 203.19895,113.35013 C 203.73211,112.52513 204.17522,111.03607 204.18364,110.04111 z M 195.14555,105.99391 C 194.1827,105.10646 194.04963,105.26065 194.55177,106.68192 C 194.90772,107.6894 195.25115,109.0394 195.31495,109.68192 C 195.37875,110.32443 195.64595,110.01483 195.90873,108.99391 C 196.17151,107.97299 195.82808,106.62299 195.14555,105.99391 z M 192.77348,104.10013 C 192.55337,101.21263 192.32716,98.400133 192.2708,97.850133 C 192.21444,97.300133 191.73549,97.525133 191.20647,98.350133 C 190.67744,99.175133 190.49651,100.65922 190.8044,101.64812 C 191.11228,102.63701 190.76451,104.21201 190.03157,105.14812 C 188.832,106.6802 188.87367,106.7131 190.44895,105.47769 C 192.01964,104.24587 192.19895,104.37395 192.19895,106.72769 C 192.19895,108.17003 192.41827,109.35013 192.68632,109.35013 C 192.95437,109.35013 192.99359,106.98763 192.77348,104.10013 z M 191.19895,100.85013 C 191.19895,100.57513 191.42395,100.35013 191.69895,100.35013 C 191.97395,100.35013 192.19895,100.57513 192.19895,100.85013 C 192.19895,101.12513 191.97395,101.35013 191.69895,101.35013 C 191.42395,101.35013 191.19895,101.12513 191.19895,100.85013 z M 231.19895,106.85013 C 231.19895,106.57513 230.97395,106.35013 230.69895,106.35013 C 230.42395,106.35013 230.19895,106.57513 230.19895,106.85013 C 230.19895,107.12513 230.42395,107.35013 230.69895,107.35013 C 230.97395,107.35013 231.19895,107.12513 231.19895,106.85013 z M 231.86562,103.89412 C 231.86562,103.09331 231.49062,102.66987 231.03228,102.95314 C 229.95228,103.62062 229.95228,105.35013 231.03228,105.35013 C 231.49062,105.35013 231.86562,104.69492 231.86562,103.89412 z M 202.49983,102.23605 C 204.24198,99.472213 202.60218,97.166497 199.26811,97.691953 C 195.72279,98.250702 194.19895,99.104326 194.19895,100.53159 C 194.19895,101.20218 194.75306,101.13515 195.69895,100.35013 C 196.96387,99.300344 197.19895,99.494843 197.19895,101.59115 C 197.19895,103.50055 197.69564,104.05074 199.34068,103.96359 C 200.51863,103.90119 201.94025,103.1238 202.49983,102.23605 z M 230.19895,101.85013 C 230.19895,101.57513 229.97395,101.35013 229.69895,101.35013 C 229.42395,101.35013 229.19895,101.57513 229.19895,101.85013 C 229.19895,102.12513 229.42395,102.35013 229.69895,102.35013 C 229.97395,102.35013 230.19895,102.12513 230.19895,101.85013 z M 184.19895,100.85013 C 184.19895,100.57513 183.97395,100.35013 183.69895,100.35013 C 183.42395,100.35013 183.19895,100.57513 183.19895,100.85013 C 183.19895,101.12513 183.42395,101.35013 183.69895,101.35013 C 183.97395,101.35013 184.19895,101.12513 184.19895,100.85013 z M 188.19895,100.85013 C 188.19895,100.57513 187.97395,100.35013 187.69895,100.35013 C 187.42395,100.35013 187.19895,100.57513 187.19895,100.85013 C 187.19895,101.12513 187.42395,101.35013 187.69895,101.35013 C 187.97395,101.35013 188.19895,101.12513 188.19895,100.85013 z M 187.19895,95.881518 C 187.19895,93.209147 186.85461,92.545036 185.69895,92.988507 C 184.87395,93.305089 184.23058,94.528466 184.26924,95.707122 C 184.33759,97.791355 184.36309,97.795277 185.19895,95.850133 C 185.96051,94.077883 186.06638,94.163289 186.12866,96.600133 C 186.23136,100.61808 187.19895,99.968423 187.19895,95.881518 z M 194.80312,94.620966 C 194.47082,94.288675 194.23448,94.8793 194.2779,95.933466 C 194.32588,97.098409 194.56284,97.335366 194.88206,96.537633 C 195.17093,95.815758 195.13541,94.953258 194.80312,94.620966 z M 122.68767,93.727009 C 123.63297,92.284291 123.91215,91.409354 123.30805,91.782703 C 122.15366,92.496158 119.82538,96.350133 120.54876,96.350133 C 120.77985,96.350133 121.74236,95.169727 122.68767,93.727009 z M 189.80312,92.620966 C 189.47082,92.288675 189.23448,92.8793 189.2779,93.933466 C 189.32588,95.098409 189.56284,95.335366 189.88206,94.537633 C 190.17093,93.815758 190.13541,92.953258 189.80312,92.620966 z M 200.19895,94.850133 C 200.19895,94.575133 199.97395,94.350133 199.69895,94.350133 C 199.42395,94.350133 199.19895,94.575133 199.19895,94.850133 C 199.19895,95.125133 199.42395,95.350133 199.69895,95.350133 C 199.97395,95.350133 200.19895,95.125133 200.19895,94.850133 z M 179.86562,92.683466 C 179.49895,92.3168 179.19895,92.6168 179.19895,93.350133 C 179.19895,94.083466 179.49895,94.383466 179.86562,94.0168 C 180.23228,93.650133 180.23228,93.050133 179.86562,92.683466 z M 182.86562,92.683466 C 182.49895,92.3168 182.19895,92.6168 182.19895,93.350133 C 182.19895,94.083466 182.49895,94.383466 182.86562,94.0168 C 183.23228,93.650133 183.23228,93.050133 182.86562,92.683466 z M 178.19895,91.850133 C 178.19895,91.575133 177.97395,91.350133 177.69895,91.350133 C 177.42395,91.350133 177.19895,91.575133 177.19895,91.850133 C 177.19895,92.125133 177.42395,92.350133 177.69895,92.350133 C 177.97395,92.350133 178.19895,92.125133 178.19895,91.850133 z M 183.86562,89.683466 C 183.49895,89.3168 183.19895,89.6168 183.19895,90.350133 C 183.19895,91.083466 183.49895,91.383466 183.86562,91.0168 C 184.23228,90.650133 184.23228,90.050133 183.86562,89.683466 z M 187.85489,87.081101 C 187.58096,86.404069 187.37352,87.200133 187.3939,88.850133 C 187.41428,90.500133 187.6384,91.054069 187.89194,90.081101 C 188.14548,89.108134 188.12881,87.758134 187.85489,87.081101 z M 178.20289,85.371668 C 177.77749,83.04534 177.85731,81.350133 178.39224,81.350133 C 178.90085,81.350133 179.04205,80.905287 178.70603,80.361587 C 178.35496,79.793551 178.75891,79.62778 179.65564,79.971889 C 180.51396,80.301254 181.47669,81.7586 181.79505,83.210434 C 182.11341,84.662269 182.48839,86.300133 182.62834,86.850133 C 182.76828,87.400133 183.0975,86.411399 183.35992,84.652946 C 183.62235,82.894493 183.53429,81.642882 183.16423,81.871589 C 182.79418,82.100296 181.96514,81.132399 181.32193,79.720707 C 180.59946,78.135055 179.60748,77.363126 178.72663,77.701136 C 177.73941,78.079969 177.46217,77.725618 177.82538,76.549205 C 178.31198,74.973165 178.27168,74.971147 177.26886,76.521341 C 176.67425,77.440505 176.24347,79.690505 176.31157,81.521341 C 176.37967,83.352176 176.14795,85.975133 175.79664,87.350133 C 175.25967,89.451813 175.3093,89.531477 176.10814,87.850133 C 177.01437,85.942763 177.06163,85.957075 177.12866,88.15915 C 177.16732,89.429109 177.5903,90.2263 178.06861,89.930685 C 178.54693,89.63507 178.60735,87.583513 178.20289,85.371668 z M 180.1919,82.621685 C 179.21774,81.095194 179.13814,81.195961 179.61649,83.350133 C 179.92182,84.725133 180.2498,86.975133 180.34533,88.350133 C 180.48045,90.294946 180.60823,90.133176 180.92074,87.621685 C 181.14168,85.846038 180.8137,83.596038 180.1919,82.621685 z M 185.86123,86.100133 C 185.58382,85.412633 185.35684,85.975133 185.35684,87.350133 C 185.35684,88.725133 185.58382,89.287633 185.86123,88.600133 C 186.13864,87.912633 186.13864,86.787633 185.86123,86.100133 z M 128.99502,85.897642 C 130.67059,85.765832 133.31444,85.173145 134.87023,84.580561 C 136.42603,83.987977 141.27923,83.007645 145.65513,82.402044 C 150.03103,81.796444 153.94275,80.764668 154.34785,80.109208 C 154.88769,79.235722 156.23466,79.528804 159.39167,81.206681 C 161.76067,82.46575 162.82544,82.788101 161.75782,81.923015 C 160.6902,81.05793 159.3402,80.343242 158.75782,80.33482 C 156.36832,80.300265 160.91293,78.379553 163.41757,78.365446 C 165.52086,78.353599 166.0267,77.954043 165.65248,76.600133 C 165.38645,75.637633 165.81283,76.200133 166.59998,77.850133 L 168.03117,80.850133 L 169.11506,78.035033 C 170.45816,74.546701 170.5027,72.350133 169.23033,72.350133 C 168.6976,72.350133 168.53784,73.069692 168.87532,73.949152 C 169.40762,75.336293 169.21349,75.376164 167.4103,74.250052 C 166.26706,73.536086 165.35511,72.704028 165.38374,72.401033 C 165.57327,70.395177 164.6784,70.65599 160.54665,73.810814 C 154.97879,78.062195 148.78572,80.037567 136.75059,81.400924 C 127.64479,82.432443 124.18348,84.048799 124.21426,87.255121 C 124.22651,88.531079 124.4015,88.578806 125.08905,87.493715 C 125.56176,86.747685 127.31945,86.029452 128.99502,85.897642 z M 175.19895,82.159003 C 175.19895,81.714125 174.67395,81.350133 174.03228,81.350133 C 173.39062,81.350133 173.14978,81.6343 173.4971,81.981616 C 173.84442,82.328932 173.66959,83.566432 173.1086,84.731616 C 172.11717,86.790827 172.13215,86.795793 173.64378,84.909003 C 174.49913,83.841382 175.19895,82.603882 175.19895,82.159003 z M 172.19895,81.150133 C 172.19895,78.82403 171.89873,78.250354 171.09961,79.04947 C 170.49498,79.654105 170.3003,81.094105 170.667,82.24947 C 171.62182,85.257849 172.19895,84.843699 172.19895,81.150133 z M 213.86562,83.683466 C 213.49895,83.3168 212.89895,83.3168 212.53228,83.683466 C 212.16562,84.050133 212.46562,84.350133 213.19895,84.350133 C 213.93228,84.350133 214.23228,84.050133 213.86562,83.683466 z M 219.19895,83.850133 C 219.19895,83.575133 218.97395,83.350133 218.69895,83.350133 C 218.42395,83.350133 218.19895,83.575133 218.19895,83.850133 C 218.19895,84.125133 218.42395,84.350133 218.69895,84.350133 C 218.97395,84.350133 219.19895,84.125133 219.19895,83.850133 z M 219.13426,81.195778 C 221.12316,79.34283 221.56573,79.254151 222.2976,80.561927 C 223.41857,82.564989 227.8681,81.723307 228.47751,79.392923 C 228.73046,78.425625 228.51702,76.782784 228.00319,75.742166 C 227.09951,73.912021 227.11789,73.910555 228.56527,75.697332 C 229.38824,76.713292 229.81935,78.175792 229.52328,78.947332 C 229.22721,79.718873 229.50968,80.350133 230.15098,80.350133 C 230.79228,80.350133 231.06262,79.938568 230.75174,79.435543 C 230.44085,78.932519 230.67158,78.359255 231.26448,78.161625 C 231.90343,77.948639 231.45682,76.590236 230.16787,74.826214 C 228.04586,71.922082 228.06732,71.927986 231.05547,75.070414 C 234.94994,79.165955 236.12981,77.614521 232.45564,73.229315 C 229.80085,70.060771 230.8048,70.02736 234.45508,73.162773 C 237.47739,75.758795 237.57104,73.602984 234.56023,70.741952 C 231.35846,67.699449 233.43344,68.508397 236.94895,71.673213 C 239.98331,74.40488 239.98331,71.842081 236.94895,68.503334 C 234.66771,65.993258 236.24518,66.405855 239.44895,69.157225 C 241.71197,71.100687 241.71197,69.61701 239.44895,66.928874 L 237.69895,64.850133 L 239.97258,66.776504 C 241.57542,68.134542 242.55922,68.389862 243.30717,67.641915 C 244.05512,66.893968 243.35648,65.809335 240.93915,63.965544 C 239.05321,62.527068 236.94136,61.350133 236.24615,61.350133 C 234.75787,61.350133 235.72086,56.263645 237.40635,55.221953 C 237.98321,54.865436 238.103,54.003899 237.67256,53.307428 C 237.16301,52.482958 237.29276,52.29008 238.04444,52.754641 C 239.40186,53.593571 239.60234,56.350133 238.30594,56.350133 C 237.81478,56.350133 237.15168,57.03093 236.83238,57.863015 C 236.20297,59.503222 243.7814,65.726225 245.2802,64.799917 C 246.61196,63.976844 245.29698,61.740554 242.64742,60.322555 C 241.30242,59.602732 240.40038,58.815373 240.64288,58.572868 C 240.88539,58.330363 242.45971,59.111684 244.14137,60.309136 C 246.53437,62.013098 247.19895,62.1636 247.19895,61.001561 C 247.19895,60.184942 246.63645,59.258454 245.94895,58.942697 C 245.26145,58.626941 245.77733,58.640676 247.09536,58.973219 C 249.15884,59.493845 249.41491,59.283984 248.93861,57.462608 C 248.63438,56.299229 248.7935,55.599552 249.29221,55.90777 C 250.79608,56.837211 250.3136,55.14267 248.44895,52.946107 C 246.85257,51.065563 246.84962,51.001113 248.41533,52.211907 C 250.92404,54.15194 252.88924,53.183281 250.76145,51.05549 C 249.8235,50.117544 249.44824,49.350133 249.92752,49.350133 C 250.40681,49.350133 251.33895,49.890133 251.99895,50.550133 C 252.93228,51.483466 253.19895,51.472601 253.19895,50.501241 C 253.19895,49.81435 251.28645,48.384233 248.94895,47.323203 C 246.61145,46.262173 245.37395,45.386946 246.19895,45.378256 C 247.02395,45.369565 249.0034,46.042731 250.59773,46.874179 C 252.19206,47.705628 253.71869,48.16373 253.99023,47.892184 C 254.80366,47.078752 251.95419,44.207574 249.35136,43.217979 C 248.01498,42.709888 247.18531,42.030436 247.50766,41.708087 C 247.83001,41.385738 249.69242,42.11003 251.64635,43.317625 C 254.3991,45.018915 255.19895,45.187758 255.19895,44.06755 C 255.19895,42.21084 246.8398,38.994472 243.61598,39.610745 C 242.26036,39.869888 240.86481,39.579763 240.51476,38.966024 C 240.16471,38.352284 240.24345,38.180638 240.68975,38.584589 C 242.03593,39.803045 244.2024,36.059217 242.99382,34.602968 C 242.27065,33.731604 242.2807,33.350133 243.02682,33.350133 C 243.61683,33.350133 244.54167,34.137633 245.08201,35.100133 C 245.98882,36.715411 246.11405,36.721427 246.7087,35.178274 C 247.06304,34.258751 246.80283,32.458751 246.13044,31.178274 C 244.92852,28.889335 244.94239,28.880697 246.95416,30.665276 C 249.72536,33.123513 250.89399,31.045169 248.23542,28.386608 C 247.11536,27.266547 246.55895,26.350133 246.99895,26.350133 C 247.43895,26.350133 248.33145,26.882633 248.98228,27.533466 C 249.63312,28.1843 250.51062,28.370564 250.93228,27.947387 C 251.35395,27.52421 250.57395,26.25679 249.19895,25.130898 L 246.69895,23.083822 L 249.19895,23.836031 C 251.69433,24.586849 251.69525,24.584612 249.69895,22.625967 C 248.59895,21.546717 246.79895,20.760713 245.69895,20.87929 C 244.59895,20.997868 242.96747,21.152317 242.07343,21.22251 C 241.17939,21.292703 237.18588,24.275133 233.19895,27.850133 C 229.21202,31.425133 225.44351,34.359741 224.82447,34.371484 C 223.5552,34.395563 218.19895,41.581201 218.19895,43.259909 C 218.19895,43.859532 217.86145,44.296844 217.44895,44.231712 C 215.47348,43.919796 214.84953,44.47807 216.19895,45.350133 C 217.52428,46.206628 217.5203,46.321291 216.16479,46.33482 C 215.321,46.343242 212.171,48.880318 209.16479,51.972767 C 206.15858,55.065216 200.99895,59.335941 197.69895,61.463267 C 191.19791,65.654126 191.17055,65.622828 201.19895,65.467707 C 207.95996,65.363127 214.21889,67.468762 217.82967,71.062633 C 219.60486,72.829508 221.24041,73.954508 221.46422,73.562633 C 221.68804,73.170758 221.70906,73.477711 221.51094,74.244751 C 221.31283,75.011791 221.94908,76.579036 222.92484,77.727518 C 224.16235,79.184081 224.22408,79.450945 223.12893,78.609823 C 221.84112,77.620735 220.94235,77.931098 218.12893,80.336415 C 216.24244,81.949255 215.1766,83.28714 215.76039,83.309492 C 216.34418,83.331845 217.86242,82.380673 219.13426,81.195778 z M 223.83512,71.855877 C 224.15049,71.034036 224.81871,70.61513 225.32005,70.924975 C 226.36863,71.573036 225.52687,73.350133 224.17132,73.350133 C 223.67104,73.350133 223.51975,72.677718 223.83512,71.855877 z M 227.2779,69.933466 C 227.23448,68.8793 227.47082,68.288675 227.80312,68.620966 C 228.13541,68.953258 228.17093,69.815758 227.88206,70.537633 C 227.56284,71.335366 227.32588,71.098409 227.2779,69.933466 z M 230.2779,66.933466 C 230.23448,65.8793 230.47082,65.288675 230.80312,65.620966 C 231.13541,65.953258 231.17093,66.815758 230.88206,67.537633 C 230.56284,68.335366 230.32588,68.098409 230.2779,66.933466 z M 232.2779,64.68192 C 232.23448,64.039404 231.93997,62.689404 231.62344,61.68192 C 231.07639,59.940701 231.10461,59.93852 232.19422,61.637809 C 232.82467,62.621031 233.11918,63.971031 232.84867,64.637809 C 232.49369,65.512806 232.33488,65.52508 232.2779,64.68192 z M 195.19895,63.957122 C 195.19895,63.740966 195.87395,63.305089 196.69895,62.988507 C 197.52395,62.671924 198.19895,62.848779 198.19895,63.381518 C 198.19895,63.914256 197.52395,64.350133 196.69895,64.350133 C 195.87395,64.350133 195.19895,64.173278 195.19895,63.957122 z M 204.42514,59.77141 C 205.37455,58.780184 206.36658,58.18443 206.62966,58.447512 C 206.89274,58.710594 206.11596,59.521597 204.90347,60.249742 C 202.79716,61.51466 202.77585,61.49335 204.42514,59.77141 z M 211.53228,52.683466 C 211.89895,52.3168 212.49895,52.3168 212.86562,52.683466 C 213.23228,53.050133 212.93228,53.350133 212.19895,53.350133 C 211.46562,53.350133 211.16562,53.050133 211.53228,52.683466 z M 239.19895,51.40915 C 239.19895,50.826691 239.64895,50.350133 240.19895,50.350133 C 241.48033,50.350133 241.48033,51.058194 240.19895,51.850133 C 239.64895,52.190052 239.19895,51.991609 239.19895,51.40915 z M 213.19895,50.850133 C 213.19895,50.575133 213.42395,50.350133 213.69895,50.350133 C 213.97395,50.350133 214.19895,50.575133 214.19895,50.850133 C 214.19895,51.125133 213.97395,51.350133 213.69895,51.350133 C 213.42395,51.350133 213.19895,51.125133 213.19895,50.850133 z M 214.19895,48.40915 C 214.19895,47.826691 214.64895,47.350133 215.19895,47.350133 C 216.48033,47.350133 216.48033,48.058194 215.19895,48.850133 C 214.64895,49.190052 214.19895,48.991609 214.19895,48.40915 z M 240.59402,45.417796 C 240.65173,43.838716 241.03645,42.754062 241.44895,43.007454 C 242.47467,43.637536 242.39803,47.109062 241.34402,47.760475 C 240.87381,48.051082 240.53631,46.996877 240.59402,45.417796 z M 156.19895,80.850133 C 156.19895,80.575133 155.97395,80.350133 155.69895,80.350133 C 155.42395,80.350133 155.19895,80.575133 155.19895,80.850133 C 155.19895,81.125133 155.42395,81.350133 155.69895,81.350133 C 155.97395,81.350133 156.19895,81.125133 156.19895,80.850133 z M 165.86562,79.683466 C 165.49895,79.3168 164.89895,79.3168 164.53228,79.683466 C 164.16562,80.050133 164.46562,80.350133 165.19895,80.350133 C 165.93228,80.350133 166.23228,80.050133 165.86562,79.683466 z M 175.19895,78.291116 C 175.19895,77.773575 174.74895,77.350133 174.19895,77.350133 C 173.64895,77.350133 173.19895,78.051691 173.19895,78.90915 C 173.19895,79.766609 173.64895,80.190052 174.19895,79.850133 C 174.74895,79.510214 175.19895,78.808657 175.19895,78.291116 z M 185.19895,77.850133 C 185.19895,77.575133 184.97395,77.350133 184.69895,77.350133 C 184.42395,77.350133 184.19895,77.575133 184.19895,77.850133 C 184.19895,78.125133 184.42395,78.350133 184.69895,78.350133 C 184.97395,78.350133 185.19895,78.125133 185.19895,77.850133 z M 172.19895,76.850133 C 172.19895,76.575133 171.97395,76.350133 171.69895,76.350133 C 171.42395,76.350133 171.19895,76.575133 171.19895,76.850133 C 171.19895,77.125133 171.42395,77.350133 171.69895,77.350133 C 171.97395,77.350133 172.19895,77.125133 172.19895,76.850133 z M 193.19895,76.850133 C 193.19895,76.575133 192.97395,76.350133 192.69895,76.350133 C 192.42395,76.350133 192.19895,76.575133 192.19895,76.850133 C 192.19895,77.125133 192.42395,77.350133 192.69895,77.350133 C 192.97395,77.350133 193.19895,77.125133 193.19895,76.850133 z M 181.19895,71.732099 C 181.19895,71.457099 180.74895,71.510214 180.19895,71.850133 C 179.64895,72.190052 179.19895,72.693167 179.19895,72.968167 C 179.19895,73.243167 179.64895,73.190052 180.19895,72.850133 C 180.74895,72.510214 181.19895,72.007099 181.19895,71.732099 z M 187.65191,72.100133 C 187.38556,71.412633 185.818,70.079726 184.16844,69.138118 C 181.22785,67.459558 181.19035,67.465545 182.24947,69.444525 C 183.10863,71.049893 185.28053,72.522153 187.91757,73.286747 C 188.0378,73.321609 187.91826,72.787633 187.65191,72.100133 z M 167.54047,67.100133 C 166.63721,64.762633 165.44963,62.400133 164.90139,61.850133 C 164.23863,61.185249 164.171,61.520364 164.69956,62.850133 C 165.1368,63.950133 165.98814,66.312633 166.59143,68.100133 C 167.19473,69.887633 168.02458,71.350133 168.43554,71.350133 C 168.84651,71.350133 168.44373,69.437633 167.54047,67.100133 z M 174.55483,60.116935 C 174.24895,59.62201 173.76288,59.452874 173.47467,59.741077 C 173.18647,60.029281 172.17823,59.311171 171.23415,58.145277 C 169.90253,56.500799 169.33514,56.320748 168.70378,57.34231 C 168.17694,58.194767 168.27938,58.418461 168.99427,57.976633 C 169.60165,57.601249 170.54688,58.13172 171.09476,59.155458 C 171.64265,60.179196 172.77043,61.0168 173.60095,61.0168 C 174.43146,61.0168 174.86071,60.611861 174.55483,60.116935 z M 163.19895,59.850133 C 163.19895,59.575133 162.97395,59.350133 162.69895,59.350133 C 162.42395,59.350133 162.19895,59.575133 162.19895,59.850133 C 162.19895,60.125133 162.42395,60.350133 162.69895,60.350133 C 162.97395,60.350133 163.19895,60.125133 163.19895,59.850133 z M 165.19895,58.850133 C 165.19895,58.575133 164.97395,58.350133 164.69895,58.350133 C 164.42395,58.350133 164.19895,58.575133 164.19895,58.850133 C 164.19895,59.125133 164.42395,59.350133 164.69895,59.350133 C 164.97395,59.350133 165.19895,59.125133 165.19895,58.850133 z M 160.61513,56.257509 C 159.57354,55.106566 157.81629,53.707194 156.71014,53.147795 C 155.60398,52.588395 156.27395,53.511788 158.19895,55.199778 C 162.28294,58.780943 163.30288,59.22744 160.61513,56.257509 z M 151.86562,48.683466 C 151.49895,48.3168 150.89895,48.3168 150.53228,48.683466 C 150.16562,49.050133 150.46562,49.350133 151.19895,49.350133 C 151.93228,49.350133 152.23228,49.050133 151.86562,48.683466 z M 152.69895,44.350133 C 152.35903,43.800133 151.54497,43.357024 150.88993,43.365446 C 150.17432,43.374647 150.29766,43.767673 151.19895,44.350133 C 153.12007,45.591658 153.46625,45.591658 152.69895,44.350133 z M 128.19895,30.795104 C 128.19895,30.014136 118.39892,25.769462 113.65598,24.496123 L 109.69895,23.433781 L 112.05973,25.391957 C 113.35817,26.468954 115.19567,27.350133 116.14307,27.350133 C 117.09047,27.350133 118.19983,27.684349 118.60832,28.092836 C 119.01681,28.501323 121.22931,29.34255 123.52499,29.962229 C 125.82067,30.581908 127.81145,31.147692 127.94895,31.219526 C 128.08645,31.29136 128.19895,31.10037 128.19895,30.795104 z M 34.688866,179.33382 C 34.343406,178.77485 33.630866,178.58319 33.105446,178.90791 C 31.856886,179.67957 26.198946,178.42934 26.198946,177.38179 C 26.198946,176.9366 26.969206,176.63485 27.910636,176.71124 C 28.852056,176.78763 29.776546,176.10683 29.965036,175.19835 C 30.275926,173.7 29.933706,173.67544 26.280716,174.934 C 23.452176,175.90851 21.501486,176.03545 19.726306,175.36053 C 16.743586,174.2265 16.290376,172.92699 19.199636,173.85035 C 20.469176,174.25328 22.317456,173.68987 24.257206,172.30864 C 28.146486,169.53923 27.541926,168.89105 22.884606,170.837 C 18.418526,172.70305 12.813286,172.79529 11.345636,171.02688 C 10.468606,169.97013 10.822246,169.788 13.101586,170.12253 C 14.671376,170.35293 17.247966,169.85962 18.827346,169.02629 C 21.602046,167.56228 21.488646,167.52994 15.466806,168.06791 C 11.196026,168.44945 8.7569757,168.22822 7.7168057,167.36495 C 5.2403057,165.30964 5.9872157,164.39879 8.9489457,165.86238 C 10.853056,166.80333 12.775536,166.96504 15.198946,166.3881 L 18.698946,165.55485 L 15.648946,165.45249 C 12.586956,165.34973 10.198946,163.81511 10.198946,161.95013 C 10.198946,161.39457 10.732276,161.48346 11.398946,162.15013 C 14.482956,165.23414 26.380866,161.87585 34.649566,155.58745 C 37.935726,153.08831 42.136776,150.70246 43.985236,150.28556 C 45.833686,149.86867 56.087956,149.78097 66.772506,150.09069 L 86.198946,150.6538 L 86.198946,146.94459 C 86.198946,144.90453 86.704966,140.17134 87.323426,136.4264 C 88.090256,131.78307 88.125616,129.04152 87.434606,127.80676 C 86.516546,126.16626 86.082386,126.36515 82.814906,129.92311 L 79.208506,133.85013 L 79.203726,131.15915 C 79.201096,129.67911 79.589836,128.22658 80.067596,127.93131 C 80.545346,127.63604 81.222266,125.60577 81.571846,123.4196 C 82.276096,119.01547 84.152966,117.42752 87.824586,118.1294 C 91.521776,118.83616 92.491906,121.68462 91.775876,129.731 C 91.294896,135.13605 91.510696,137.57244 92.672166,139.85013 L 94.201966,142.85013 L 92.092616,140.35616 C 90.196506,138.11433 90.050516,137.09113 90.648586,130.23507 C 91.193926,123.98333 91.027886,122.32193 89.727806,121.02185 C 88.631066,119.92511 87.472236,119.68341 85.971826,120.23844 C 83.034736,121.32494 82.628896,123.03422 85.332166,122.93248 C 88.230226,122.82341 89.445506,127.05494 88.642976,134.46049 C 87.793836,142.29609 90.979026,152.97005 93.433826,150.51525 C 94.555566,149.39351 100.99583,150.71826 102.57121,152.3948 C 103.44078,153.3202 103.2411,153.37 101.69895,152.61232 C 100.0463,151.80036 82.411746,151.27002 49.507496,151.04273 C 45.497786,151.01503 43.384066,151.62362 40.221836,153.71629 C 37.970016,155.20647 36.395226,156.8587 36.722296,157.38792 C 37.542426,158.71491 43.475736,158.5958 46.883846,157.18392 C 48.432156,156.54251 49.923946,155.9423 50.198946,155.85013 C 50.473946,155.75796 51.965746,155.15775 53.514046,154.51634 C 57.741346,152.7651 58.843706,153.0344 63.067266,156.85013 C 67.136006,160.52599 69.408046,161.54606 67.071396,158.64785 C 65.778956,157.04482 65.843096,157.04482 68.171456,158.64785 C 71.368756,160.84914 72.803856,160.82591 71.119616,158.60013 C 69.993066,157.11136 70.004646,157.03672 71.197176,158.10013 C 71.968146,158.78763 73.521446,159.34324 74.648946,159.33482 C 76.338896,159.32219 76.435496,159.14925 75.198946,158.35013 C 74.373946,157.81697 74.148946,157.38076 74.698946,157.38076 C 75.248946,157.38076 76.338756,157.7857 77.120746,158.28064 C 78.167146,158.94292 77.393116,159.49003 74.189136,160.35277 C 71.431686,161.09528 68.160956,163.13865 65.267336,165.92663 C 60.835036,170.19712 48.142106,177.35013 44.996476,177.35013 C 44.142166,177.35013 41.827696,178.02513 39.853186,178.85013 C 35.593236,180.63005 35.495636,180.6392 34.688866,179.33382 z M 37.198946,177.85013 C 37.198946,177.57513 36.973946,177.35013 36.698946,177.35013 C 36.423946,177.35013 36.198946,177.57513 36.198946,177.85013 C 36.198946,178.12513 36.423946,178.35013 36.698946,178.35013 C 36.973946,178.35013 37.198946,178.12513 37.198946,177.85013 z M 20.865616,164.68346 C 20.498946,164.3168 19.898946,164.3168 19.532276,164.68346 C 19.165616,165.05013 19.465616,165.35013 20.198946,165.35013 C 20.932276,165.35013 21.232276,165.05013 20.865616,164.68346 z M 111.19895,163.85013 C 111.19895,163.57513 111.42395,163.35013 111.69895,163.35013 C 111.97395,163.35013 112.19895,163.57513 112.19895,163.85013 C 112.19895,164.12513 111.97395,164.35013 111.69895,164.35013 C 111.42395,164.35013 111.19895,164.12513 111.19895,163.85013 z M 114.90698,162.01352 C 115.25504,161.45036 114.90443,161.24917 114.10773,161.55489 C 113.32711,161.85444 112.03053,161.39526 111.22644,160.53448 C 109.93098,159.14768 109.96937,159.04806 111.56349,159.65978 C 112.55296,160.03947 113.95258,160.35013 114.67375,160.35013 C 115.39492,160.35013 116.21521,160.95013 116.49662,161.68346 C 116.77803,162.4168 116.39597,163.0168 115.6476,163.0168 C 114.89923,163.0168 114.56595,162.56532 114.90698,162.01352 z M 141.19895,154.85013 C 141.19895,154.57513 142.09895,153.45013 143.19895,152.35013 C 144.29895,151.25013 145.19895,150.55364 145.19895,150.80238 C 145.19895,151.05112 146.38966,150.15112 147.84497,148.80238 C 149.30029,147.45364 150.87529,146.35013 151.34497,146.35013 C 151.81466,146.35013 152.19895,145.67513 152.19895,144.85013 C 152.19895,144.02513 152.53645,143.41963 152.94895,143.50457 C 153.36145,143.58952 155.42364,142.89294 157.5316,141.95662 C 161.90034,140.0161 161.5748,138.9816 155.39312,135.16112 L 151.81212,132.94794 L 155.00554,132.12044 C 159.44935,130.96894 158.98948,129.69576 153.85143,128.92527 C 145.7811,127.71505 139.03716,130.05593 126.69895,138.35013 C 122.84895,140.93824 118.12395,143.85981 116.19895,144.84249 C 114.27395,145.82518 112.44001,147.02836 112.12352,147.51622 C 111.38428,148.65575 106.79352,148.79377 101.69895,147.82961 C 97.444006,147.02436 95.198946,145.73798 95.198946,144.10524 C 95.198946,143.55046 95.871386,143.66332 96.709306,144.35873 C 97.539996,145.04814 100.2521,145.99191 102.73618,146.45599 C 108.68084,147.56657 114.28899,145.36117 127.04313,136.8973 C 132.84775,133.04526 139.05035,129.81829 142.59443,128.80658 C 148.33735,127.16718 149.91477,127.17786 162.44088,128.94097 C 165.65106,129.39281 167.66995,129.20412 168.69088,128.35683 C 169.65331,127.55808 170.19895,127.49338 170.19895,128.178 C 170.19895,128.76801 169.41145,129.70943 168.44895,130.27003 C 166.98053,131.1253 167.18609,131.29421 169.72644,131.31972 C 171.39157,131.33645 173.75407,130.64961 174.97644,129.79343 C 176.19882,128.93724 177.19895,128.65714 177.19895,129.17098 C 177.19895,130.45504 175.10214,132.04468 172.69895,132.58252 C 171.02883,132.95629 171.1838,133.16471 173.63853,133.84612 C 175.32447,134.31411 178.20314,134.22836 180.38853,133.64505 C 182.48426,133.08567 184.19895,133.0069 184.19895,133.47001 C 184.19895,133.93312 182.96145,134.58496 181.44895,134.91855 C 176.71334,135.96301 176.62564,136.08258 179.69895,137.30467 C 181.34895,137.96078 183.93645,138.31736 185.44895,138.09706 C 188.8985,137.59462 189.00213,138.66315 185.6519,140.18961 C 182.33101,141.70271 181.29697,141.64963 177.71562,139.78222 C 171.40024,136.48921 158.97732,140.9472 148.02791,150.43572 C 142.68419,155.06647 141.19895,156.02657 141.19895,154.85013 z M 131.19895,152.85013 C 131.19895,152.57513 131.42395,152.35013 131.69895,152.35013 C 131.97395,152.35013 132.19895,152.57513 132.19895,152.85013 C 132.19895,153.12513 131.97395,153.35013 131.69895,153.35013 C 131.42395,153.35013 131.19895,153.12513 131.19895,152.85013 z M 133.26256,152.85013 C 133.26256,152.30013 133.92325,150.97662 134.73075,149.909 C 135.53826,148.84138 136.19895,148.41787 136.19895,148.96787 C 136.19895,149.51787 135.53826,150.84138 134.73075,151.909 C 133.92325,152.97662 133.26256,153.40013 133.26256,152.85013 z M 123.19895,150.35013 C 122.29766,149.76767 122.17432,149.37464 122.88993,149.36544 C 123.54497,149.35702 124.35903,149.80013 124.69895,150.35013 C 125.46625,151.59166 125.12007,151.59166 123.19895,150.35013 z M 118.69895,148.35013 C 118.35903,147.80013 118.53092,147.35013 119.08092,147.35013 C 119.63092,147.35013 120.35903,147.80013 120.69895,148.35013 C 121.03887,148.90013 120.86698,149.35013 120.31698,149.35013 C 119.76698,149.35013 119.03887,148.90013 118.69895,148.35013 z M 137.53228,147.68346 C 137.89895,147.3168 138.49895,147.3168 138.86562,147.68346 C 139.23228,148.05013 138.93228,148.35013 138.19895,148.35013 C 137.46562,148.35013 137.16562,148.05013 137.53228,147.68346 z M 140.93016,145.26997 C 141.28377,143.91777 141.73706,143.46447 141.98671,144.21342 C 142.22719,144.93486 141.9485,146.00058 141.3674,146.58168 C 140.62533,147.32375 140.49519,146.93332 140.93016,145.26997 z M 144.19895,140.35013 C 144.19895,139.6168 144.49895,139.3168 144.86562,139.68346 C 145.23228,140.05013 145.23228,140.65013 144.86562,141.0168 C 144.49895,141.38346 144.19895,141.08346 144.19895,140.35013 z M 146.19895,139.35013 C 146.19895,138.6168 146.49895,138.3168 146.86562,138.68346 C 147.23228,139.05013 147.23228,139.65013 146.86562,140.0168 C 146.49895,140.38346 146.19895,140.08346 146.19895,139.35013 z M 149.19895,136.85013 C 149.19895,136.57513 149.42395,136.35013 149.69895,136.35013 C 149.97395,136.35013 150.19895,136.57513 150.19895,136.85013 C 150.19895,137.12513 149.97395,137.35013 149.69895,137.35013 C 149.42395,137.35013 149.19895,137.12513 149.19895,136.85013 z M 151.19895,134.85013 C 151.19895,134.57513 151.42395,134.35013 151.69895,134.35013 C 151.97395,134.35013 152.19895,134.57513 152.19895,134.85013 C 152.19895,135.12513 151.97395,135.35013 151.69895,135.35013 C 151.42395,135.35013 151.19895,135.12513 151.19895,134.85013 z M 85.698946,16.142316 C 81.965166,14.000995 79.426976,8.3501326 82.198946,8.3501326 C 82.748946,8.3501326 83.198946,8.8912093 83.198946,9.5525256 C 83.198946,10.213842 84.637226,12.238842 86.395116,14.052526 C 89.631246,17.39137 89.349846,18.236105 85.698946,16.142316 z M 290.19895,14.850133 C 290.19895,14.575133 290.42395,14.350133 290.69895,14.350133 C 290.97395,14.350133 291.19895,14.575133 291.19895,14.850133 C 291.19895,15.125133 290.97395,15.350133 290.69895,15.350133 C 290.42395,15.350133 290.19895,15.125133 290.19895,14.850133 z " id="path2171"/>
  <metadata>
    <rdf:RDF>
      <cc:Work>
        <dc:format>image/svg+xml</dc:format>
        <dc:type rdf:resource="http://purl.org/dc/dcmitype/StillImage"/>
        <cc:license rdf:resource="http://creativecommons.org/licenses/publicdomain/"/>
        <dc:publisher>
          <cc:Agent rdf:about="http://openclipart.org/">
            <dc:title>Open Clip Art Library</dc:title>
          </cc:Agent>
        </dc:publisher>
        <dc:title>Whooping Crane 2</dc:title>
        <dc:date>2007-01-05T18:51:07</dc:date>
        <dc:description/>
        <dc:source>http://openclipart.org/detail/2794/whooping-crane-2-by-molumen</dc:source>
        <dc:creator>
          <cc:Agent>
            <dc:title>molumen</dc:title>
          </cc:Agent>
        </dc:creator>
        <dc:subject>
          <rdf:Bag>
            <rdf:li>animal</rdf:li>
            <rdf:li>animal</rdf:li>
            <rdf:li>bird</rdf:li>
            <rdf:li>bird</rdf:li>
            <rdf:li>clip art</rdf:li>
            <rdf:li>clipart</rdf:li>
            <rdf:li>colouring book</rdf:li>
            <rdf:li>colouring book</rdf:li>
            <rdf:li>crane</rdf:li>
            <rdf:li>crane</rdf:li>
            <rdf:li>fly</rdf:li>
            <rdf:li>fly</rdf:li>
            <rdf:li>fws</rdf:li>
            <rdf:li>fws</rdf:li>
            <rdf:li>fws lineart</rdf:li>
            <rdf:li>fws lineart</rdf:li>
            <rdf:li>grus americana</rdf:li>
            <rdf:li>grus americana</rdf:li>
            <rdf:li>image</rdf:li>
            <rdf:li>line art</rdf:li>
            <rdf:li>line art</rdf:li>
            <rdf:li>media</rdf:li>
            <rdf:li>nature</rdf:li>
            <rdf:li>nature</rdf:li>
            <rdf:li>png</rdf:li>
            <rdf:li>public domain</rdf:li>
            <rdf:li>remix</rdf:li>
            <rdf:li>svg</rdf:li>
            <rdf:li>water</rdf:li>
            <rdf:li>water</rdf:li>
            <rdf:li>whooping</rdf:li>
            <rdf:li>whooping</rdf:li>
            <rdf:li>whooping crane</rdf:li>
            <rdf:li>whooping crane</rdf:li>
          </rdf:Bag>
        </dc:subject>
      </cc:Work>
      <cc:License rdf:about="http://creativecommons.org/licenses/publicdomain/">
        <cc:permits rdf:resource="http://creativecommons.org/ns#Reproduction"/>
        <cc:permits rdf:resource="http://creativecommons.org/ns#Distribution"/>
        <cc:permits rdf:resource="http://creativecommons.org/ns#DerivativeWorks"/>
      </cc:License>
    </rdf:RDF>
  </metadata>
</svg>
