<?xml version="1.0"?>
<svg xmlns:rdf="http://www.w3.org/1999/02/22-rdf-syntax-ns#" xmlns="http://www.w3.org/2000/svg" xmlns:cc="http://web.resource.org/cc/" xmlns:dc="http://purl.org/dc/elements/1.1/" id="svg2" viewBox="0 0 289.38 453.02" version="1.0">
  <g id="layer1" transform="translate(19.431 19.648)">
    <path id="path1882" d="m96.824 400.99c-0.259-8.51-0.981-17.06-3.137-25.32-0.481-2.58-1.296-8.16-0.271-9.1 2.131 7.61 4.152 15.35 4.883 23.23-1.116 4.2 3.541 1.39 2.571-1.37 0.47-1.39-0.37-6.64 0.49-5.87 1.26 4.19 1.44 8.85 3.71 12.64 1.88-2.19 0.8-6.68 1-9.74-0.03-4.81-2.16-9.16-3.89-13.53-1.24-4.39-2.42-8.82-4.55-12.89-1.527-1.26-0.851-6.3 0.944-3.23 2.266 6.01 3.516 12.38 6.296 18.2 1.8 4.08 2.99 8.39 4.17 12.66 2.44 0.67 2.75-5.3 2.25-7.39-2.73-2.87-1.91-7.25-3.63-10.64-2.94-6.06-6.14-12.06-10.137-17.5-2.073-2.91 1.577-2.7 2.107-0.2 2.7 5.47 7.27 9.94 9.2 15.8 0.84 3.99 2.24 7.93 4.2 11.51 2.38-2.49 2.9-6.62 3.38-10.03 0.7-7.38 0.36-14.8 0.44-22.2-3.9-3.68-7.21-8.38-12.37-10.32-2.39-0.11-2.38 4.22-5.591 3.56-2.428-0.16-1.855-1.9 0.197-1.82 3.094-1.94 2.894-7.77 6.444-8.44 0.38 3.74 3.43 6.42 5.88 9.03 1.65 1.63 3.29 3.26 4.94 4.89 0.19-3.67 0.96-7.36 0.55-11.02-2.43-3.14-7.58-4.04-9.05-8.19 2.3 0.24 4.33 2.3 6.34 3.59 1.16 0.84 2.32 1.67 3.48 2.5 2.23-8.73 2.65-17.76 3.31-26.7 0.09-3.75 1.55-7.15 3.55-10.24 0.7-3.81 3.8-6.57 4.81-10.31 2.96-7.55 4.58-15.58 7.77-23.05 1.4-3.22 2.1 0.52 2.13 1.97 3.42 0.82 7.05-0.86 10.5 0.08-2.07 2.15-6.72 2.79-9.9 2.69-3.39 0.53-3.64 5.85-5.08 8.54-2.16 6.14-3.34 12.77-7.34 18.08-1.99 2.66-2.87 5.84-3.54 8.98-0.93 10.3-0.58 20.8-3.21 30.88-1.4 11.97-0.33 24.11-2.47 36.01-0.83 5.54-2.24 11.02-4.87 15.99-0.66 3.29-1.56 7.35-5.09 8.59-0.73 2.95-2.1 5.71-3.28 8.33-2.91 0.68-2.79-7.43-5.071-2.77-0.139 0.85-1.97 7.3-3.065 4.12zm0.798-27.75c-1.567-4.32-3.357-8.72-3.593-13.36 1.268-3.12 2.321 3.25 2.486 4.62 0.594 4.4 3.289 8.11 4.115 12.42 0.15 4.94-2.712-3.02-3.008-3.68zm13.138-10.25c-2.66-5.56-6.5-10.42-10.48-15.09-1.933-1.46-1.511-4.67 0.72-2 5.49 6.14 10.2 13.05 13.85 20.44 1.1 1.55 1.12 5.38-0.9 2.17-1.25-1.72-2.26-3.61-3.19-5.52zm-19.379-2.89c-0.385-4.75-3.128-8.78-4.041-13.39-3.369-15.14-4.321-30.83-3.101-46.29 0.124-5.77 2.39-11.13 5.056-16.15 3.414-7.76 6.64-15.87 7.376-24.39-0.47-3.66-6.172-3.05-8.74-5.28-5.654-2.35-11.908-0.11-17.688-1.56 1.831-2.08 6.969-1.64 10.116-1.91 4.8 0.11 9.838 1.05 13.704 4.07 4.522-1.56 5.39 4.02 4.515 7.41-1.975 8.56-4.707 16.98-8.365 24.97-5.138 8.13-5.5 18.02-5.152 27.33 0.167 9.78 1.051 19.59 3.727 29.03 1.404 2.56 0.511 7.71 3.262 8.72 2.179-2.08 0.686-7.93 3.723-8.29 0.907 3.38 0.193 8.69-2.912 10.64-1.312 2.73 0.938 7.54-0.518 9.36-0.539-1.36-0.722-2.83-0.962-4.27zm20.419-7.44c-2.41-4.24-6.29-7.32-9.21-11.15-2.32-2.42 1.47-3.93 1.92-0.9 3.95 4.66 8.52 8.97 11.14 14.59 0.71 4.38-3.48-1.65-3.85-2.54zm-8.95-28.42c1.28-4.06 4.19 1.48 0.55 1.39-0.42-0.33-0.54-0.89-0.55-1.39zm8.75-6.07c-2.17-0.58-4.44-4.82-0.55-2.91 1.5 0.66 8.11 3.31 4.38 4.38-1.36-0.2-2.62-0.83-3.83-1.47zm-6.04-7.43c1.25-5.29 4.19 2.59 0.31 1.87-0.64-0.39-0.44-1.29-0.31-1.87zm8.54-2.66c-4.28-2.53 4.92-1.82 2.11 0.55-0.74 0-1.43-0.29-2.11-0.55zm-5.25-6.65c0.21-4.38 4.74-0.84 0.75 0.87-0.59 0.62-0.91-0.57-0.75-0.87zm6.75-3.38c-3.4-0.65-0.62-3.82 1.26-1.37 3.04 2.3 0.82 1.97-1.26 1.37zm0.71-8.37c-1.79-4.09 4.73 2.11 0.78 0.75l-0.44-0.34-0.34-0.41zm4.04-6.94c0.85-2.95 5.22 0.96 1.11 0.92-0.46-0.17-0.85-0.51-1.11-0.92zm93.85-10.14c-10.52-1.6-21.1-2.99-31.4-5.79-8.76-2.14-17.81-1.16-26.66-0.26-4.21 0-4.51-5.94-7-8.48 3.91-1.72 5.35 4.17 8.8 4.8 2.01 0.99 5.49 0.16 1.73-0.98-1.74-0.03-5.19-2.9-1.46-2.69 11.09 0.98 21.27 6.37 32.39 7.19 2.59-0.38 7.66 2.32 8.84 0.5-3.61-2-9.07-0.47-11.21-5.16-1.91-2.62-7.16-7.36-1.43-8.87 3.23-1.73 6.69-3.04 10.32-3.51 1.67-0.2 5.9-2.22 1.76-2.08-9.52-0.46-19.09 0.48-28.56-0.65-4.64-1.15-8.84-3.66-13.57-4.56-6.06-1.02-11.28-4.34-16.37-7.58-3.58-2.22-7.53-3.72-11.34-5.45-3.28-3.26 3.26-1.4 4.74-0.31 3.77 1.55 7.36 3.48 10.74 5.72 8.63 4.39 18.14 6.53 27.24 9.67 7.82 1.22 15.78 0.25 23.65 0.14 9.07-0.29 18.12-0.84 27.12-2.01 5.34-0.48 10.69-1.27 16.04-1.43-1.56 2.76-6.7 2.34-9.81 3.3-12.88 2.22-25.99 4.7-37.83 10.46-5.74 1.34-0.43 6.81 2.62 7.92 8.55 3.31 17.67 4.78 26.58 6.81 6.27 1.33 12.63 2.25 19.04 2.49 4.16 1.95-4.01 1.69-5.88 1.76-6.37 0.01-12.78-0.07-19.09-0.95zm-162.35-7.84c2.658-5.64 8.099-10.03 8.844-16.53 0.818-5.94 3.376-11.81 8.352-15.43 3.342-2.48 6.577-5.39 10.52-6.84 3.958-0.49 7.347 3.18 11.401 1.97 4.471 0.09 6.457-3.11 8.093-6.67 2.369-3.2 4.259-7.13 3.229-11.19-1.21-7.27-4.632-14.78-1.87-22.12 1.35-4.12 4.73-6.95 7.62-9.98-11.231-0.88-22.66-2.32-32.886-7.36-5.144-2.22-9.19-6.12-13.062-10.05-6.167 0.01-12.356-0.48-18.506 0.04-5.385 0.91-9.331 5.57-14.617 6.6 1.864-3.31 5.167-5.7 7.873-8.35 2.912-2.28 5.891-6.34 10.071-5.1 2.169 0.34 2.629 2.24 0.231 2.29 0.167 3.03 6.127 1.07 8.575 2.22 3.01 1.14 6.019 1.16 8.654-0.41 1.45 3.3 3.691 6.61 6.606 8.94 5.084 3.11 11.148 3.99 16.774 5.73 7.281 1.92 14.717 3.12 22.117 4.45 5.4-4.69 11.48-8.53 18.02-11.42 2.84-1.11 9.13-3.97 3.87-6.79-3.82-3.05-8.24-5.74-13.18-6.29-3.06-0.9-1.13-3.74 1.3-2.02 5.45 1.8 10.59 4.63 14.86 8.48 3.34 3.08 7.71 0.61 11.43 0.03 0.77 2.71 1.37 6.23 5.1 6.85 6.1 2.71 12.85 3.26 19.11 5.49 12.2 2.62 24.7 3.49 37.15 3.83 1.35-0.12 7.56 0.69 3.13 1.55-12.87 0.9-25.79-0.85-38.65-0.34 2.53 2.04 5.15 4.36 8.5 5.45 7.87 3.4 16.7 2.37 25.04 3.31 2.58 0.63 8.64-0.2 8.64 2.65-7.58 0.46-15.22-0.22-22.75-1.13-6.61-1.69-13.53-1.87-20.11-3.81-6.71-1.39-12.99-4.55-19.83-5.31-3.57-0.03-7.05 0.91-10.56 1.43-1.52 5.13-3.3 10.41-2.17 15.83 1.33 10.09 1.99 20.32 1.62 30.5 0.2 2.02-1.8 5.12-1.74 1.26-0.95-12.72 0.19-25.72-3.03-38.18 0.18-2.18-1.56-0.96-2.82-0.6-2.54 0.71-5.05 2.19-7.71 1.94 0.49-3.13 5.95-3.26 8.57-4.67 3.91-0.81 2.76-5.91 5.96-8.09 2.12-1.86 3.27-5.71 2.47-8.08-4.22 0-7.86 2.81-11.09 5.24-1.13 1.11-7.16 3.47-3.94 0.22 1.32-1.61 7.2-4.12 5.94-4.99-2.64 0.71-5.59 4.01-7.96 3.3 2.27-3.45 7.25-3.82 9.51-7.29-3.76 0.1-8.06 3.46-11.82 5.12-3.91 1.66-6.92 4.98-10.87 6.43-3.5 3.31-6.8 6.92-9.7 10.78-2.579 4.4-0.82 9.75 0.29 14.34 1.46 4.72 3.36 9.95 1.66 14.84-3.31 3.33-2.04 9.07-6.06 11.99-2.383 2.26-6.079 1.41-7.301 4.78-3.726 2.31-7.948 3.89-11.249 6.88-3.351 2.24-5.142 7.05-9.616 7.26-2.665-0.32-6.252 2.4-2.824 3.9-2.3 4-6.239 6.76-9.486 9.97-1.339 0.7-4.919 5.74-5.723 3.15zm117.37-86.46c-3.13-0.67-5.13-3.72-1.73-5.34-4.07-1.28-8.26-2.34-12.36-3.59-2.67-0.33-4.64-0.86-6.4-2.23-4.06-0.61-3.13 5.07-5.57 7.22-0.73 1.16-2.08 2.65 0.24 2.12 7.95 0.12 16.16-0.51 23.71 2.45 1.6 0.85 6.1 0.91 2.11-0.63zm-27.62-10.92c3.45 0.35 2.79-6.65-0.5-3.24-1.7 1.06-5.98 3.28-5.64 4.42 2.02-0.54 4.05-1.03 6.14-1.18zm-12.75 43.79c0.48-3.63 6.44 1.34 2.08 1.57-0.92 0.05-2.1-0.5-2.08-1.57zm-0.5-5.43c0.71-2.38 9.51-0.41 3.97 0.92-1.33 0.17-2.97 0.1-3.97-0.92zm-1.5-6c1.14-1.5 5.75-2 6.79-1.55-1.09 2.06-5.34 3.75-6.79 1.55zm-1.45-5.88c2.73-1.48 5.94-1.51 8.95-2.05-2.92 1.27-6.02 3.36-9.25 2.65l-0.01-0.16 0.31-0.44zm-0.75-12.52c-0.02-5.34 6.79-3.69 9.91-6.13 1.31-1.59 7.74-1.9 3.87 0.53-4.41 1.21-8.76 3.13-12.25 6.12 1.55 1.98 7-2.8 8.67-0.21-2.33 2.1-7.8 4.5-10.29 2.06-0.11-0.79 0.01-1.59 0.09-2.37zm-2.74-6.35c-2.81-1.39-0.92-4.21 1.43-1.84 2.72 2.04 1.04 4.54-1.43 1.84zm-78.024-23.5c1.021-4.69 5.184-7.96 8.865-10.68 4.984-3.56 11.34-3 17.151-3.07-1.442-3.42-3.897-6.25-6.937-8.38-4.858-3.15-10.315-7.5-10.14-13.91 0.179-5.14 3.016-9.74 6.142-13.64 2.359-0.17-1.498 5.6-2.3 7.38-2.367 4.2-2.592 10.07 1.374 13.41 2.643 2.83 5.698 5.29 9.12 7.08 2.341 2.67 2.416 6.73 4.947 9.38 2.422 2.75 7.751 6.72 10.545 2.33 4.515-5.91 5.699-13.61 5.927-20.85 0.427-3-4.561-0.58-4.192-4.27-1.483-9.15-0.672-18.499-1.129-27.734-0.347-5.498-0.153-11.224-2.087-16.458-3.004-3.012-4.972 4.344-6.657 6.282-1.754 2.825-3.561 6.515-6.105 8.2 0.323 0.757 0.101 5.052 1.211 3.4 3.813-4.253 6.369-9.43 9.956-13.839 3.369 0.029-2.276 5.142-2.726 7.039-1.897 3.855-5.288 7.007-6.368 11.219-2.641-0.626-6.057-2.39-7.399 1.498-0.442 2.089-4.571 4.663-2.509 1.001 2.174-3.105 2.456-7.185 4.329-10.508 2.708-5.759 4.824-11.858 8.821-16.908 1.815-2.546 5.199-8.64 7.259-2.811 4.073 6.109 3.226 13.704 3.569 20.669 0.293 8.748-0.083 17.56 1.028 26.26-0.153 2.8 4.638 5.62 3.433 0.98-0.291-8.82-2.425-18.436 2.274-26.527 2.392-3.357 1.356-8.328 5.965-9.701 3.047-2.224 4.607-5.888 7.617-8.267 4.74-4.501 9.34-9.179 14.08-13.66 3.91-0.568 5.52-6.117 9.33-5.952 1.11-2.625 4-5.289 6.51-7.258 1.44-1.789 4.62-2.517 5.81-3.043 0.25-4.223 5.34-6.246 7.99-9.095 6.65-5.429 13.81-10.217 21.11-14.718 5.34-2.839 4.33 4.716 2.77 7.568-6.16 16.487-16.8 30.704-26.85 44.96-3.27 4.601-4.83 10.312-9.01 14.271-1.44 3.849-4.33 7.295-6.63 10.795-2.36 2.747-4.28 5.777-5.54 9.207-2.63 5.21-3.18 11.09-2.87 16.84-0.07 9.33-0.15 18.69-1.33 27.95-0.94 1.63-0.6-4.25-0.8-5.51-0.11-10.16-0.34-20.36 0.39-30.5 0.88-6.58 4.55-12.383 7.78-18.041 4.97-7.409 10.33-14.66 14.13-22.762 0.32-1.459-2.24-3.44 1.11-3.568 2.37-1.317 6.27-4.822 2.4-6.541 3.04-1.059 6.8-3.114 6.02-6.9 2.13 0.202 6.85-3.489 4.68-4.912-3.28 1.309-1.64-2.262 0.77-1.485 3.3-0.392 2.97-3.605 1.4-5.377 1.11-2.265 8.06-1.842 6.14-5.284-1.95 1.015-4.99-0.108-1.98-1.808 2-0.141 6.74-4.445 2.1-3.001-1.22 0.684-6.11 2.166-3.75-0.41 3.56-0.891 7.03-3.248 9.22-6.166-3.11-0.104-5.8 2.974-8.86 3.838-2.16-0.701 5.14-4.655 4.02-5.195-3.85 1.372-6.51 4.521-9.59 6.991-5.01 1.704-7.37 7.563-12.62 8.832-5.24 3.376-9.34 8.211-14.34 11.914-9.43 7.232-18.43 15.089-26.51 23.816-1.12 1.622-1.82 3.413-3.569 4.344 2.749 2.426 1.929 6.937-1.846 7.319 0.105-1.485 0.527-5.533-1.745-2.584-2.127 2.214-1.268 4.489-0.177 6.639-0.563 3.712-1.49 0.719-2.565-0.23-3.163 6.721-0.938 14.221-1.044 21.301 0.007 9.16-0.392 18.91-5.294 26.96-0.484 4.1-4.9 6.55-8.741 6.16-3.208-2.36-7.706-0.96-11.383-0.62-5.636 0.61-10.347 4.45-16.04 4.71-2.039-0.45-4.869 5.23-5.66 1.63zm32.311-79.17c0.943-1.368 3.353-6.507 0.715-5.892-0.764 4.907-4.316 8.812-6.602 13.093-1.205 1.556-2.075 4.418 0.172 1.413 2.129-2.711 4.029-5.608 5.715-8.614zm94.153-49.576c0.87-2.844-6.36 2.012-1.6 0.911 0.59-0.141 1.23-0.383 1.6-0.911zm-68.83 122.31c-1.585-0.41-3.707-2.75-0.64-1.58 1.46 0.67 5.96 1.79 5.47 3.1-1.69-0.14-3.31-0.78-4.83-1.52zm-10.169-1.31c1.334-1.55 6.829-0.57 3.063 0.8-0.559 0.13-6.428 0.45-3.063-0.8zm-14.5-29.5c1.278-4.06 4.186 1.48 0.546 1.39-0.414-0.33-0.538-0.89-0.546-1.39zm-1-5.06c-0.341-2.43 4.406-5.96 5.423-3.76-1.266 0.81-4.166 5.24-5.423 3.76zm-1.362-5.94c2.663-2.05 2.929-6.144 6.808-7.275 2.435 0.262-2.275 3.696-3.034 5.125-0.66 1.12-3.36 6.56-3.774 2.15zm-3.638-5.309c2.432-3.223 5.314-6.369 7.5-9.549 1.651-0.428 1.858-5.821 3.522-2.515-0.524 3.756-5.102 5.024-5.702 8.799-0.868 0.938-4.364 5.644-5.32 3.265zm37.999-3.128c-0.41-4.982 3.3 2.016 0.28 1.28l-0.2-0.528-0.08-0.752zm8 0.586c0.36-2.127 5.1-5.814 5.76-4.649-1.14 1.038-4.37 6.174-5.76 4.649zm-12-4.645c1.61-3.307 2.85 2.808 0.08 0.388l-0.08-0.388zm21.08-12.5c1.61-3.08 3.93-6.147 6.83-8.053-1.15 3.185-3.9 5.963-6.56 8.132l-0.2 0.042-0.07-0.121zm7.06-11.628c-1.1-2.21 4.6-6.955 1.72-3.093-0.98 1.414-1.28 4.592-1.6 5.501-0.04-0.803-0.08-1.605-0.12-2.408zm-0.14-8.813c-0.41-4.982 3.3 2.016 0.28 1.28l-0.2-0.528-0.08-0.752zm0-6.059c1.37-3.066 4.98 1.581 0.92 0.921-0.42-0.117-0.91-0.426-0.92-0.921z"/>
  </g>
  <metadata>
    <rdf:RDF>
      <cc:Work>
        <dc:format>image/svg+xml</dc:format>
        <dc:type rdf:resource="http://purl.org/dc/dcmitype/StillImage"/>
        <cc:license rdf:resource="http://creativecommons.org/licenses/publicdomain/"/>
        <dc:publisher>
          <cc:Agent rdf:about="http://openclipart.org/">
            <dc:title>Openclipart</dc:title>
          </cc:Agent>
        </dc:publisher>
      </cc:Work>
      <cc:License rdf:about="http://creativecommons.org/licenses/publicdomain/">
        <cc:permits rdf:resource="http://creativecommons.org/ns#Reproduction"/>
        <cc:permits rdf:resource="http://creativecommons.org/ns#Distribution"/>
        <cc:permits rdf:resource="http://creativecommons.org/ns#DerivativeWorks"/>
      </cc:License>
    </rdf:RDF>
  </metadata>
</svg>
